<?xml version="1.0" standalone="no"?>
<!DOCTYPE svg PUBLIC "-//W3C//DTD SVG 1.1//EN" "http://www.w3.org/Graphics/SVG/1.1/DTD/svg11.dtd" >
<svg xmlns="http://www.w3.org/2000/svg" xmlns:xlink="http://www.w3.org/1999/xlink" version="1.1">
<metadata>
Created by FontForge 20170910 at Sun Sep  2 12:39:48 2012
 By Jimmy Wärting
Copyright (c) 2008-2012 by Jos Buivenga/exljbris. All rights reserved.
</metadata>
<defs>
<font id="MuseoCyrl-500Italic" horiz-adv-x="577" >
  <font-face 
    font-family="Museo Cyrl 500"
    font-weight="400"
    font-style="italic"
    font-stretch="normal"
    units-per-em="1000"
    panose-1="2 0 0 0 0 0 0 0 0 0"
    ascent="750"
    descent="-250"
    x-height="506"
    cap-height="706"
    bbox="-189 -215 1068 893"
    underline-thickness="50"
    underline-position="-100"
    slope="-11"
    stemh="86"
    stemv="101"
    unicode-range="U+0020-FB04"
  />
<missing-glyph horiz-adv-x="510" 
d="M5 0v700h500v-700h-500zM255 395l170 255h-340zM285 350l170 -255v510zM55 95l170 255l-170 255v-510zM85 50h340l-170 255z" />
    <glyph glyph-name="f_f" unicode="ff" horiz-adv-x="633" 
d="M29 0l83 428h-63l15 78h63l3 17c30 168 155 188 216 188c29 0 48 -3 48 -3l-17 -81c-3 2 -14 2 -27 2c-40 0 -107 -16 -124 -107l-2 -16h218l2 17c31 168 156 188 217 188c28 0 47 -3 47 -3l-16 -81c-4 2 -15 2 -28 2c-39 0 -106 -16 -123 -107l-2 -16h119l-16 -78h-119
l-83 -428h-97l83 428h-218l-83 -428h-96z" />
    <glyph glyph-name="fi" unicode="fi" horiz-adv-x="586" 
d="M29 0l83 428h-63l15 78h63l3 17c30 168 155 188 216 188c29 0 48 -3 48 -3l-17 -81c-3 2 -14 2 -27 2c-40 0 -107 -16 -124 -107l-2 -16h252c38 0 56 -13 56 -44c0 -9 -2 -20 -4 -31l-61 -317c-1 -5 -3 -13 -3 -16c0 -10 6 -15 19 -15h40l-15 -83h-93
c-38 0 -56 16 -56 46c0 7 0 14 3 25l62 319c2 10 3 16 3 22c0 11 -6 16 -18 16h-201l-83 -428h-96zM467 605l20 101h88l-21 -101h-87z" />
    <glyph glyph-name="fl" unicode="fl" horiz-adv-x="581" 
d="M29 0l83 428h-63l15 78h63l3 17c30 164 155 183 216 183h162c39 0 57 -13 57 -44c0 -8 -2 -19 -4 -30l-100 -518c-1 -5 -3 -13 -3 -16c0 -10 5 -15 18 -15h41l-15 -83h-94c-38 0 -55 16 -55 46c0 7 1 15 2 23l101 518c2 10 3 16 3 23c0 10 -6 15 -18 15h-91
c-40 0 -107 -16 -124 -103l-2 -16h119l-15 -78h-120l-83 -428h-96z" />
    <glyph glyph-name="f_f_i" unicode="ffi" horiz-adv-x="901" 
d="M29 0l83 428h-63l15 78h63l3 17c30 168 155 188 216 188c29 0 48 -3 48 -3l-17 -81c-3 2 -14 2 -27 2c-40 0 -107 -16 -124 -107l-2 -16h218l2 17c31 168 156 188 217 188c28 0 47 -3 47 -3l-16 -81c-4 2 -15 2 -28 2c-39 0 -106 -16 -123 -107l-2 -16h251
c38 0 56 -13 56 -44c0 -9 -2 -20 -4 -31l-61 -317c-1 -5 -3 -13 -3 -16c0 -10 6 -15 18 -15h41l-15 -83h-93c-38 0 -56 16 -56 46c0 7 1 14 2 25l62 319c2 10 3 16 3 22c0 11 -6 16 -18 16h-199l-83 -428h-97l83 428h-218l-83 -428h-96zM781 605l20 101h88l-20 -101h-88z
" />
    <glyph glyph-name="f_f_l" unicode="ffl" horiz-adv-x="895" 
d="M29 0l83 428h-63l15 78h63l3 17c30 168 155 188 216 188c29 0 48 -3 48 -3l-17 -81c-3 2 -14 2 -27 2c-40 0 -107 -16 -124 -107l-2 -16h217l3 17c31 164 156 183 216 183h163c38 0 56 -13 56 -44c0 -8 -2 -19 -4 -30l-101 -518c-1 -5 -2 -13 -2 -16c0 -10 6 -15 18 -15
h42l-17 -83h-93c-37 0 -55 16 -55 46c0 7 1 15 2 23l101 518c2 10 3 16 3 23c0 10 -6 15 -18 15h-91c-40 0 -106 -16 -123 -103l-3 -16h120l-16 -78h-119l-83 -428h-97l83 428h-218l-83 -428h-96z" />
    <glyph glyph-name="f_j" unicode="fj" horiz-adv-x="585" 
d="M29 0l83 428h-63l15 78h63l3 17c30 168 155 188 216 188c29 0 48 -3 48 -3l-17 -81c-3 2 -14 2 -27 2c-40 0 -107 -16 -124 -107l-2 -16h271c39 0 57 -13 57 -44c0 -7 -2 -18 -4 -30l-87 -450c-33 -171 -163 -188 -222 -188c-22 0 -41 2 -41 2l17 83s8 -2 21 -2
c45 0 111 16 130 118l77 395c2 10 3 16 3 22c0 11 -6 16 -18 16h-220l-83 -428h-96zM487 605l19 101h87l-19 -101h-87z" />
    <glyph glyph-name=".notdef" horiz-adv-x="510" 
d="M5 0v700h500v-700h-500zM255 395l170 255h-340zM285 350l170 -255v510zM55 95l170 255l-170 255v-510zM85 50h340l-170 255z" />
    <glyph glyph-name="space" unicode=" " horiz-adv-x="269" 
 />
    <glyph glyph-name="exclam" unicode="!" horiz-adv-x="271" 
d="M72 194l93 512h100l-106 -512h-87zM28 0l19 97h100l-19 -97h-100z" />
    <glyph glyph-name="quotedbl" unicode="&#x22;" horiz-adv-x="342" 
d="M247 530l37 188h76l-37 -188h-76zM107 530l36 188h76l-36 -188h-76z" />
    <glyph glyph-name="numbersign" unicode="#" horiz-adv-x="713" 
d="M79 0l71 191h-130l26 73h130l64 169h-130l26 73h130l74 200h81l-74 -200h155l74 200h81l-74 -200h131l-27 -73h-130l-63 -169h130l-27 -73h-130l-70 -191h-81l70 191h-155l-71 -191h-81zM258 264h155l63 169h-156z" />
    <glyph glyph-name="dollar" unicode="$" 
d="M19 91l63 69s58 -81 166 -81c86 0 147 51 147 119c0 140 -282 109 -282 312c0 117 98 199 225 207l18 92h73l-19 -95c73 -11 145 -45 145 -106c0 -8 -1 -21 -4 -30l-9 -48h-90l5 23c2 7 3 15 3 21c0 35 -48 53 -101 53c-95 0 -145 -53 -145 -111c0 -131 283 -95 283 -307
c0 -118 -90 -211 -227 -220l-18 -91h-73l18 95c-121 17 -178 98 -178 98z" />
    <glyph glyph-name="percent" unicode="%" horiz-adv-x="762" 
d="M230 422c-82 0 -135 53 -135 132c0 83 84 164 173 164c82 0 135 -55 135 -131c0 -87 -85 -165 -173 -165zM9 0l668 706h99l-668 -706h-99zM236 496c46 0 89 40 89 88c0 35 -25 61 -63 61c-45 0 -89 -42 -89 -90c0 -34 25 -59 63 -59zM380 119c0 84 84 165 174 165
c81 0 135 -56 135 -132c0 -87 -86 -164 -174 -164c-81 0 -135 53 -135 131zM459 121c0 -34 25 -59 63 -59c46 0 88 40 88 89c0 33 -24 60 -63 60c-44 0 -88 -43 -88 -90z" />
    <glyph glyph-name="ampersand" unicode="&#x26;" horiz-adv-x="647" 
d="M22 174c0 89 68 179 166 206v2s-70 26 -70 121c0 135 118 215 245 215c52 0 94 -14 94 -14l-38 -77s-27 6 -55 6c-73 0 -146 -48 -146 -133c0 -42 19 -87 111 -87h131l19 98h97l-19 -98h94l-17 -82h-94l-18 -96c-32 -170 -133 -247 -276 -247c-142 0 -224 77 -224 186z
M125 183c0 -64 45 -107 123 -107c91 0 156 51 178 164l18 91h-135c-92 0 -184 -49 -184 -148z" />
    <glyph glyph-name="quotesingle" unicode="'" horiz-adv-x="203" 
d="M107 530l36 188h78l-37 -188h-77z" />
    <glyph glyph-name="parenleft" unicode="(" horiz-adv-x="273" 
d="M85 -95c-31 78 -51 170 -51 268c0 211 67 397 206 562h88c-135 -170 -208 -359 -208 -564c0 -92 16 -181 47 -266h-82z" />
    <glyph glyph-name="parenright" unicode=")" horiz-adv-x="273" 
d="M-46 -95c136 171 208 360 208 564c0 92 -15 181 -46 266h81c32 -77 52 -169 52 -268c0 -210 -67 -397 -207 -562h-88z" />
    <glyph glyph-name="asterisk" unicode="*" horiz-adv-x="483" 
d="M168 329l-65 53l111 113v2l-126 35l43 83l123 -51l19 142h91l-35 -142l144 50l12 -85l-148 -39v-2l66 -108l-76 -52l-57 119h-2z" />
    <glyph glyph-name="plus" unicode="+" 
d="M190 0l48 246h-224l15 78h223l49 246h82l-48 -246h222l-14 -78h-223l-48 -246h-82z" />
    <glyph glyph-name="comma" unicode="," horiz-adv-x="253" 
d="M-47 -101l102 206h97l-125 -206h-74z" />
    <glyph glyph-name="hyphen" unicode="-" horiz-adv-x="411" 
d="M49 242l16 86h292l-17 -86h-291z" />
    <glyph glyph-name="period" unicode="." horiz-adv-x="221" 
d="M6 0l19 103h99l-19 -103h-99z" />
    <glyph glyph-name="slash" unicode="/" horiz-adv-x="430" 
d="M-23 -42l406 786h92l-407 -786h-91z" />
    <glyph glyph-name="zero" unicode="0" horiz-adv-x="606" 
d="M49 221c0 181 80 497 321 497c155 0 208 -95 208 -233c0 -181 -79 -497 -321 -497c-152 0 -208 95 -208 233zM151 223c0 -87 28 -146 108 -146c159 0 217 263 217 404c0 89 -28 148 -109 148c-152 0 -216 -250 -216 -406z" />
    <glyph glyph-name="one" unicode="1" horiz-adv-x="462" 
d="M-11 0l15 86h155l89 456c5 22 10 43 10 43h-2s-11 -15 -42 -41l-78 -64l-47 62l200 164h92l-122 -620h154l-17 -86h-407z" />
    <glyph glyph-name="two" unicode="2" horiz-adv-x="570" 
d="M50 0c-45 0 -56 21 -56 62c0 259 449 275 449 471c0 59 -39 93 -106 93c-63 0 -112 -29 -121 -70l-5 -28h-92l10 54c19 95 128 136 221 136c117 0 197 -64 197 -175c0 -253 -438 -297 -438 -439c0 -14 5 -18 23 -18h246c15 0 23 8 26 22l10 45h91l-17 -89
c-9 -45 -32 -64 -77 -64h-361z" />
    <glyph glyph-name="three" unicode="3" horiz-adv-x="555" 
d="M-4 82l59 68s61 -73 159 -73c94 0 177 69 177 158c0 71 -58 107 -134 107c-20 0 -44 -3 -44 -3l-14 53l201 199c16 17 36 30 36 30v2s-23 -3 -37 -3h-165c-14 0 -23 -7 -26 -22l-9 -45h-90l17 89c9 45 31 64 76 64h371l-14 -69l-229 -226c67 -9 165 -50 165 -168
c0 -132 -117 -255 -282 -255c-141 0 -217 94 -217 94z" />
    <glyph glyph-name="four" unicode="4" horiz-adv-x="588" 
d="M-1 186l12 65l405 455h116l-84 -434h109l-16 -86h-110l-37 -186h-97l36 186h-334zM131 272h219l50 258c5 26 16 61 16 61h-2s-22 -32 -39 -51l-244 -266v-2z" />
    <glyph glyph-name="five" unicode="5" horiz-adv-x="548" 
d="M-1 80l59 65s54 -68 150 -68c97 0 188 73 188 169c0 76 -56 120 -137 120c-72 0 -127 -35 -127 -35l-57 23l86 290c13 43 31 62 76 62h242c47 0 62 -21 53 -66l-17 -87h-89l9 45c3 14 -3 22 -18 22h-149c-15 0 -23 -7 -26 -22l-39 -130c-8 -25 -14 -41 -14 -41h2
s40 21 97 21c121 0 211 -80 211 -198c0 -147 -136 -262 -293 -262c-143 0 -207 92 -207 92z" />
    <glyph glyph-name="six" unicode="6" horiz-adv-x="579" 
d="M42 245c0 181 140 473 397 473c87 0 140 -30 140 -30l-42 -81s-42 23 -100 23c-133 0 -226 -122 -263 -240h2c37 42 102 66 162 66c122 0 194 -80 194 -191c0 -135 -102 -277 -265 -277c-136 0 -225 99 -225 257zM143 235c0 -79 48 -158 129 -158c91 0 159 84 159 183
c0 67 -41 114 -122 114c-78 0 -166 -57 -166 -139z" />
    <glyph glyph-name="seven" unicode="7" horiz-adv-x="526" 
d="M32 0l398 577c22 32 36 43 36 43v2s-13 -2 -38 -2h-223c-14 0 -24 -7 -27 -22l-8 -45h-91l17 89c8 45 30 64 75 64h425l-13 -68l-443 -638h-108z" />
    <glyph glyph-name="eight" unicode="8" horiz-adv-x="582" 
d="M23 174c0 119 116 193 157 220c-38 29 -64 66 -64 119c0 100 92 205 246 205c126 0 204 -63 204 -161c0 -107 -104 -195 -127 -214c46 -30 78 -71 78 -130c0 -121 -118 -225 -273 -225c-131 0 -221 73 -221 186zM371 381c15 12 95 83 95 165c0 53 -41 85 -107 85
c-83 0 -145 -52 -145 -117c0 -69 83 -96 157 -133zM125 185c0 -69 53 -110 124 -110c80 0 166 51 166 135c0 74 -94 100 -171 141c-27 -17 -119 -77 -119 -166z" />
    <glyph glyph-name="nine" unicode="9" horiz-adv-x="578" 
d="M25 19l40 80s42 -22 98 -22c134 0 226 120 264 240h-2c-38 -41 -102 -66 -163 -66c-122 0 -193 81 -193 189c0 136 101 278 264 278c136 0 226 -99 226 -257c0 -180 -141 -473 -398 -473c-85 0 -136 31 -136 31zM290 334c78 0 168 57 168 138c0 78 -47 158 -128 158
c-92 0 -161 -84 -161 -184c0 -65 41 -112 121 -112z" />
    <glyph glyph-name="colon" unicode=":" horiz-adv-x="217" 
d="M80 403l20 103h100l-21 -103h-99zM1 0l20 103h100l-20 -103h-100z" />
    <glyph glyph-name="semicolon" unicode=";" horiz-adv-x="269" 
d="M121 403l19 103h100l-20 -103h-99zM-30 -101l91 206h97l-114 -206h-74z" />
    <glyph glyph-name="less" unicode="&#x3c;" 
d="M33 252v66l466 208v-89l-358 -151v-2l358 -151v-89z" />
    <glyph glyph-name="equal" unicode="=" 
d="M45 340v78h477v-78h-477zM45 151v78h477v-78h-477z" />
    <glyph glyph-name="greater" unicode="&#x3e;" 
d="M71 44v89l358 151v2l-358 151v89l466 -208v-66z" />
    <glyph glyph-name="question" unicode="?" horiz-adv-x="473" 
d="M133 194l9 47c32 160 227 184 227 307c0 47 -37 81 -96 81c-66 0 -122 -42 -122 -42l-43 75s79 58 178 58c107 0 186 -62 186 -160c0 -177 -212 -207 -236 -325l-8 -41h-95zM93 0l20 99h101l-20 -99h-101z" />
    <glyph glyph-name="at" unicode="@" horiz-adv-x="786" 
d="M33 182c0 229 205 429 448 429c153 0 219 -76 219 -171c0 -15 -1 -31 -4 -46l-53 -269h72l-14 -73h-262c-117 0 -185 73 -185 162c0 110 99 214 252 214h103s2 10 2 18c0 46 -52 85 -140 85c-185 0 -339 -172 -339 -349c0 -132 86 -230 233 -230l-15 -77
c-185 0 -317 124 -317 307zM353 219c0 -55 37 -94 97 -94h100l46 236h-99c-78 0 -144 -69 -144 -142z" />
    <glyph glyph-name="A" unicode="A" horiz-adv-x="666" 
d="M-43 0l17 86h18c16 0 24 4 33 22l338 598h105l105 -600c3 -16 8 -20 24 -20h18l-17 -86h-60c-43 0 -56 12 -63 58l-25 145h-259l-82 -145c-25 -46 -41 -58 -84 -58h-68zM231 287h211l-36 216c-5 35 -8 98 -8 98h-2s-27 -63 -47 -98z" />
    <glyph glyph-name="B" unicode="B" horiz-adv-x="609" 
d="M52 45c0 10 2 22 5 37l105 538h-65l17 86h295c109 0 180 -56 180 -152c0 -86 -58 -154 -124 -181v-2c53 -22 90 -71 90 -145c0 -109 -79 -187 -166 -214c-29 -9 -60 -12 -88 -12h-191c-41 0 -58 17 -58 45zM221 409h142c70 0 124 58 124 127c0 52 -30 84 -91 84h-134z
M162 101c0 -10 5 -15 18 -15h128c19 0 36 2 53 9c55 20 91 74 91 134c0 65 -40 98 -104 98h-143l-40 -203c-2 -9 -3 -18 -3 -23z" />
    <glyph glyph-name="C" unicode="C" horiz-adv-x="693" 
d="M41 295c0 217 181 423 418 423c103 0 244 -41 244 -138c0 -12 -2 -26 -6 -44l-8 -40h-91l8 38c13 69 -94 91 -150 91c-164 0 -312 -143 -312 -325c0 -128 80 -218 214 -218c84 0 170 31 230 85l45 -78c-68 -63 -179 -101 -286 -101c-180 0 -306 128 -306 307z" />
    <glyph glyph-name="D" unicode="D" horiz-adv-x="717" 
d="M52 45c0 10 2 22 5 37l105 538h-65l17 86h276c190 0 307 -98 307 -285c0 -229 -175 -421 -425 -421h-162c-41 0 -58 17 -58 45zM162 101c0 -10 5 -15 18 -15h92c194 0 321 152 321 329c0 138 -80 205 -217 205h-114l-97 -496c-2 -9 -3 -18 -3 -23z" />
    <glyph glyph-name="E" unicode="E" horiz-adv-x="571" 
d="M52 45c0 10 2 22 5 37l105 538h-65l17 86h409c44 0 59 -18 59 -45c0 -10 -2 -23 -5 -36l-14 -72h-91l6 28c2 11 3 18 3 24c0 10 -7 15 -20 15h-199l-43 -221h247l-17 -86h-247l-37 -189c-2 -9 -3 -18 -3 -23c0 -10 5 -15 18 -15h206c14 0 24 8 27 22l9 45h91l-18 -91
c-8 -46 -31 -62 -73 -62h-312c-41 0 -58 17 -58 45z" />
    <glyph glyph-name="F" unicode="F" horiz-adv-x="513" 
d="M40 0l121 620h-65l18 86h383c44 0 59 -18 59 -45c0 -10 -2 -23 -5 -36l-14 -72h-91l5 28c2 11 4 18 4 24c0 10 -7 15 -20 15h-174l-45 -233h242l-18 -86h-240l-60 -301h-100z" />
    <glyph glyph-name="G" unicode="G" horiz-adv-x="728" 
d="M40 288c0 225 187 430 427 430c158 0 236 -87 236 -87l-58 -73s-63 67 -179 67c-174 0 -322 -151 -322 -328c0 -136 86 -216 209 -216c129 0 220 91 220 91l11 58c2 9 4 17 4 22c0 9 -4 15 -19 15h-45l15 82h91c43 0 59 -18 59 -45c0 -11 -3 -23 -5 -36l-52 -268h-89
l10 46c2 10 7 29 7 29h-2c-35 -36 -119 -87 -230 -87c-169 0 -288 120 -288 300z" />
    <glyph glyph-name="H" unicode="H" horiz-adv-x="757" 
d="M41 0l113 579c2 11 4 20 4 26c0 10 -7 15 -20 15h-41l17 86h95c44 0 58 -18 58 -45c0 -10 -1 -23 -4 -36l-46 -229h360l49 249c9 46 31 61 73 61h104l-17 -86h-45c-12 0 -21 -6 -24 -22l-117 -598h-100l60 310h-359l-60 -310h-100z" />
    <glyph glyph-name="I" unicode="I" horiz-adv-x="318" 
d="M-15 0l17 86h68l104 534h-69l17 86h233l-17 -86h-68l-104 -534h68l-17 -86h-232z" />
    <glyph glyph-name="J" unicode="J" horiz-adv-x="509" 
d="M-8 152c0 19 2 35 5 55l5 31h100l-5 -27c-2 -15 -4 -27 -4 -41c0 -65 43 -88 90 -88c56 0 117 33 135 125l73 375c2 10 3 18 3 23c0 10 -7 15 -20 15h-171l17 86h225c44 0 59 -18 59 -45c0 -10 -3 -22 -5 -35l-84 -432c-29 -152 -138 -206 -235 -206
c-100 0 -188 55 -188 164z" />
    <glyph glyph-name="K" unicode="K" horiz-adv-x="612" 
d="M41 0l113 579c2 11 4 20 4 25c0 11 -7 16 -20 16h-41l17 86h95c44 0 58 -18 58 -45c0 -10 -1 -23 -4 -36l-42 -216h67c29 0 45 7 58 24l210 273h117l-228 -293c-26 -33 -48 -46 -48 -46v-2s15 -13 25 -44l65 -211c6 -17 17 -24 38 -24h32l-18 -86h-64
c-45 0 -65 16 -77 53l-75 245c-6 21 -24 25 -54 25h-65l-63 -323h-100z" />
    <glyph glyph-name="L" unicode="L" horiz-adv-x="536" 
d="M52 45c0 10 2 22 5 37l97 497c2 11 4 20 4 26c0 10 -7 15 -20 15h-41l17 86h95c44 0 58 -18 58 -45c0 -10 -1 -23 -4 -36l-98 -501c-2 -9 -3 -18 -3 -23c0 -10 5 -15 18 -15h195c14 0 23 8 26 22l9 45h91l-17 -91c-8 -46 -32 -62 -73 -62h-301c-41 0 -58 17 -58 45z" />
    <glyph glyph-name="M" unicode="M" horiz-adv-x="862" 
d="M-35 0l16 86h33c15 0 23 7 27 22l164 598h100l93 -375c9 -39 17 -89 17 -89h2s26 48 52 89l239 375h107l-66 -581c-1 -9 -2 -17 -2 -24c0 -9 5 -15 17 -15h34l-17 -86h-82c-43 0 -60 14 -60 49c0 7 2 19 3 27l42 361c5 42 18 104 18 104h-2s-34 -68 -58 -104l-203 -310
h-84l-82 310c-9 37 -18 105 -18 105h-2s-11 -64 -22 -105l-102 -377c-12 -42 -30 -60 -72 -60h-92z" />
    <glyph glyph-name="N" unicode="N" horiz-adv-x="756" 
d="M-24 0l17 86h42c15 0 24 7 27 22l117 598h87l228 -451c19 -38 41 -96 41 -96h2s5 56 13 96l76 390c8 46 30 61 72 61h105l-17 -86h-45c-13 0 -22 -6 -25 -22l-116 -598h-87l-230 451c-18 38 -39 95 -39 95h-2s-6 -55 -14 -95l-75 -391c-9 -42 -31 -60 -73 -60h-104z" />
    <glyph glyph-name="O" unicode="O" horiz-adv-x="795" 
d="M40 296c0 228 206 422 431 422c182 0 307 -125 307 -301c0 -232 -208 -429 -431 -429c-182 0 -307 129 -307 308zM144 300c0 -128 87 -218 212 -218c158 0 318 150 318 329c0 127 -87 214 -211 214c-161 0 -319 -146 -319 -325z" />
    <glyph glyph-name="P" unicode="P" horiz-adv-x="588" 
d="M40 0l121 620h-65l18 86h301c113 0 193 -68 193 -185c0 -109 -69 -195 -146 -233c-35 -17 -76 -27 -117 -27h-154l-51 -261h-100zM208 347h130c90 0 167 67 167 165c0 74 -43 108 -113 108h-131z" />
    <glyph glyph-name="Q" unicode="Q" horiz-adv-x="795" 
d="M40 296c0 228 206 422 428 422c184 0 310 -125 310 -301c0 -115 -52 -221 -130 -299l62 -76l-67 -62l-66 82c-67 -46 -147 -74 -228 -74c-183 0 -309 129 -309 308zM144 300c0 -128 87 -218 212 -218c57 0 113 19 161 52l-73 89l67 61l74 -93c54 58 89 135 89 220
c0 127 -87 214 -211 214c-161 0 -319 -146 -319 -325z" />
    <glyph glyph-name="R" unicode="R" horiz-adv-x="621" 
d="M40 0l121 620h-65l18 86h301c107 0 182 -61 182 -170c0 -126 -92 -207 -171 -223v-2s13 -11 20 -33l52 -166c6 -19 17 -26 35 -26h30l-17 -86h-53c-47 0 -66 12 -80 56l-60 187c-11 33 -22 38 -59 38h-99l-55 -281h-100zM212 367h131c82 0 151 66 151 155
c0 66 -36 98 -100 98h-133z" />
    <glyph glyph-name="S" unicode="S" horiz-adv-x="528" 
d="M-7 91l64 69s58 -81 166 -81c86 0 147 51 147 119c0 139 -283 109 -283 312c0 124 112 208 250 208c88 0 193 -35 193 -110c0 -8 -2 -21 -4 -30l-10 -48h-89l4 23c2 7 3 15 3 21c0 35 -47 53 -100 53c-95 0 -145 -53 -145 -111c0 -130 283 -96 283 -307
c0 -125 -99 -221 -250 -221c-156 0 -229 103 -229 103z" />
    <glyph glyph-name="T" unicode="T" horiz-adv-x="628" 
d="M207 0l121 620h-142c-15 0 -23 -7 -26 -22l-9 -45h-89l18 96c8 43 24 57 67 57h483c44 0 56 -18 56 -45c0 -10 -2 -23 -5 -36l-13 -72h-90l6 28c2 10 4 18 4 24c0 10 -8 15 -21 15h-139l-121 -620h-100z" />
    <glyph glyph-name="U" unicode="U" horiz-adv-x="716" 
d="M74 197c0 18 2 37 6 57l64 325c2 11 4 20 4 26c0 10 -7 15 -20 15h-41l17 86h95c44 0 59 -18 59 -45c0 -10 -2 -23 -5 -36l-73 -375c-4 -15 -5 -31 -5 -42c0 -80 53 -126 140 -126c103 0 183 64 204 170l77 393c8 46 30 61 72 61h104l-16 -86h-45c-13 0 -22 -6 -25 -22
l-70 -360c-29 -149 -144 -250 -306 -250c-147 0 -236 83 -236 209z" />
    <glyph glyph-name="V" unicode="V" horiz-adv-x="669" 
d="M221 0l-105 598c-3 18 -12 22 -25 22h-18l17 86h65c40 0 54 -14 61 -58l70 -435c5 -34 8 -97 8 -97h2s24 57 46 97l240 435c25 47 42 58 87 58h65l-17 -86h-17c-16 0 -25 -4 -34 -22l-339 -598h-106z" />
    <glyph glyph-name="W" unicode="W" horiz-adv-x="967" 
d="M159 0l-38 596c-1 17 -10 24 -24 24h-20l16 86h64c43 0 65 -12 67 -58l22 -454c2 -38 -2 -75 -2 -75h2s14 36 32 75l242 510h89l33 -510c2 -39 0 -75 0 -75h2s12 37 29 75l198 454c21 48 51 58 86 58h71l-17 -86h-20c-13 0 -26 -4 -34 -22l-271 -598h-117l-33 446
c-3 45 -1 96 -1 96h-2s-19 -50 -41 -95l-216 -447h-117z" />
    <glyph glyph-name="X" unicode="X" horiz-adv-x="594" 
d="M-43 0l294 367l-100 228c-8 19 -21 25 -42 25h-25l17 86h55c45 0 65 -11 83 -54l55 -131c14 -35 30 -82 30 -82h2s29 43 59 82l104 131c32 41 53 54 98 54h68l-17 -86h-24c-20 0 -35 -4 -51 -25l-193 -235l157 -360h-109l-90 211c-15 34 -30 77 -30 77h-2
s-26 -38 -58 -77l-167 -211h-114z" />
    <glyph glyph-name="Y" unicode="Y" horiz-adv-x="606" 
d="M194 0l60 308l-123 287c-7 18 -19 25 -35 25h-24l17 86h45c42 0 60 -10 78 -54l76 -177c15 -36 28 -80 28 -80h2s28 44 56 80l140 177c34 44 57 54 98 54h61l-17 -86h-23c-19 0 -31 -6 -44 -23l-235 -289l-60 -308h-100z" />
    <glyph glyph-name="Z" unicode="Z" horiz-adv-x="601" 
d="M-24 0l12 66l435 490c32 35 66 64 66 64v2s-19 -2 -53 -2h-219c-13 0 -23 -7 -26 -22l-9 -45h-92l17 89c9 45 32 64 77 64h453l-13 -65l-438 -491c-32 -36 -66 -64 -66 -64v-2s19 2 53 2h243c14 0 24 7 27 22l8 45h92l-17 -89c-9 -45 -32 -64 -77 -64h-473z" />
    <glyph glyph-name="bracketleft" unicode="[" horiz-adv-x="283" 
d="M15 -31l136 702c9 45 32 64 77 64h101l-14 -73h-59c-14 0 -23 -7 -26 -22l-124 -639c-3 -15 4 -22 18 -22h59l-15 -74h-102c-45 0 -60 19 -51 64z" />
    <glyph glyph-name="backslash" unicode="\" horiz-adv-x="407" 
d="M224 -42l-102 786h83l101 -786h-82z" />
    <glyph glyph-name="bracketright" unicode="]" horiz-adv-x="284" 
d="M-22 -21h59c14 0 23 7 26 22l124 639c3 15 -4 22 -18 22h-59l15 73h101c46 0 61 -19 52 -64l-136 -702c-9 -45 -32 -64 -77 -64h-100z" />
    <glyph glyph-name="asciicircum" unicode="^" horiz-adv-x="612" 
d="M11 247l200 459h63l200 -459h-88l-144 352l-143 -352h-88z" />
    <glyph glyph-name="underscore" unicode="_" horiz-adv-x="560" 
d="M-37 0h537l-14 -78h-538z" />
    <glyph glyph-name="grave" unicode="`" horiz-adv-x="379" 
d="M174 755l-73 127h94l51 -127h-72z" />
    <glyph glyph-name="a" unicode="a" horiz-adv-x="529" 
d="M-4 121c0 147 176 194 339 194h25l2 12c3 14 4 25 4 39c0 50 -30 75 -90 75c-33 0 -90 -7 -95 -39l-5 -29h-92l10 51c14 72 115 94 194 94c122 0 175 -56 175 -143c0 -19 -3 -38 -7 -59l-37 -197c-2 -7 -4 -16 -4 -21c0 -9 6 -15 18 -15h42l-17 -83h-85
c-39 0 -55 17 -55 41c0 11 5 39 10 55h-2c1 0 -60 -108 -183 -108c-79 0 -147 43 -147 133zM94 135c0 -45 31 -72 77 -72c88 0 159 97 172 164l4 18h-25c-85 0 -228 -15 -228 -110z" />
    <glyph glyph-name="b" unicode="b" horiz-adv-x="584" 
d="M10 0l113 586c2 8 3 15 3 22c0 10 -6 15 -18 15h-41l17 83h92c39 0 57 -13 57 -44c0 -8 -2 -19 -4 -30l-30 -155c-5 -25 -12 -46 -12 -46h2c35 51 101 87 168 87c120 0 189 -81 189 -208c0 -191 -137 -322 -275 -322c-69 0 -130 31 -155 94h-2s0 -19 -5 -40l-7 -42h-92z
M147 200c0 -71 34 -128 113 -128c87 0 187 86 187 231c0 81 -43 130 -114 130c-104 0 -186 -112 -186 -233z" />
    <glyph glyph-name="c" unicode="c" horiz-adv-x="525" 
d="M21 212c0 167 139 306 306 306c71 0 198 -27 180 -119l-8 -44h-86l4 21c7 41 -52 59 -97 59c-105 0 -200 -97 -200 -214c0 -84 48 -147 147 -147c102 0 163 61 163 61l28 -77s-68 -70 -201 -70c-151 0 -236 94 -236 224z" />
    <glyph glyph-name="d" unicode="d" horiz-adv-x="603" 
d="M22 196c0 191 134 322 276 322c66 0 128 -29 150 -89h2s1 18 4 36l23 121c2 9 3 15 3 22c0 10 -6 15 -18 15h-40l16 83h93c38 0 57 -13 57 -44c0 -8 -2 -20 -4 -30l-100 -512c-2 -8 -3 -17 -3 -22c0 -9 5 -15 18 -15h41l-17 -83h-84c-39 0 -54 17 -54 41c0 11 4 32 9 48
h-2c-36 -55 -98 -101 -180 -101c-122 0 -190 81 -190 208zM120 204c0 -83 44 -132 113 -132c110 0 187 120 187 232c0 70 -34 129 -112 129c-89 0 -188 -88 -188 -229z" />
    <glyph glyph-name="e" unicode="e" horiz-adv-x="538" 
d="M21 203c0 169 125 315 295 315c130 0 192 -78 192 -187c0 -43 -15 -90 -15 -90h-369s-4 -17 -4 -36c0 -76 51 -133 144 -133c87 0 161 58 161 58l28 -75s-85 -67 -195 -67c-148 0 -237 90 -237 215zM139 310h269s3 15 3 29c0 67 -41 102 -98 102
c-74 0 -144 -48 -174 -131z" />
    <glyph glyph-name="f" unicode="f" horiz-adv-x="318" 
d="M29 0l83 428h-63l15 78h63l3 17c30 168 155 188 216 188c29 0 48 -3 48 -3l-17 -81c-3 2 -14 2 -27 2c-40 0 -107 -16 -124 -107l-2 -16h119l-15 -78h-120l-83 -428h-96z" />
    <glyph glyph-name="g" unicode="g" horiz-adv-x="594" 
d="M37 -90c0 0 54 -34 133 -34c91 0 169 38 191 156c8 38 15 57 15 57h-2c-37 -52 -89 -83 -156 -83c-124 0 -194 85 -194 205c0 141 96 307 268 307c90 0 145 -42 156 -85h2s-1 7 1 21c6 32 27 52 68 52h95l-16 -83h-41c-14 0 -24 -7 -27 -21l-74 -386
c-33 -164 -162 -226 -282 -226c-93 0 -154 28 -180 43zM124 218c0 -78 41 -128 117 -128c117 0 175 133 175 235c0 83 -52 109 -117 109c-112 0 -175 -109 -175 -216z" />
    <glyph glyph-name="h" unicode="h" horiz-adv-x="603" 
d="M9 0l114 585c2 8 4 17 4 23c0 10 -7 15 -19 15h-41l17 83h92c39 0 57 -13 57 -44c0 -8 -2 -19 -4 -30l-36 -185c-5 -24 -10 -44 -10 -44h2c29 43 101 115 207 115c94 0 144 -50 144 -137c0 -18 -3 -40 -7 -62l-39 -205c-1 -5 -3 -13 -3 -16c0 -10 6 -15 18 -15h41
l-16 -83h-93c-38 0 -57 16 -57 46c0 7 1 15 3 23l46 233c3 17 5 34 5 50c0 43 -17 77 -78 77c-102 0 -185 -101 -204 -193l-46 -236h-97z" />
    <glyph glyph-name="i" unicode="i" horiz-adv-x="265" 
d="M146 605l20 101h88l-20 -101h-88zM38 46c0 7 0 14 3 25l61 315c2 10 3 15 3 22c0 10 -6 15 -18 15h-41l16 83h93c38 0 56 -13 56 -44c0 -9 -2 -20 -4 -31l-61 -317c-1 -5 -3 -13 -3 -16c0 -10 6 -15 19 -15h40l-15 -83h-93c-38 0 -56 16 -56 46z" />
    <glyph glyph-name="j" unicode="j" horiz-adv-x="246" 
d="M148 605l19 101h87l-19 -101h-87zM27 -5l76 391c2 10 3 15 3 22c0 10 -6 15 -18 15h-40l16 83h92c39 0 57 -13 57 -44c0 -7 -2 -18 -4 -30l-87 -450c-33 -171 -163 -188 -222 -188c-23 0 -41 2 -41 2l17 83s8 -2 21 -2c44 0 111 16 130 118z" />
    <glyph glyph-name="k" unicode="k" horiz-adv-x="512" 
d="M9 0l114 586c2 8 3 15 3 22c0 10 -6 15 -18 15h-41l17 83h92c39 0 57 -13 57 -44c0 -8 -2 -19 -4 -30l-60 -312h44c20 0 37 7 51 22l150 164h116l-174 -189c-26 -27 -47 -38 -47 -38l-1 -2s13 -6 25 -38l51 -136c6 -16 16 -20 41 -20h31l-16 -83h-66c-45 0 -57 9 -72 47
l-62 168c-7 19 -25 23 -44 23h-43l-47 -238h-97z" />
    <glyph glyph-name="l" unicode="l" horiz-adv-x="249" 
d="M20 46c0 7 1 15 3 23l101 517c2 10 3 15 3 22c0 10 -6 15 -18 15h-41l16 83h92c39 0 57 -13 57 -44c0 -8 -2 -19 -4 -30l-101 -518c-1 -5 -2 -13 -2 -16c0 -10 6 -15 18 -15h41l-16 -83h-93c-38 0 -56 16 -56 46z" />
    <glyph glyph-name="m" unicode="m" horiz-adv-x="934" 
d="M28 0l75 387c2 6 3 15 3 20c0 10 -6 16 -19 16h-40l16 83h92c37 0 54 -17 54 -45c0 -17 -7 -42 -11 -59h2c27 42 98 116 199 116c80 0 122 -42 129 -116h2c30 47 105 116 204 116c88 0 132 -48 132 -131c0 -20 -3 -40 -7 -63l-40 -210c-1 -5 -2 -13 -2 -16
c0 -10 5 -15 17 -15h41l-16 -83h-93c-38 0 -56 16 -56 46c0 7 1 15 2 23l46 235c4 18 7 36 7 52c0 43 -18 73 -68 73c-94 0 -173 -103 -191 -198l-45 -231h-97l59 304c4 18 6 36 6 52c0 43 -17 73 -68 73c-97 0 -173 -104 -192 -199l-45 -230h-96z" />
    <glyph glyph-name="n" unicode="n" horiz-adv-x="621" 
d="M28 0l75 387c2 6 3 15 3 20c0 10 -6 16 -19 16h-40l16 83h92c37 0 54 -17 54 -45c0 -17 -7 -43 -12 -63h2c28 44 101 120 210 120c95 0 145 -50 145 -137c0 -18 -3 -40 -7 -62l-39 -205c-1 -5 -3 -13 -3 -16c0 -10 6 -15 19 -15h40l-15 -83h-94c-38 0 -56 16 -56 46
c0 7 1 15 3 23l45 233c3 17 6 34 6 50c0 43 -18 77 -78 77c-102 0 -186 -101 -204 -193l-47 -236h-96z" />
    <glyph glyph-name="o" unicode="o" horiz-adv-x="611" 
d="M20 211c0 174 154 307 320 307c138 0 234 -90 234 -221c0 -176 -156 -309 -320 -309c-137 0 -234 90 -234 223zM119 215c0 -85 59 -143 144 -143c104 0 212 94 212 220c0 84 -58 142 -142 142c-107 0 -214 -95 -214 -219z" />
    <glyph glyph-name="p" unicode="p" horiz-adv-x="603" 
d="M-11 -200l113 583c2 11 3 18 3 25c0 10 -4 15 -17 15h-41l16 83h91c39 0 52 -16 52 -37c0 -13 -5 -34 -10 -48h2c35 52 95 97 179 97c119 0 188 -79 188 -212c0 -185 -136 -318 -276 -318c-66 0 -124 30 -150 88h-2s-2 -21 -7 -47l-45 -229h-96zM166 204
c0 -73 36 -132 111 -132c90 0 189 87 189 227c0 87 -43 134 -114 134c-104 0 -186 -114 -186 -229z" />
    <glyph glyph-name="q" unicode="q" horiz-adv-x="602" 
d="M22 194c0 193 134 324 279 324c72 0 127 -30 151 -87h2c7 44 20 75 71 75h97l-16 -83h-42c-14 0 -23 -7 -26 -22l-117 -601h-97l45 231c5 26 13 47 13 47h-2c-28 -43 -86 -90 -168 -90c-122 0 -190 81 -190 206zM120 202c0 -81 44 -130 115 -130c106 0 186 117 186 233
c0 70 -35 128 -113 128c-87 0 -188 -86 -188 -231z" />
    <glyph glyph-name="r" unicode="r" horiz-adv-x="378" 
d="M28 0l77 401c2 12 -1 22 -18 22h-40l16 83h93c39 0 55 -14 55 -43c0 -12 -11 -63 -19 -86h2c35 71 104 135 187 135c10 0 19 -1 26 -2l-20 -96c-4 1 -13 2 -26 2c-94 0 -176 -101 -199 -223l-37 -193h-97z" />
    <glyph glyph-name="s" unicode="s" horiz-adv-x="450" 
d="M-13 74l49 64s53 -71 151 -71c58 0 100 27 100 70c0 44 -43 61 -88 79c-66 26 -143 60 -143 150c0 101 95 152 197 152c79 0 185 -32 169 -110l-8 -36h-85l3 19c5 27 -25 50 -81 50c-60 0 -97 -28 -97 -68c0 -47 50 -65 99 -85c64 -25 135 -56 135 -142
c0 -92 -83 -158 -202 -158c-138 0 -199 86 -199 86z" />
    <glyph glyph-name="t" unicode="t" horiz-adv-x="328" 
d="M56 138c0 15 2 33 5 51l47 239h-66l15 78h68l27 139h95l-27 -139h122l-16 -78h-121l-44 -228c-3 -14 -4 -27 -4 -39c0 -73 55 -79 87 -79c15 0 25 2 25 2l-17 -86s-14 -3 -35 -3c-57 0 -161 24 -161 143z" />
    <glyph glyph-name="u" unicode="u" horiz-adv-x="616" 
d="M51 125c0 19 2 40 6 63l40 204c1 5 2 13 2 16c0 10 -6 15 -18 15h-41l16 83h93c39 0 57 -16 57 -46c0 -6 -1 -14 -3 -23l-46 -234c-3 -16 -5 -33 -5 -48c0 -43 17 -77 76 -77c100 0 183 100 201 192l46 236h97l-75 -387c-2 -7 -3 -15 -3 -20c0 -10 6 -16 19 -16h39
l-16 -83h-91c-37 0 -54 17 -54 45c0 18 7 43 12 64h-2c-28 -45 -100 -121 -208 -121c-94 0 -142 50 -142 137z" />
    <glyph glyph-name="v" unicode="v" horiz-adv-x="534" 
d="M152 0l-76 400c-3 16 -10 23 -25 23h-13l16 83h50c36 0 55 -17 62 -54l52 -288c3 -25 5 -67 5 -67h2s15 40 30 67l165 291c23 40 38 51 83 51h57l-16 -83h-13c-16 0 -25 -5 -34 -20l-233 -403h-112z" />
    <glyph glyph-name="w" unicode="w" horiz-adv-x="844" 
d="M134 0l-54 403c-3 15 -10 20 -25 20h-17l17 83h64c33 0 53 -16 57 -56l31 -299c3 -26 2 -54 2 -54h2s11 28 24 54l178 353h89l41 -353c3 -26 3 -54 3 -54h2s10 28 23 54l148 301c21 43 36 54 81 54h68l-16 -83h-14c-16 0 -26 -4 -36 -20l-211 -403h-108l-43 325
c-3 26 -3 55 -3 55h-2s-12 -29 -25 -55l-167 -325h-109z" />
    <glyph glyph-name="x" unicode="x" horiz-adv-x="504" 
d="M-37 0l226 265l-73 139c-8 16 -21 19 -40 19h-29l17 83h62c39 0 54 -13 73 -53l46 -95c5 -12 11 -31 11 -31h2s12 19 22 31l77 95c34 42 47 53 94 53h72l-16 -83h-29c-20 0 -34 -2 -47 -18l-129 -149l124 -256h-102l-80 164c-5 13 -11 28 -11 28h-2s-8 -14 -19 -28
l-137 -164h-112z" />
    <glyph glyph-name="y" unicode="y" horiz-adv-x="544" 
d="M31 -210c-69 0 -112 50 -112 50l41 69c2 -2 29 -36 74 -36c40 0 73 29 100 74l36 57l-95 399c-4 16 -10 20 -27 20h-12l16 83h65c32 0 43 -17 50 -51l59 -285c5 -26 6 -61 6 -61h2s15 35 29 61l161 285c23 40 43 51 84 51h62l-17 -83h-12c-16 0 -27 -4 -36 -20l-297 -497
c-47 -78 -109 -116 -177 -116z" />
    <glyph glyph-name="z" unicode="z" horiz-adv-x="514" 
d="M-20 0l12 62l318 316c27 27 55 51 55 51v2s-22 -2 -46 -2h-149c-14 0 -23 -7 -26 -22l-8 -40h-83l15 75c9 45 32 64 77 64h361l-11 -62l-318 -316c-29 -27 -58 -50 -58 -50v-2s20 2 53 2h164c14 0 24 9 27 23l7 38h83l-15 -75c-9 -45 -32 -64 -77 -64h-381z" />
    <glyph glyph-name="braceleft" unicode="{" horiz-adv-x="322" 
d="M62 32c0 15 2 32 5 51l18 90c2 11 3 21 3 29c0 74 -67 80 -67 80l17 86s86 7 106 111l18 90c31 158 143 172 217 167l-14 -74c-30 4 -102 -6 -121 -105l-21 -110c-20 -100 -106 -121 -106 -121v-2s60 -25 60 -102c0 -10 -1 -20 -3 -30l-21 -107c-3 -13 -5 -26 -5 -37
c0 -69 57 -72 85 -70l-15 -74s-10 -2 -23 -2c-35 0 -133 15 -133 130z" />
    <glyph glyph-name="bar" unicode="|" horiz-adv-x="303" 
d="M113 -159v951h85v-951h-85z" />
    <glyph glyph-name="braceright" unicode="}" horiz-adv-x="321" 
d="M-35 -22c32 -4 102 6 121 105l24 119c19 103 106 124 106 124v2s-59 23 -59 100c0 10 1 19 3 30l19 99c2 13 4 25 4 35c0 69 -58 72 -85 70l15 74c53 7 156 -13 156 -129c0 -14 -2 -32 -6 -50l-15 -80c-2 -11 -3 -21 -3 -29c0 -75 67 -80 67 -80l-17 -86
s-86 -8 -106 -111l-20 -100c-31 -158 -143 -174 -218 -168z" />
    <glyph glyph-name="asciitilde" unicode="~" horiz-adv-x="575" 
d="M48 204c0 116 53 169 139 169c106 0 116 -98 192 -98c53 0 67 52 67 94h79c0 -117 -53 -169 -140 -169c-105 0 -115 97 -191 97c-52 0 -67 -52 -67 -93h-79z" />
    <glyph glyph-name="exclamdown" unicode="&#xa1;" horiz-adv-x="243" 
d="M93 409l19 97h99l-19 -97h-99zM-26 -200l107 511h87l-93 -511h-101z" />
    <glyph glyph-name="cent" unicode="&#xa2;" 
d="M204 -12l17 87c-99 20 -164 98 -164 219c0 167 117 327 273 340l16 84h71l-17 -88c134 -24 155 -151 155 -151l-87 -33s-15 98 -117 98c-112 0 -194 -114 -194 -248c0 -80 39 -133 120 -133c100 0 155 97 155 97l83 -35s-71 -144 -224 -155l-16 -82h-71z" />
    <glyph glyph-name="sterling" unicode="&#xa3;" 
d="M-9 0l17 86h60l45 233h-47l13 70h47l28 143c21 106 119 186 240 186c107 0 165 -68 165 -68l-63 -61s-40 40 -104 40c-74 0 -128 -49 -139 -108l-27 -132h184l-13 -70h-184l-45 -233h216c14 0 23 8 26 22l9 45h91l-17 -89c-8 -45 -32 -64 -77 -64h-425z" />
    <glyph glyph-name="yen" unicode="&#xa5;" horiz-adv-x="617" 
d="M200 0l40 204h-161l12 63h162l8 41l-19 44h-137l13 63h95l-75 180c-7 18 -19 25 -35 25h-23l16 86h45c42 0 60 -10 79 -54l75 -177c15 -36 28 -80 28 -80h2s29 44 56 80l141 177c33 44 56 54 97 54h60l-16 -86h-23c-18 0 -31 -6 -44 -23l-147 -182h92l-13 -63h-131
l-36 -44l-8 -41h158l-11 -63h-160l-40 -204h-100z" />
    <glyph glyph-name="section" unicode="&#xa7;" horiz-adv-x="439" 
d="M105 111l5 385c-2 121 74 222 208 222c91 0 143 -54 143 -54l-53 -58s-34 31 -91 31c-83 0 -129 -61 -128 -141l-7 -385h-77zM-9 -8l53 59s34 -31 91 -31c83 0 129 60 128 140l7 385h77l-5 -385c2 -120 -74 -222 -208 -222c-91 0 -143 54 -143 54z" />
    <glyph glyph-name="dieresis" unicode="&#xa8;" horiz-adv-x="501" 
d="M296 781l20 101h74l-20 -101h-74zM132 781l20 101h73l-20 -101h-73z" />
    <glyph glyph-name="copyright" unicode="&#xa9;" horiz-adv-x="815" 
d="M62 353c0 203 159 365 355 365c200 0 359 -162 359 -365s-159 -365 -359 -365c-196 0 -355 162 -355 365zM135 353c0 -167 123 -298 282 -298c162 0 286 131 286 298s-124 298 -286 298c-159 0 -282 -131 -282 -298zM228 352c0 105 76 200 197 200c114 0 162 -99 162 -99
l-60 -33s-34 63 -100 63c-79 0 -124 -61 -124 -131c0 -71 43 -131 124 -131c67 0 100 63 100 63l60 -33s-48 -99 -162 -99c-122 0 -197 94 -197 200z" />
    <glyph glyph-name="ordfeminine" unicode="&#xaa;" horiz-adv-x="438" 
d="M193 383c-49 0 -93 27 -93 85c0 112 159 119 208 119h13c2 10 3 20 3 27c0 30 -15 43 -51 43c-13 0 -44 -2 -47 -18l-4 -20h-67l7 40c7 36 56 57 122 57c87 0 113 -38 113 -91c0 -12 -1 -26 -4 -39l-23 -119c-1 -8 2 -13 10 -13h25l-12 -65h-55c-25 0 -40 13 -36 52h-2
s-35 -58 -107 -58zM218 442c48 0 85 44 94 97h-10c-36 0 -127 -4 -127 -60c0 -22 14 -37 43 -37zM60 265l11 57h312l-11 -57h-312z" />
    <glyph glyph-name="guillemotleft" unicode="&#xab;" horiz-adv-x="555" 
d="M367 77l-129 207l208 204h103l-218 -210l128 -201h-92zM168 77l-129 207l192 204h102l-201 -210l128 -201h-92z" />
    <glyph glyph-name="logicalnot" unicode="&#xac;" horiz-adv-x="649" 
d="M85 340v78h477v-268h-81v190h-396z" />
    <glyph glyph-name="registered" unicode="&#xae;" horiz-adv-x="815" 
d="M62 353c0 203 159 365 355 365c200 0 359 -162 359 -365s-159 -365 -359 -365c-196 0 -355 162 -355 365zM135 353c0 -167 123 -298 282 -298c162 0 286 131 286 298s-124 298 -286 298c-159 0 -282 -131 -282 -298zM295 166v378h145c72 0 119 -46 119 -116
c0 -58 -38 -92 -69 -100v-2s4 -4 13 -21l72 -139h-77l-70 146h-62v-146h-71zM366 364h60c38 0 61 24 61 64c0 39 -23 61 -60 61h-61v-125z" />
    <glyph glyph-name="macron" unicode="&#xaf;" horiz-adv-x="464" 
d="M101 784l13 69h254l-13 -69h-254z" />
    <glyph glyph-name="degree" unicode="&#xb0;" horiz-adv-x="384" 
d="M224 422c-78 0 -135 55 -135 130c0 87 83 166 173 166c77 0 134 -56 134 -130c0 -88 -84 -166 -172 -166zM230 495c47 0 88 40 88 89c0 36 -25 61 -63 61c-48 0 -88 -42 -88 -89c0 -35 24 -61 63 -61z" />
    <glyph glyph-name="plusminus" unicode="&#xb1;" 
d="M-6 246v78h223v246h83v-246h222v-78h-222v-246h-83v246h-223zM10 -95h497v-77h-497v77z" />
    <glyph glyph-name="twosuperior" unicode="&#xb2;" horiz-adv-x="376" 
d="M72 266c-33 0 -39 9 -39 37c0 189 272 172 272 291c0 31 -19 50 -57 50c-35 0 -63 -17 -66 -35l-5 -24h-69l9 44c9 51 72 85 140 85c70 0 126 -37 126 -113c0 -164 -269 -171 -269 -263c0 -6 2 -7 10 -7h148c6 0 10 3 11 8l6 35h69l-12 -62c-6 -32 -23 -46 -55 -46h-219z
" />
    <glyph glyph-name="threesuperior" unicode="&#xb3;" horiz-adv-x="376" 
d="M188 259c-101 0 -149 67 -149 67l49 49s34 -47 100 -47c49 0 94 39 94 89c0 39 -36 58 -75 58h-31l-10 36l118 115c11 12 24 21 24 21v3s-13 -4 -29 -4h-88c-7 0 -10 -3 -11 -10l-6 -31h-64l10 53c7 36 20 48 57 48h231l-9 -48l-136 -130c41 -9 97 -39 97 -110
c0 -80 -75 -159 -172 -159z" />
    <glyph glyph-name="acute" unicode="&#xb4;" horiz-adv-x="387" 
d="M105 755l97 127h101l-119 -127h-79z" />
    <glyph glyph-name="mu" unicode="&#xb5;" horiz-adv-x="660" 
d="M10 -200l117 598c2 12 2 25 -17 25h-41l16 83h93c39 0 56 -16 56 -46c0 -6 -1 -14 -2 -23l-45 -234c-4 -16 -6 -33 -6 -48c0 -43 17 -77 76 -77c100 0 183 100 201 192l46 236h97l-76 -387c-1 -7 -2 -15 -2 -20c0 -10 6 -16 18 -16h40l-15 -83h-92c-38 0 -54 17 -54 45
c0 18 7 43 12 64h-2c-28 -45 -100 -121 -208 -121c-44 0 -72 13 -89 35h-2s-2 -53 -8 -83l-27 -140h-86z" />
    <glyph glyph-name="mu" unicode="&#x3bc;" horiz-adv-x="660" 
d="M10 -200l117 598c2 12 2 25 -17 25h-41l16 83h93c39 0 56 -16 56 -46c0 -6 -1 -14 -2 -23l-45 -234c-4 -16 -6 -33 -6 -48c0 -43 17 -77 76 -77c100 0 183 100 201 192l46 236h97l-76 -387c-1 -7 -2 -15 -2 -20c0 -10 6 -16 18 -16h40l-15 -83h-92c-38 0 -54 17 -54 45
c0 18 7 43 12 64h-2c-28 -45 -100 -121 -208 -121c-44 0 -72 13 -89 35h-2s-2 -53 -8 -83l-27 -140h-86z" />
    <glyph glyph-name="paragraph" unicode="&#xb6;" horiz-adv-x="597" 
d="M209 -50l56 291c-116 0 -208 96 -194 222c15 135 146 243 278 243h278l-16 -86h-197l-130 -670h-75zM346 -50l118 613h75l-119 -613h-74z" />
    <glyph glyph-name="periodcentered" unicode="&#xb7;" horiz-adv-x="219" 
d="M48 239l20 102h99l-20 -102h-99z" />
    <glyph glyph-name="cedilla" unicode="&#xb8;" horiz-adv-x="416" 
d="M133 -88l49 111l47 -11l-1 -7l-23 -55c28 -5 59 -26 59 -64c0 -69 -66 -93 -115 -93c-35 0 -58 6 -58 6l11 59s19 -7 41 -7c26 0 54 8 54 37c0 17 -19 26 -47 26c-8 0 -17 -2 -17 -2z" />
    <glyph glyph-name="onesuperior" unicode="&#xb9;" horiz-adv-x="376" 
d="M63 266l13 67h93l46 241c5 21 8 32 8 32h-2s-6 -9 -15 -16l-47 -38l-37 49l129 105h66l-71 -373h91l-13 -67h-261z" />
    <glyph glyph-name="ordmasculine" unicode="&#xba;" horiz-adv-x="465" 
d="M255 384c-87 0 -146 57 -146 139c0 109 97 194 199 194c87 0 147 -58 147 -140c0 -110 -99 -193 -200 -193zM261 449c60 0 121 52 121 124c0 47 -33 80 -80 80c-60 0 -121 -54 -121 -124c0 -49 33 -80 80 -80zM71 265l11 57h313l-11 -57h-313z" />
    <glyph glyph-name="guillemotright" unicode="&#xbb;" horiz-adv-x="559" 
d="M217 77l202 208l-126 203h95l127 -205l-198 -206h-100zM5 77l212 208l-126 203h95l126 -205l-206 -206h-101z" />
    <glyph glyph-name="onequarter" unicode="&#xbc;" horiz-adv-x="873" 
d="M204 0l425 706h77l-424 -706h-78zM48 266l13 67h93l46 241c5 21 8 32 8 32h-2s-6 -9 -15 -16l-47 -38l-37 49l129 105h66l-72 -373h89l-14 -67h-257zM457 113l8 46l247 282h87l-51 -263h66l-12 -65h-66l-23 -113h-75l22 113h-203zM550 177c0 0 13 1 20 1h103l27 139
c4 18 9 36 9 36h-2s-10 -14 -21 -27l-118 -131c-8 -9 -18 -17 -18 -17v-1z" />
    <glyph glyph-name="onehalf" unicode="&#xbd;" horiz-adv-x="869" 
d="M188 0l425 706h78l-424 -706h-79zM45 266l13 67h93l47 241c4 21 7 32 7 32h-2s-7 -9 -16 -16l-47 -38l-36 49l128 105h68l-73 -373h90l-14 -67h-258zM469 38c0 188 271 172 271 291c0 31 -19 49 -56 49c-35 0 -63 -16 -67 -34l-4 -25h-69l8 44c10 52 72 86 140 86
c70 0 127 -38 127 -114c0 -164 -269 -171 -269 -263c0 -6 2 -7 9 -7h149c6 0 9 3 10 9l7 34h68l-11 -61c-6 -33 -23 -47 -55 -47h-219c-33 0 -39 9 -39 38z" />
    <glyph glyph-name="threequarters" unicode="&#xbe;" horiz-adv-x="873" 
d="M202 0l425 706h78l-424 -706h-79zM196 259c-101 0 -149 67 -149 67l49 49s35 -47 101 -47c48 0 94 39 94 89c0 39 -37 58 -76 58h-31l-10 36l117 115c13 12 26 21 26 21v3s-14 -4 -30 -4h-88c-6 0 -9 -3 -11 -10l-6 -31h-64l10 53c7 36 20 48 58 48h230l-9 -48l-135 -130
c41 -9 96 -39 96 -110c0 -80 -74 -159 -172 -159zM457 113l9 46l246 282h88l-51 -263h66l-13 -65h-66l-22 -113h-76l22 113h-203zM551 177c0 0 13 1 20 1h102l27 139c4 18 9 36 9 36h-2s-10 -14 -20 -27l-119 -131c-7 -9 -17 -17 -17 -17v-1z" />
    <glyph glyph-name="questiondown" unicode="&#xbf;" horiz-adv-x="466" 
d="M319 311l-9 -47c-32 -160 -227 -184 -227 -307c0 -47 37 -81 96 -81c66 0 122 42 122 42l43 -75s-79 -58 -178 -58c-107 0 -186 62 -186 160c0 177 212 207 236 325l8 41h95zM359 505l-20 -99h-101l20 99h101z" />
    <glyph glyph-name="Agrave" unicode="&#xc0;" horiz-adv-x="666" 
d="M-43 0l17 86h18c16 0 24 4 33 22l338 598h105l105 -600c3 -16 8 -20 24 -20h18l-17 -86h-60c-43 0 -56 12 -63 58l-25 145h-259l-82 -145c-25 -46 -41 -58 -84 -58h-68zM231 287h211l-36 216c-5 35 -8 98 -8 98h-2s-27 -63 -47 -98zM391 755l-73 127h94l51 -127h-72z" />
    <glyph glyph-name="Aacute" unicode="&#xc1;" horiz-adv-x="666" 
d="M-43 0l17 86h18c16 0 24 4 33 22l338 598h105l105 -600c3 -16 8 -20 24 -20h18l-17 -86h-60c-43 0 -56 12 -63 58l-25 145h-259l-82 -145c-25 -46 -41 -58 -84 -58h-68zM231 287h211l-36 216c-5 35 -8 98 -8 98h-2s-27 -63 -47 -98zM387 755l97 127h101l-119 -127h-79z
" />
    <glyph glyph-name="Acircumflex" unicode="&#xc2;" horiz-adv-x="666" 
d="M-43 0l17 86h18c16 0 24 4 33 22l338 598h105l105 -600c3 -16 8 -20 24 -20h18l-17 -86h-60c-43 0 -56 12 -63 58l-25 145h-259l-82 -145c-25 -46 -41 -58 -84 -58h-68zM231 287h211l-36 216c-5 35 -8 98 -8 98h-2s-27 -63 -47 -98zM292 755l112 127h89l64 -127h-77
l-36 80h-2l-68 -80h-82z" />
    <glyph glyph-name="Atilde" unicode="&#xc3;" horiz-adv-x="666" 
d="M-43 0l17 86h18c16 0 24 4 33 22l338 598h105l105 -600c3 -16 8 -20 24 -20h18l-17 -86h-60c-43 0 -56 12 -63 58l-25 145h-259l-82 -145c-25 -46 -41 -58 -84 -58h-68zM231 287h211l-36 216c-5 35 -8 98 -8 98h-2s-27 -63 -47 -98zM255 756c16 93 63 127 121 127
c75 0 75 -68 121 -68c31 0 47 36 53 65h66c-17 -92 -64 -127 -121 -127c-76 0 -76 68 -122 68c-30 0 -47 -35 -53 -65h-65z" />
    <glyph glyph-name="Adieresis" unicode="&#xc4;" horiz-adv-x="666" 
d="M-43 0l17 86h18c16 0 24 4 33 22l338 598h105l105 -600c3 -16 8 -20 24 -20h18l-17 -86h-60c-43 0 -56 12 -63 58l-25 145h-259l-82 -145c-25 -46 -41 -58 -84 -58h-68zM231 287h211l-36 216c-5 35 -8 98 -8 98h-2s-27 -63 -47 -98zM470 781l20 101h74l-20 -101h-74z
M306 781l20 101h73l-20 -101h-73z" />
    <glyph glyph-name="Aring" unicode="&#xc5;" horiz-adv-x="666" 
d="M-43 0l17 86h18c16 0 24 4 33 22l338 598h105l105 -600c3 -16 8 -20 24 -20h18l-17 -86h-60c-43 0 -56 12 -63 58l-25 145h-259l-82 -145c-25 -46 -41 -58 -84 -58h-68zM231 287h211l-36 216c-5 35 -8 98 -8 98h-2s-27 -63 -47 -98zM428 742c-40 0 -74 25 -74 65
c0 53 49 86 94 86c40 0 75 -24 75 -66c0 -51 -49 -85 -95 -85zM431 783c24 0 42 18 42 43c0 16 -10 27 -28 27c-21 0 -41 -18 -41 -44c0 -16 10 -26 27 -26z" />
    <glyph glyph-name="AE" unicode="&#xc6;" horiz-adv-x="866" 
d="M13 0h-56l17 86h15c17 0 23 4 33 22l350 598h447c43 0 58 -18 58 -45c0 -10 -2 -23 -5 -36l-13 -72h-92l6 28c2 11 3 18 3 24c0 10 -7 15 -20 15h-193l-43 -221h242l-17 -86h-242l-37 -189c-2 -9 -3 -18 -3 -23c0 -10 5 -15 18 -15h200c14 0 24 8 27 22l9 45h91l-17 -91
c-9 -46 -32 -62 -73 -62h-307c-41 0 -58 17 -58 45c0 10 2 22 5 37l45 231h-158l-145 -255c-27 -46 -38 -58 -87 -58zM294 399h126l43 221h-43z" />
    <glyph glyph-name="Ccedilla" unicode="&#xc7;" horiz-adv-x="694" 
d="M253 -88l36 82c-150 22 -247 142 -247 301c0 217 181 423 418 423c104 0 244 -41 244 -138c0 -12 -2 -26 -5 -44l-8 -40h-92l8 38c14 69 -94 91 -150 91c-164 0 -312 -143 -312 -325c0 -128 81 -218 214 -218c84 0 171 31 230 85l45 -78c-67 -63 -179 -101 -286 -101h-7
l-15 -38c27 -5 59 -26 59 -64c0 -69 -66 -93 -116 -93c-34 0 -57 6 -57 6l10 59s19 -7 42 -7c26 0 53 8 53 37c0 17 -18 26 -46 26c-9 0 -18 -2 -18 -2z" />
    <glyph glyph-name="Egrave" unicode="&#xc8;" horiz-adv-x="571" 
d="M52 45c0 10 2 22 5 37l105 538h-65l17 86h409c44 0 59 -18 59 -45c0 -10 -2 -23 -5 -36l-14 -72h-91l6 28c2 11 3 18 3 24c0 10 -7 15 -20 15h-199l-43 -221h247l-17 -86h-247l-37 -189c-2 -9 -3 -18 -3 -23c0 -10 5 -15 18 -15h206c14 0 24 8 27 22l9 45h91l-18 -91
c-8 -46 -31 -62 -73 -62h-312c-41 0 -58 17 -58 45zM344 755l-73 127h94l51 -127h-72z" />
    <glyph glyph-name="Eacute" unicode="&#xc9;" horiz-adv-x="571" 
d="M341 755l97 127h101l-119 -127h-79zM52 45c0 10 2 22 5 37l105 538h-65l17 86h409c44 0 59 -18 59 -45c0 -10 -2 -23 -5 -36l-14 -72h-91l6 28c2 11 3 18 3 24c0 10 -7 15 -20 15h-199l-43 -221h247l-17 -86h-247l-37 -189c-2 -9 -3 -18 -3 -23c0 -10 5 -15 18 -15h206
c14 0 24 8 27 22l9 45h91l-18 -91c-8 -46 -31 -62 -73 -62h-312c-41 0 -58 17 -58 45z" />
    <glyph glyph-name="Ecircumflex" unicode="&#xca;" horiz-adv-x="571" 
d="M245 755l112 127h89l64 -127h-77l-36 80h-2l-68 -80h-82zM52 45c0 10 2 22 5 37l105 538h-65l17 86h409c44 0 59 -18 59 -45c0 -10 -2 -23 -5 -36l-14 -72h-91l6 28c2 11 3 18 3 24c0 10 -7 15 -20 15h-199l-43 -221h247l-17 -86h-247l-37 -189c-2 -9 -3 -18 -3 -23
c0 -10 5 -15 18 -15h206c14 0 24 8 27 22l9 45h91l-18 -91c-8 -46 -31 -62 -73 -62h-312c-41 0 -58 17 -58 45z" />
    <glyph glyph-name="Edieresis" unicode="&#xcb;" horiz-adv-x="571" 
d="M423 781l20 101h74l-20 -101h-74zM259 781l20 101h73l-20 -101h-73zM52 45c0 10 2 22 5 37l105 538h-65l17 86h409c44 0 59 -18 59 -45c0 -10 -2 -23 -5 -36l-14 -72h-91l6 28c2 11 3 18 3 24c0 10 -7 15 -20 15h-199l-43 -221h247l-17 -86h-247l-37 -189
c-2 -9 -3 -18 -3 -23c0 -10 5 -15 18 -15h206c14 0 24 8 27 22l9 45h91l-18 -91c-8 -46 -31 -62 -73 -62h-312c-41 0 -58 17 -58 45z" />
    <glyph glyph-name="Igrave" unicode="&#xcc;" horiz-adv-x="318" 
d="M-15 0l17 86h68l104 534h-69l17 86h233l-17 -86h-68l-104 -534h68l-17 -86h-232zM211 755l-73 127h94l51 -127h-72z" />
    <glyph glyph-name="Iacute" unicode="&#xcd;" horiz-adv-x="318" 
d="M-15 0l17 86h68l104 534h-69l17 86h233l-17 -86h-68l-104 -534h68l-17 -86h-232zM207 755l97 127h101l-119 -127h-79z" />
    <glyph glyph-name="Icircumflex" unicode="&#xce;" horiz-adv-x="318" 
d="M-15 0l17 86h68l104 534h-69l17 86h233l-17 -86h-68l-104 -534h68l-17 -86h-232zM112 755l112 127h89l64 -127h-77l-36 80h-2l-68 -80h-82z" />
    <glyph glyph-name="Idieresis" unicode="&#xcf;" horiz-adv-x="318" 
d="M-15 0l17 86h68l104 534h-69l17 86h233l-17 -86h-68l-104 -534h68l-17 -86h-232zM291 781l20 101h74l-20 -101h-74zM127 781l20 101h73l-20 -101h-73z" />
    <glyph glyph-name="Eth" unicode="&#xd0;" horiz-adv-x="720" 
d="M55 45c0 10 2 22 5 37l44 230h-49l16 82h49l44 226h-65l17 86h276c191 0 307 -98 307 -285c0 -229 -174 -421 -425 -421h-162c-40 0 -57 17 -57 45zM164 101c0 -10 6 -15 19 -15h91c194 0 321 152 321 329c0 138 -80 205 -217 205h-114l-44 -226h144l-16 -82h-144
l-36 -188c-2 -9 -4 -18 -4 -23z" />
    <glyph glyph-name="Ntilde" unicode="&#xd1;" horiz-adv-x="756" 
d="M-24 0l17 86h42c15 0 24 7 27 22l117 598h87l228 -451c19 -38 41 -96 41 -96h2s5 56 13 96l76 390c8 46 30 61 72 61h105l-17 -86h-45c-13 0 -22 -6 -25 -22l-116 -598h-87l-230 451c-18 38 -39 95 -39 95h-2s-6 -55 -14 -95l-75 -391c-9 -42 -31 -60 -73 -60h-104z
M305 756c16 93 63 127 121 127c75 0 75 -68 121 -68c31 0 47 36 53 65h66c-17 -92 -64 -127 -121 -127c-76 0 -76 68 -122 68c-30 0 -47 -35 -53 -65h-65z" />
    <glyph glyph-name="Ograve" unicode="&#xd2;" horiz-adv-x="795" 
d="M40 296c0 228 206 422 431 422c182 0 307 -125 307 -301c0 -232 -208 -429 -431 -429c-182 0 -307 129 -307 308zM144 300c0 -128 87 -218 212 -218c158 0 318 150 318 329c0 127 -87 214 -211 214c-161 0 -319 -146 -319 -325zM447 755l-73 127h94l51 -127h-72z" />
    <glyph glyph-name="Oacute" unicode="&#xd3;" horiz-adv-x="795" 
d="M444 755l97 127h101l-119 -127h-79zM40 296c0 228 206 422 431 422c182 0 307 -125 307 -301c0 -232 -208 -429 -431 -429c-182 0 -307 129 -307 308zM144 300c0 -128 87 -218 212 -218c158 0 318 150 318 329c0 127 -87 214 -211 214c-161 0 -319 -146 -319 -325z" />
    <glyph glyph-name="Ocircumflex" unicode="&#xd4;" horiz-adv-x="795" 
d="M348 755l112 127h89l64 -127h-77l-36 80h-2l-68 -80h-82zM40 296c0 228 206 422 431 422c182 0 307 -125 307 -301c0 -232 -208 -429 -431 -429c-182 0 -307 129 -307 308zM144 300c0 -128 87 -218 212 -218c158 0 318 150 318 329c0 127 -87 214 -211 214
c-161 0 -319 -146 -319 -325z" />
    <glyph glyph-name="Otilde" unicode="&#xd5;" horiz-adv-x="795" 
d="M40 296c0 228 206 422 431 422c182 0 307 -125 307 -301c0 -232 -208 -429 -431 -429c-182 0 -307 129 -307 308zM144 300c0 -128 87 -218 212 -218c158 0 318 150 318 329c0 127 -87 214 -211 214c-161 0 -319 -146 -319 -325zM312 756c16 93 63 127 121 127
c75 0 75 -68 121 -68c31 0 47 36 53 65h66c-17 -92 -64 -127 -121 -127c-76 0 -76 68 -122 68c-30 0 -47 -35 -53 -65h-65z" />
    <glyph glyph-name="Odieresis" unicode="&#xd6;" horiz-adv-x="795" 
d="M526 781l20 101h74l-20 -101h-74zM362 781l20 101h73l-20 -101h-73zM40 296c0 228 206 422 431 422c182 0 307 -125 307 -301c0 -232 -208 -429 -431 -429c-182 0 -307 129 -307 308zM144 300c0 -128 87 -218 212 -218c158 0 318 150 318 329c0 127 -87 214 -211 214
c-161 0 -319 -146 -319 -325z" />
    <glyph glyph-name="multiply" unicode="&#xd7;" 
d="M29 55l207 230l-207 230l55 55l204 -228l205 228l55 -55l-208 -230l208 -230l-55 -55l-205 228l-204 -228z" />
    <glyph glyph-name="Oslash" unicode="&#xd8;" horiz-adv-x="795" 
d="M58 9l63 69c-52 55 -81 130 -81 218c0 228 206 422 431 422c71 0 134 -20 184 -54l62 68l43 -36l-62 -68c51 -53 80 -127 80 -211c0 -232 -208 -429 -431 -429c-71 0 -133 20 -183 54l-63 -69zM192 157l394 432c-34 22 -76 36 -123 36c-161 0 -319 -146 -319 -325
c0 -57 18 -107 48 -143zM233 118c33 -23 75 -36 123 -36c158 0 318 150 318 329c0 55 -17 103 -47 138z" />
    <glyph glyph-name="Ugrave" unicode="&#xd9;" horiz-adv-x="716" 
d="M74 197c0 18 2 37 6 57l64 325c2 11 4 20 4 26c0 10 -7 15 -20 15h-41l17 86h95c44 0 59 -18 59 -45c0 -10 -2 -23 -5 -36l-73 -375c-4 -15 -5 -31 -5 -42c0 -80 53 -126 140 -126c103 0 183 64 204 170l77 393c8 46 30 61 72 61h104l-16 -86h-45c-13 0 -22 -6 -25 -22
l-70 -360c-29 -149 -144 -250 -306 -250c-147 0 -236 83 -236 209zM412 755l-73 127h94l51 -127h-72z" />
    <glyph glyph-name="Uacute" unicode="&#xda;" horiz-adv-x="716" 
d="M408 755l97 127h101l-119 -127h-79zM74 197c0 18 2 37 6 57l64 325c2 11 4 20 4 26c0 10 -7 15 -20 15h-41l17 86h95c44 0 59 -18 59 -45c0 -10 -2 -23 -5 -36l-73 -375c-4 -15 -5 -31 -5 -42c0 -80 53 -126 140 -126c103 0 183 64 204 170l77 393c8 46 30 61 72 61h104
l-16 -86h-45c-13 0 -22 -6 -25 -22l-70 -360c-29 -149 -144 -250 -306 -250c-147 0 -236 83 -236 209z" />
    <glyph glyph-name="Ucircumflex" unicode="&#xdb;" horiz-adv-x="716" 
d="M312 755l112 127h89l64 -127h-77l-36 80h-2l-68 -80h-82zM74 197c0 18 2 37 6 57l64 325c2 11 4 20 4 26c0 10 -7 15 -20 15h-41l17 86h95c44 0 59 -18 59 -45c0 -10 -2 -23 -5 -36l-73 -375c-4 -15 -5 -31 -5 -42c0 -80 53 -126 140 -126c103 0 183 64 204 170l77 393
c8 46 30 61 72 61h104l-16 -86h-45c-13 0 -22 -6 -25 -22l-70 -360c-29 -149 -144 -250 -306 -250c-147 0 -236 83 -236 209z" />
    <glyph glyph-name="Udieresis" unicode="&#xdc;" horiz-adv-x="716" 
d="M491 781l20 101h74l-20 -101h-74zM327 781l20 101h73l-20 -101h-73zM74 197c0 18 2 37 6 57l64 325c2 11 4 20 4 26c0 10 -7 15 -20 15h-41l17 86h95c44 0 59 -18 59 -45c0 -10 -2 -23 -5 -36l-73 -375c-4 -15 -5 -31 -5 -42c0 -80 53 -126 140 -126
c103 0 183 64 204 170l77 393c8 46 30 61 72 61h104l-16 -86h-45c-13 0 -22 -6 -25 -22l-70 -360c-29 -149 -144 -250 -306 -250c-147 0 -236 83 -236 209z" />
    <glyph glyph-name="Yacute" unicode="&#xdd;" horiz-adv-x="606" 
d="M194 0l60 308l-123 287c-7 18 -19 25 -35 25h-24l17 86h45c42 0 60 -10 78 -54l76 -177c15 -36 28 -80 28 -80h2s28 44 56 80l140 177c34 44 57 54 98 54h61l-17 -86h-23c-19 0 -31 -6 -44 -23l-235 -289l-60 -308h-100zM349 755l97 127h101l-119 -127h-79z" />
    <glyph glyph-name="Thorn" unicode="&#xde;" horiz-adv-x="586" 
d="M41 0l116 598c2 11 -1 22 -17 22h-43l17 86h101c36 0 54 -12 54 -42c0 -7 -1 -14 -3 -22l-11 -56h136c118 0 194 -71 194 -181c0 -156 -127 -264 -266 -264h-150l-28 -141h-100zM185 227h130c91 0 165 68 165 172c0 64 -41 101 -111 101h-131z" />
    <glyph glyph-name="germandbls" unicode="&#xdf;" horiz-adv-x="589" 
d="M-33 0l16 83h37c14 0 23 7 26 21l84 434c23 118 133 180 235 180c108 0 177 -60 177 -142c0 -118 -139 -146 -139 -212c0 -62 138 -99 138 -204c0 -94 -91 -167 -190 -167c-95 0 -149 29 -149 29l17 84s50 -29 124 -29c43 0 99 24 99 82c0 77 -140 112 -140 199
c0 100 142 133 142 211c0 33 -27 65 -82 65c-59 0 -122 -36 -137 -111l-89 -460c-10 -43 -30 -63 -76 -63h-93z" />
    <glyph glyph-name="agrave" unicode="&#xe0;" horiz-adv-x="533" 
d="M-3 121c0 147 176 194 339 194h25l2 12c3 14 4 25 4 39c0 50 -30 75 -90 75c-33 0 -90 -7 -95 -39l-5 -29h-92l10 51c14 72 115 94 194 94c122 0 175 -56 175 -143c0 -19 -3 -38 -7 -59l-37 -197c-2 -7 -4 -16 -4 -21c0 -9 6 -15 18 -15h42l-17 -83h-85
c-39 0 -55 17 -55 41c0 11 5 39 10 55h-2c1 0 -60 -108 -183 -108c-79 0 -147 43 -147 133zM95 135c0 -45 31 -72 77 -72c88 0 159 97 172 164l4 18h-25c-85 0 -228 -15 -228 -110zM276 580l-73 127h94l51 -127h-72z" />
    <glyph glyph-name="aacute" unicode="&#xe1;" horiz-adv-x="533" 
d="M-3 121c0 147 176 194 339 194h25l2 12c3 14 4 25 4 39c0 50 -30 75 -90 75c-33 0 -90 -7 -95 -39l-5 -29h-92l10 51c14 72 115 94 194 94c122 0 175 -56 175 -143c0 -19 -3 -38 -7 -59l-37 -197c-2 -7 -4 -16 -4 -21c0 -9 6 -15 18 -15h42l-17 -83h-85
c-39 0 -55 17 -55 41c0 11 5 39 10 55h-2c1 0 -60 -108 -183 -108c-79 0 -147 43 -147 133zM95 135c0 -45 31 -72 77 -72c88 0 159 97 172 164l4 18h-25c-85 0 -228 -15 -228 -110zM273 580l97 127h101l-119 -127h-79z" />
    <glyph glyph-name="acircumflex" unicode="&#xe2;" horiz-adv-x="533" 
d="M-3 121c0 147 176 194 339 194h25l2 12c3 14 4 25 4 39c0 50 -30 75 -90 75c-33 0 -90 -7 -95 -39l-5 -29h-92l10 51c14 72 115 94 194 94c122 0 175 -56 175 -143c0 -19 -3 -38 -7 -59l-37 -197c-2 -7 -4 -16 -4 -21c0 -9 6 -15 18 -15h42l-17 -83h-85
c-39 0 -55 17 -55 41c0 11 5 39 10 55h-2c1 0 -60 -108 -183 -108c-79 0 -147 43 -147 133zM95 135c0 -45 31 -72 77 -72c88 0 159 97 172 164l4 18h-25c-85 0 -228 -15 -228 -110zM177 580l112 127h89l64 -127h-77l-36 80h-2l-68 -80h-82z" />
    <glyph glyph-name="atilde" unicode="&#xe3;" horiz-adv-x="533" 
d="M-3 121c0 147 176 194 339 194h25l2 12c3 14 4 25 4 39c0 50 -30 75 -90 75c-33 0 -90 -7 -95 -39l-5 -29h-92l10 51c14 72 115 94 194 94c122 0 175 -56 175 -143c0 -19 -3 -38 -7 -59l-37 -197c-2 -7 -4 -16 -4 -21c0 -9 6 -15 18 -15h42l-17 -83h-85
c-39 0 -55 17 -55 41c0 11 5 39 10 55h-2c1 0 -60 -108 -183 -108c-79 0 -147 43 -147 133zM95 135c0 -45 31 -72 77 -72c88 0 159 97 172 164l4 18h-25c-85 0 -228 -15 -228 -110zM141 581c16 93 63 127 121 127c75 0 75 -68 121 -68c31 0 47 36 53 65h66
c-17 -92 -64 -127 -121 -127c-76 0 -76 68 -122 68c-30 0 -47 -35 -53 -65h-65z" />
    <glyph glyph-name="adieresis" unicode="&#xe4;" horiz-adv-x="533" 
d="M-3 121c0 147 176 194 339 194h25l2 12c3 14 4 25 4 39c0 50 -30 75 -90 75c-33 0 -90 -7 -95 -39l-5 -29h-92l10 51c14 72 115 94 194 94c122 0 175 -56 175 -143c0 -19 -3 -38 -7 -59l-37 -197c-2 -7 -4 -16 -4 -21c0 -9 6 -15 18 -15h42l-17 -83h-85
c-39 0 -55 17 -55 41c0 11 5 39 10 55h-2c1 0 -60 -108 -183 -108c-79 0 -147 43 -147 133zM95 135c0 -45 31 -72 77 -72c88 0 159 97 172 164l4 18h-25c-85 0 -228 -15 -228 -110zM355 606l20 101h74l-20 -101h-74zM191 606l20 101h73l-20 -101h-73z" />
    <glyph glyph-name="aring" unicode="&#xe5;" horiz-adv-x="533" 
d="M-3 121c0 147 176 194 339 194h25l2 12c3 14 4 25 4 39c0 50 -30 75 -90 75c-33 0 -90 -7 -95 -39l-5 -29h-92l10 51c14 72 115 94 194 94c122 0 175 -56 175 -143c0 -19 -3 -38 -7 -59l-37 -197c-2 -7 -4 -16 -4 -21c0 -9 6 -15 18 -15h42l-17 -83h-85
c-39 0 -55 17 -55 41c0 11 5 39 10 55h-2c1 0 -60 -108 -183 -108c-79 0 -147 43 -147 133zM95 135c0 -45 31 -72 77 -72c88 0 159 97 172 164l4 18h-25c-85 0 -228 -15 -228 -110zM314 567c-40 0 -74 25 -74 65c0 53 49 86 94 86c40 0 75 -24 75 -66c0 -51 -49 -85 -95 -85
zM317 608c24 0 42 18 42 43c0 16 -10 27 -28 27c-21 0 -41 -18 -41 -44c0 -16 10 -26 27 -26z" />
    <glyph glyph-name="ae" unicode="&#xe6;" horiz-adv-x="849" 
d="M-3 121c0 162 195 191 316 191h45c5 25 6 38 6 48c0 52 -29 81 -88 81c-31 0 -90 -6 -95 -39l-6 -29h-92l10 51c15 77 125 94 195 94c82 0 129 -35 147 -85h2c50 56 117 85 188 85c130 0 194 -76 194 -188c0 -40 -16 -88 -16 -88h-364s-3 -15 -3 -33
c0 -83 50 -139 140 -139c87 0 160 58 160 58l28 -73s-85 -67 -193 -67c-106 0 -180 49 -208 124h-2c-11 -23 -75 -124 -207 -124c-84 0 -157 48 -157 133zM456 312h264s2 15 2 29c0 68 -43 100 -98 100c-75 0 -137 -46 -168 -129zM96 132c0 -36 26 -66 81 -66
c82 0 149 87 165 161l3 15h-47c-70 0 -202 -11 -202 -110z" />
    <glyph glyph-name="ccedilla" unicode="&#xe7;" horiz-adv-x="526" 
d="M156 -88l37 83c-109 22 -171 106 -171 217c0 167 139 306 306 306c71 0 198 -27 180 -119l-8 -44h-86l4 21c7 41 -52 59 -97 59c-105 0 -200 -97 -200 -214c0 -84 48 -147 147 -147c102 0 163 61 163 61l28 -77s-68 -70 -201 -70c-3 0 -11 0 -15 1l-14 -39
c27 -5 59 -26 59 -64c0 -69 -66 -93 -116 -93c-35 0 -58 6 -58 6l11 59s19 -7 41 -7c26 0 54 8 54 37c0 17 -18 26 -46 26c-9 0 -18 -2 -18 -2z" />
    <glyph glyph-name="egrave" unicode="&#xe8;" horiz-adv-x="540" 
d="M22 203c0 169 125 315 295 315c130 0 192 -78 192 -187c0 -43 -15 -90 -15 -90h-369s-4 -17 -4 -36c0 -76 51 -133 144 -133c87 0 161 58 161 58l28 -75s-85 -67 -195 -67c-148 0 -237 90 -237 215zM140 310h269s3 15 3 29c0 67 -41 102 -98 102
c-74 0 -144 -48 -174 -131zM302 580l-73 127h94l51 -127h-72z" />
    <glyph glyph-name="eacute" unicode="&#xe9;" horiz-adv-x="540" 
d="M298 580l97 127h101l-119 -127h-79zM22 203c0 169 125 315 295 315c130 0 192 -78 192 -187c0 -43 -15 -90 -15 -90h-369s-4 -17 -4 -36c0 -76 51 -133 144 -133c87 0 161 58 161 58l28 -75s-85 -67 -195 -67c-148 0 -237 90 -237 215zM140 310h269s3 15 3 29
c0 67 -41 102 -98 102c-74 0 -144 -48 -174 -131z" />
    <glyph glyph-name="ecircumflex" unicode="&#xea;" horiz-adv-x="540" 
d="M202 580l112 127h89l64 -127h-77l-36 80h-2l-68 -80h-82zM22 203c0 169 125 315 295 315c130 0 192 -78 192 -187c0 -43 -15 -90 -15 -90h-369s-4 -17 -4 -36c0 -76 51 -133 144 -133c87 0 161 58 161 58l28 -75s-85 -67 -195 -67c-148 0 -237 90 -237 215zM140 310h269
s3 15 3 29c0 67 -41 102 -98 102c-74 0 -144 -48 -174 -131z" />
    <glyph glyph-name="edieresis" unicode="&#xeb;" horiz-adv-x="540" 
d="M381 606l20 101h74l-20 -101h-74zM217 606l20 101h73l-20 -101h-73zM22 203c0 169 125 315 295 315c130 0 192 -78 192 -187c0 -43 -15 -90 -15 -90h-369s-4 -17 -4 -36c0 -76 51 -133 144 -133c87 0 161 58 161 58l28 -75s-85 -67 -195 -67c-148 0 -237 90 -237 215z
M140 310h269s3 15 3 29c0 67 -41 102 -98 102c-74 0 -144 -48 -174 -131z" />
    <glyph glyph-name="igrave" unicode="&#xec;" horiz-adv-x="265" 
d="M38 46c0 7 0 14 3 25l61 315c2 10 3 15 3 22c0 10 -6 15 -18 15h-41l16 83h93c38 0 56 -13 56 -44c0 -9 -2 -20 -4 -31l-61 -317c-1 -5 -3 -13 -3 -16c0 -10 6 -15 19 -15h40l-15 -83h-93c-38 0 -56 16 -56 46zM143 580l-73 127h94l51 -127h-72z" />
    <glyph glyph-name="iacute" unicode="&#xed;" horiz-adv-x="265" 
d="M138 580l97 127h101l-119 -127h-79zM38 46c0 7 0 14 3 25l61 315c2 10 3 15 3 22c0 10 -6 15 -18 15h-41l16 83h93c38 0 56 -13 56 -44c0 -9 -2 -20 -4 -31l-61 -317c-1 -5 -3 -13 -3 -16c0 -10 6 -15 19 -15h40l-15 -83h-93c-38 0 -56 16 -56 46z" />
    <glyph glyph-name="icircumflex" unicode="&#xee;" horiz-adv-x="265" 
d="M44 580l112 127h89l64 -127h-77l-36 80h-2l-68 -80h-82zM38 46c0 7 0 14 3 25l61 315c2 10 3 15 3 22c0 10 -6 15 -18 15h-41l16 83h93c38 0 56 -13 56 -44c0 -9 -2 -20 -4 -31l-61 -317c-1 -5 -3 -13 -3 -16c0 -10 6 -15 19 -15h40l-15 -83h-93c-38 0 -56 16 -56 46z
" />
    <glyph glyph-name="idieresis" unicode="&#xef;" horiz-adv-x="265" 
d="M222 606l20 101h74l-20 -101h-74zM58 606l20 101h73l-20 -101h-73zM38 46c0 7 0 14 3 25l61 315c2 10 3 15 3 22c0 10 -6 15 -18 15h-41l16 83h93c38 0 56 -13 56 -44c0 -9 -2 -20 -4 -31l-61 -317c-1 -5 -3 -13 -3 -16c0 -10 6 -15 19 -15h40l-15 -83h-93
c-38 0 -56 16 -56 46z" />
    <glyph glyph-name="eth" unicode="&#xf0;" horiz-adv-x="561" 
d="M18 191c0 132 106 275 282 275c84 0 124 -46 124 -46h2c-12 58 -45 107 -89 142l-194 -78l1 54l142 58c-37 21 -83 40 -125 51l40 72c67 -18 135 -47 186 -84l155 62v-54l-112 -45c61 -60 100 -144 100 -247c0 -139 -85 -363 -300 -363c-141 0 -212 94 -212 203zM117 193
c0 -65 36 -122 114 -122c116 0 191 124 191 214c0 61 -43 103 -119 103c-107 0 -186 -91 -186 -195z" />
    <glyph glyph-name="ntilde" unicode="&#xf1;" horiz-adv-x="624" 
d="M28 0l75 387c2 6 3 15 3 20c0 10 -6 16 -19 16h-40l16 83h92c37 0 54 -17 54 -45c0 -17 -7 -43 -12 -63h2c28 44 101 120 210 120c95 0 145 -50 145 -137c0 -18 -3 -40 -7 -62l-39 -205c-1 -5 -3 -13 -3 -16c0 -10 6 -15 19 -15h40l-15 -83h-94c-38 0 -56 16 -56 46
c0 7 1 15 3 23l45 233c3 17 6 34 6 50c0 43 -18 77 -78 77c-102 0 -186 -101 -204 -193l-47 -236h-96zM206 581c16 93 63 127 121 127c75 0 75 -68 121 -68c31 0 47 36 53 65h66c-17 -92 -64 -127 -121 -127c-76 0 -76 68 -122 68c-30 0 -47 -35 -53 -65h-65z" />
    <glyph glyph-name="ograve" unicode="&#xf2;" horiz-adv-x="613" 
d="M21 211c0 174 154 307 320 307c138 0 234 -90 234 -221c0 -176 -156 -309 -320 -309c-137 0 -234 90 -234 223zM120 215c0 -85 59 -143 144 -143c104 0 212 94 212 220c0 84 -58 142 -142 142c-107 0 -214 -95 -214 -219zM327 580l-73 127h94l51 -127h-72z" />
    <glyph glyph-name="oacute" unicode="&#xf3;" horiz-adv-x="613" 
d="M323 580l97 127h101l-119 -127h-79zM21 211c0 174 154 307 320 307c138 0 234 -90 234 -221c0 -176 -156 -309 -320 -309c-137 0 -234 90 -234 223zM120 215c0 -85 59 -143 144 -143c104 0 212 94 212 220c0 84 -58 142 -142 142c-107 0 -214 -95 -214 -219z" />
    <glyph glyph-name="ocircumflex" unicode="&#xf4;" horiz-adv-x="613" 
d="M227 580l112 127h89l64 -127h-77l-36 80h-2l-68 -80h-82zM21 211c0 174 154 307 320 307c138 0 234 -90 234 -221c0 -176 -156 -309 -320 -309c-137 0 -234 90 -234 223zM120 215c0 -85 59 -143 144 -143c104 0 212 94 212 220c0 84 -58 142 -142 142
c-107 0 -214 -95 -214 -219z" />
    <glyph glyph-name="otilde" unicode="&#xf5;" horiz-adv-x="613" 
d="M21 211c0 174 154 307 320 307c138 0 234 -90 234 -221c0 -176 -156 -309 -320 -309c-137 0 -234 90 -234 223zM120 215c0 -85 59 -143 144 -143c104 0 212 94 212 220c0 84 -58 142 -142 142c-107 0 -214 -95 -214 -219zM191 581c16 93 63 127 121 127
c75 0 75 -68 121 -68c31 0 47 36 53 65h66c-17 -92 -64 -127 -121 -127c-76 0 -76 68 -122 68c-30 0 -47 -35 -53 -65h-65z" />
    <glyph glyph-name="odieresis" unicode="&#xf6;" horiz-adv-x="613" 
d="M406 606l20 101h74l-20 -101h-74zM242 606l20 101h73l-20 -101h-73zM21 211c0 174 154 307 320 307c138 0 234 -90 234 -221c0 -176 -156 -309 -320 -309c-137 0 -234 90 -234 223zM120 215c0 -85 59 -143 144 -143c104 0 212 94 212 220c0 84 -58 142 -142 142
c-107 0 -214 -95 -214 -219z" />
    <glyph glyph-name="divide" unicode="&#xf7;" 
d="M238 435v91h95v-91h-95zM33 246v78h505v-78h-505zM238 44v91h95v-91h-95z" />
    <glyph glyph-name="oslash" unicode="&#xf8;" horiz-adv-x="610" 
d="M31 -1l52 55c-39 40 -63 94 -63 157c0 174 154 307 313 307c54 0 104 -14 142 -38l54 59l40 -35l-55 -58c35 -38 58 -90 58 -149c0 -176 -155 -309 -311 -309c-52 0 -100 13 -136 34l-55 -58zM150 126l262 285c-22 14 -50 23 -81 23c-106 0 -212 -95 -212 -219
c0 -35 12 -66 31 -89zM188 91c20 -11 47 -19 74 -19c104 0 212 94 212 220c0 30 -12 59 -28 80z" />
    <glyph glyph-name="ugrave" unicode="&#xf9;" horiz-adv-x="616" 
d="M51 125c0 19 2 40 6 63l40 204c1 5 2 13 2 16c0 10 -6 15 -18 15h-41l16 83h93c39 0 57 -16 57 -46c0 -6 -1 -14 -3 -23l-46 -234c-3 -16 -5 -33 -5 -48c0 -43 17 -77 76 -77c100 0 183 100 201 192l46 236h97l-75 -387c-2 -7 -3 -15 -3 -20c0 -10 6 -16 19 -16h39
l-16 -83h-91c-37 0 -54 17 -54 45c0 18 7 43 12 64h-2c-28 -45 -100 -121 -208 -121c-94 0 -142 50 -142 137zM318 580l-73 127h94l51 -127h-72z" />
    <glyph glyph-name="uacute" unicode="&#xfa;" horiz-adv-x="616" 
d="M315 580l97 127h101l-119 -127h-79zM51 125c0 19 2 40 6 63l40 204c1 5 2 13 2 16c0 10 -6 15 -18 15h-41l16 83h93c39 0 57 -16 57 -46c0 -6 -1 -14 -3 -23l-46 -234c-3 -16 -5 -33 -5 -48c0 -43 17 -77 76 -77c100 0 183 100 201 192l46 236h97l-75 -387
c-2 -7 -3 -15 -3 -20c0 -10 6 -16 19 -16h39l-16 -83h-91c-37 0 -54 17 -54 45c0 18 7 43 12 64h-2c-28 -45 -100 -121 -208 -121c-94 0 -142 50 -142 137z" />
    <glyph glyph-name="ucircumflex" unicode="&#xfb;" horiz-adv-x="616" 
d="M219 580l112 127h89l64 -127h-77l-36 80h-2l-68 -80h-82zM51 125c0 19 2 40 6 63l40 204c1 5 2 13 2 16c0 10 -6 15 -18 15h-41l16 83h93c39 0 57 -16 57 -46c0 -6 -1 -14 -3 -23l-46 -234c-3 -16 -5 -33 -5 -48c0 -43 17 -77 76 -77c100 0 183 100 201 192l46 236h97
l-75 -387c-2 -7 -3 -15 -3 -20c0 -10 6 -16 19 -16h39l-16 -83h-91c-37 0 -54 17 -54 45c0 18 7 43 12 64h-2c-28 -45 -100 -121 -208 -121c-94 0 -142 50 -142 137z" />
    <glyph glyph-name="udieresis" unicode="&#xfc;" horiz-adv-x="616" 
d="M397 606l20 101h74l-20 -101h-74zM233 606l20 101h73l-20 -101h-73zM51 125c0 19 2 40 6 63l40 204c1 5 2 13 2 16c0 10 -6 15 -18 15h-41l16 83h93c39 0 57 -16 57 -46c0 -6 -1 -14 -3 -23l-46 -234c-3 -16 -5 -33 -5 -48c0 -43 17 -77 76 -77c100 0 183 100 201 192
l46 236h97l-75 -387c-2 -7 -3 -15 -3 -20c0 -10 6 -16 19 -16h39l-16 -83h-91c-37 0 -54 17 -54 45c0 18 7 43 12 64h-2c-28 -45 -100 -121 -208 -121c-94 0 -142 50 -142 137z" />
    <glyph glyph-name="yacute" unicode="&#xfd;" horiz-adv-x="544" 
d="M31 -210c-69 0 -112 50 -112 50l41 69c2 -2 29 -36 74 -36c40 0 73 29 100 74l36 57l-95 399c-4 16 -10 20 -27 20h-12l16 83h65c32 0 43 -17 50 -51l59 -285c5 -26 6 -61 6 -61h2s15 35 29 61l161 285c23 40 43 51 84 51h62l-17 -83h-12c-16 0 -27 -4 -36 -20l-297 -497
c-47 -78 -109 -116 -177 -116zM280 580l97 127h101l-119 -127h-79z" />
    <glyph glyph-name="thorn" unicode="&#xfe;" horiz-adv-x="585" 
d="M-29 -200l154 786c2 10 3 15 3 22c0 10 -6 15 -18 15h-41l16 83h92c39 0 57 -13 57 -44c0 -8 -2 -19 -4 -30l-27 -137c-4 -20 -11 -49 -15 -63h2c34 45 91 86 169 86c119 0 189 -79 189 -212c0 -185 -136 -318 -277 -318c-65 0 -124 30 -150 88h-2s-2 -21 -7 -47
l-44 -229h-97zM149 204c0 -73 36 -132 111 -132c89 0 189 87 189 227c0 87 -43 134 -114 134c-104 0 -186 -114 -186 -229z" />
    <glyph glyph-name="ydieresis" unicode="&#xff;" horiz-adv-x="544" 
d="M31 -210c-69 0 -112 50 -112 50l41 69c2 -2 29 -36 74 -36c40 0 73 29 100 74l36 57l-95 399c-4 16 -10 20 -27 20h-12l16 83h65c32 0 43 -17 50 -51l59 -285c5 -26 6 -61 6 -61h2s15 35 29 61l161 285c23 40 43 51 84 51h62l-17 -83h-12c-16 0 -27 -4 -36 -20l-297 -497
c-47 -78 -109 -116 -177 -116zM362 606l20 101h74l-20 -101h-74zM198 606l20 101h73l-20 -101h-73z" />
    <glyph glyph-name="Amacron" unicode="&#x100;" horiz-adv-x="666" 
d="M-43 0l17 86h18c16 0 24 4 33 22l338 598h105l105 -600c3 -16 8 -20 24 -20h18l-17 -86h-60c-43 0 -56 12 -63 58l-25 145h-259l-82 -145c-25 -46 -41 -58 -84 -58h-68zM231 287h211l-36 216c-5 35 -8 98 -8 98h-2s-27 -63 -47 -98zM307 784l13 69h254l-13 -69h-254z" />
    <glyph glyph-name="amacron" unicode="&#x101;" horiz-adv-x="533" 
d="M-3 121c0 147 176 194 339 194h25l2 12c3 14 4 25 4 39c0 50 -30 75 -90 75c-33 0 -90 -7 -95 -39l-5 -29h-92l10 51c14 72 115 94 194 94c122 0 175 -56 175 -143c0 -19 -3 -38 -7 -59l-37 -197c-2 -7 -4 -16 -4 -21c0 -9 6 -15 18 -15h42l-17 -83h-85
c-39 0 -55 17 -55 41c0 11 5 39 10 55h-2c1 0 -60 -108 -183 -108c-79 0 -147 43 -147 133zM95 135c0 -45 31 -72 77 -72c88 0 159 97 172 164l4 18h-25c-85 0 -228 -15 -228 -110zM192 609l13 69h254l-13 -69h-254z" />
    <glyph glyph-name="Abreve" unicode="&#x102;" horiz-adv-x="666" 
d="M-43 0l17 86h18c16 0 24 4 33 22l338 598h105l105 -600c3 -16 8 -20 24 -20h18l-17 -86h-60c-43 0 -56 12 -63 58l-25 145h-259l-82 -145c-25 -46 -41 -58 -84 -58h-68zM231 287h211l-36 216c-5 35 -8 98 -8 98h-2s-27 -63 -47 -98zM433 751c-70 0 -127 50 -113 119l3 12
h66l-2 -13c-7 -36 11 -60 49 -60c28 0 62 13 73 61l3 12h67l-4 -19c-14 -73 -76 -112 -142 -112z" />
    <glyph glyph-name="abreve" unicode="&#x103;" horiz-adv-x="533" 
d="M-3 121c0 147 176 194 339 194h25l2 12c3 14 4 25 4 39c0 50 -30 75 -90 75c-33 0 -90 -7 -95 -39l-5 -29h-92l10 51c14 72 115 94 194 94c122 0 175 -56 175 -143c0 -19 -3 -38 -7 -59l-37 -197c-2 -7 -4 -16 -4 -21c0 -9 6 -15 18 -15h42l-17 -83h-85
c-39 0 -55 17 -55 41c0 11 5 39 10 55h-2c1 0 -60 -108 -183 -108c-79 0 -147 43 -147 133zM95 135c0 -45 31 -72 77 -72c88 0 159 97 172 164l4 18h-25c-85 0 -228 -15 -228 -110zM318 576c-70 0 -127 50 -113 119l3 12h66l-2 -13c-7 -36 11 -60 49 -60c28 0 62 13 73 61
l3 12h67l-4 -19c-14 -73 -76 -112 -142 -112z" />
    <glyph glyph-name="Aogonek" unicode="&#x104;" horiz-adv-x="666" 
d="M425 -121c0 53 42 93 88 123c-23 5 -32 21 -38 56l-25 145h-259l-82 -145c-25 -46 -41 -58 -84 -58h-68l17 86h18c16 0 24 4 33 22l338 598h105l105 -600c3 -16 8 -20 24 -20h18l-17 -86c-16 0 -93 -56 -93 -99c0 -32 38 -39 55 -40l-31 -68c-35 4 -104 24 -104 86z
M231 287h211l-36 216c-5 35 -8 98 -8 98h-2s-27 -63 -47 -98z" />
    <glyph glyph-name="aogonek" unicode="&#x105;" horiz-adv-x="529" 
d="M284 -121c0 52 41 93 86 121c-39 2 -52 20 -52 41c0 11 5 39 10 55h-2c1 0 -60 -108 -183 -108c-79 0 -147 43 -147 133c0 147 176 194 339 194h25l2 13c3 13 4 25 4 38c0 50 -30 75 -90 75c-33 0 -90 -7 -95 -39l-5 -29h-92l10 51c14 72 115 94 194 94
c122 0 175 -56 175 -143c0 -19 -3 -38 -7 -59l-37 -197c-2 -7 -4 -16 -4 -21c0 -9 6 -15 18 -15h42l-17 -83c-15 0 -93 -56 -93 -99c0 -32 38 -39 55 -40l-32 -68c-34 4 -104 24 -104 86zM94 135c0 -45 31 -72 77 -72c88 0 159 97 172 164l4 18h-25
c-85 0 -228 -15 -228 -110z" />
    <glyph glyph-name="Cacute" unicode="&#x106;" horiz-adv-x="693" 
d="M431 755l97 127h101l-119 -127h-79zM41 295c0 217 181 423 418 423c103 0 244 -41 244 -138c0 -12 -2 -26 -6 -44l-8 -40h-91l8 38c13 69 -94 91 -150 91c-164 0 -312 -143 -312 -325c0 -128 80 -218 214 -218c84 0 170 31 230 85l45 -78c-68 -63 -179 -101 -286 -101
c-180 0 -306 128 -306 307z" />
    <glyph glyph-name="cacute" unicode="&#x107;" horiz-adv-x="527" 
d="M302 580l97 127h101l-119 -127h-79zM22 212c0 167 139 306 306 306c71 0 198 -27 180 -119l-8 -44h-86l4 21c7 41 -52 59 -97 59c-105 0 -200 -97 -200 -214c0 -84 48 -147 147 -147c102 0 163 61 163 61l28 -77s-68 -70 -201 -70c-151 0 -236 94 -236 224z" />
    <glyph glyph-name="Ccircumflex" unicode="&#x108;" horiz-adv-x="693" 
d="M335 755l112 127h89l64 -127h-77l-36 80h-2l-68 -80h-82zM41 295c0 217 181 423 418 423c103 0 244 -41 244 -138c0 -12 -2 -26 -6 -44l-8 -40h-91l8 38c13 69 -94 91 -150 91c-164 0 -312 -143 -312 -325c0 -128 80 -218 214 -218c84 0 170 31 230 85l45 -78
c-68 -63 -179 -101 -286 -101c-180 0 -306 128 -306 307z" />
    <glyph glyph-name="ccircumflex" unicode="&#x109;" horiz-adv-x="527" 
d="M207 580l112 127h89l64 -127h-77l-36 80h-2l-68 -80h-82zM22 212c0 167 139 306 306 306c71 0 198 -27 180 -119l-8 -44h-86l4 21c7 41 -52 59 -97 59c-105 0 -200 -97 -200 -214c0 -84 48 -147 147 -147c102 0 163 61 163 61l28 -77s-68 -70 -201 -70
c-151 0 -236 94 -236 224z" />
    <glyph glyph-name="Cdotaccent" unicode="&#x10a;" horiz-adv-x="693" 
d="M41 295c0 217 181 423 418 423c103 0 244 -41 244 -138c0 -12 -2 -26 -6 -44l-8 -40h-91l8 38c13 69 -94 91 -150 91c-164 0 -312 -143 -312 -325c0 -128 80 -218 214 -218c84 0 170 31 230 85l45 -78c-68 -63 -179 -101 -286 -101c-180 0 -306 128 -306 307zM431 781
l21 101h87l-20 -101h-88z" />
    <glyph glyph-name="cdotaccent" unicode="&#x10b;" horiz-adv-x="527" 
d="M22 212c0 167 139 306 306 306c71 0 198 -27 180 -119l-8 -44h-86l4 21c7 41 -52 59 -97 59c-105 0 -200 -97 -200 -214c0 -84 48 -147 147 -147c102 0 163 61 163 61l28 -77s-68 -70 -201 -70c-151 0 -236 94 -236 224zM302 606l21 101h87l-20 -101h-88z" />
    <glyph glyph-name="Ccaron" unicode="&#x10c;" horiz-adv-x="693" 
d="M428 755l-63 127h75l38 -81h2l67 81h82l-112 -127h-89zM41 295c0 217 181 423 418 423c103 0 244 -41 244 -138c0 -12 -2 -26 -6 -44l-8 -40h-91l8 38c13 69 -94 91 -150 91c-164 0 -312 -143 -312 -325c0 -128 80 -218 214 -218c84 0 170 31 230 85l45 -78
c-68 -63 -179 -101 -286 -101c-180 0 -306 128 -306 307z" />
    <glyph glyph-name="ccaron" unicode="&#x10d;" horiz-adv-x="527" 
d="M300 580l-63 127h75l38 -81h2l67 81h82l-112 -127h-89zM22 212c0 167 139 306 306 306c71 0 198 -27 180 -119l-8 -44h-86l4 21c7 41 -52 59 -97 59c-105 0 -200 -97 -200 -214c0 -84 48 -147 147 -147c102 0 163 61 163 61l28 -77s-68 -70 -201 -70
c-151 0 -236 94 -236 224z" />
    <glyph glyph-name="Dcaron" unicode="&#x10e;" horiz-adv-x="717" 
d="M372 755l-63 127h75l38 -81h2l67 81h82l-112 -127h-89zM52 45c0 10 2 22 5 37l105 538h-65l17 86h276c190 0 307 -98 307 -285c0 -229 -175 -421 -425 -421h-162c-41 0 -58 17 -58 45zM162 101c0 -10 5 -15 18 -15h92c194 0 321 152 321 329c0 138 -80 205 -217 205h-114
l-97 -496c-2 -9 -3 -18 -3 -23z" />
    <glyph glyph-name="dcaron" unicode="&#x10f;" horiz-adv-x="603" 
d="M655 705h77c2 -7 2 -15 2 -19c0 -37 -15 -77 -46 -122h-68c23 42 38 72 38 110c0 10 -1 20 -3 31zM22 196c0 191 134 322 276 322c66 0 128 -29 150 -89h2s1 18 4 36l23 121c2 9 3 15 3 22c0 10 -6 15 -18 15h-40l16 83h93c38 0 57 -13 57 -44c0 -8 -2 -20 -4 -30
l-100 -512c-2 -8 -3 -17 -3 -22c0 -9 5 -15 18 -15h41l-17 -83h-84c-39 0 -54 17 -54 41c0 11 4 32 9 48h-2c-36 -55 -98 -101 -180 -101c-122 0 -190 81 -190 208zM120 204c0 -83 44 -132 113 -132c110 0 187 120 187 232c0 70 -34 129 -112 129c-89 0 -188 -88 -188 -229z
" />
    <glyph glyph-name="Dcroat" unicode="&#x110;" horiz-adv-x="720" 
d="M55 45c0 10 2 22 5 37l44 230h-49l16 82h49l44 226h-65l17 86h276c191 0 307 -98 307 -285c0 -229 -174 -421 -425 -421h-162c-40 0 -57 17 -57 45zM164 101c0 -10 6 -15 19 -15h91c194 0 321 152 321 329c0 138 -80 205 -217 205h-114l-44 -226h144l-16 -82h-144
l-36 -188c-2 -9 -4 -18 -4 -23z" />
    <glyph glyph-name="dcroat" unicode="&#x111;" horiz-adv-x="603" 
d="M22 197c0 190 134 321 277 321c65 0 127 -29 149 -89h2s1 18 4 36l19 98h-129l12 63h129l16 80h97l-16 -80h77l-12 -63h-77l-86 -443c-2 -8 -3 -17 -3 -22c0 -9 5 -15 18 -15h41l-17 -83h-84c-39 0 -54 17 -54 40c0 12 4 33 9 49h-2c-36 -55 -98 -101 -180 -101
c-122 0 -190 81 -190 209zM120 204c0 -83 44 -132 113 -132c110 0 187 120 187 232c0 70 -34 129 -112 129c-89 0 -188 -88 -188 -229z" />
    <glyph glyph-name="Emacron" unicode="&#x112;" horiz-adv-x="571" 
d="M52 45c0 10 2 22 5 37l105 538h-65l17 86h409c44 0 59 -18 59 -45c0 -10 -2 -23 -5 -36l-14 -72h-91l6 28c2 11 3 18 3 24c0 10 -7 15 -20 15h-199l-43 -221h247l-17 -86h-247l-37 -189c-2 -9 -3 -18 -3 -23c0 -10 5 -15 18 -15h206c14 0 24 8 27 22l9 45h91l-18 -91
c-8 -46 -31 -62 -73 -62h-312c-41 0 -58 17 -58 45zM260 784l13 69h254l-13 -69h-254z" />
    <glyph glyph-name="emacron" unicode="&#x113;" horiz-adv-x="540" 
d="M22 203c0 169 125 315 295 315c130 0 192 -78 192 -187c0 -43 -15 -90 -15 -90h-369s-4 -17 -4 -36c0 -76 51 -133 144 -133c87 0 161 58 161 58l28 -75s-85 -67 -195 -67c-148 0 -237 90 -237 215zM140 310h269s3 15 3 29c0 67 -41 102 -98 102
c-74 0 -144 -48 -174 -131zM218 609l13 69h254l-13 -69h-254z" />
    <glyph glyph-name="Ebreve" unicode="&#x114;" horiz-adv-x="571" 
d="M52 45c0 10 2 22 5 37l105 538h-65l17 86h409c44 0 59 -18 59 -45c0 -10 -2 -23 -5 -36l-14 -72h-91l6 28c2 11 3 18 3 24c0 10 -7 15 -20 15h-199l-43 -221h247l-17 -86h-247l-37 -189c-2 -9 -3 -18 -3 -23c0 -10 5 -15 18 -15h206c14 0 24 8 27 22l9 45h91l-18 -91
c-8 -46 -31 -62 -73 -62h-312c-41 0 -58 17 -58 45zM386 751c-70 0 -127 50 -113 119l3 12h66l-2 -13c-7 -36 11 -60 49 -60c28 0 62 13 73 61l3 12h67l-4 -19c-14 -73 -76 -112 -142 -112z" />
    <glyph glyph-name="ebreve" unicode="&#x115;" horiz-adv-x="540" 
d="M22 203c0 169 125 315 295 315c130 0 192 -78 192 -187c0 -43 -15 -90 -15 -90h-369s-4 -17 -4 -36c0 -76 51 -133 144 -133c87 0 161 58 161 58l28 -75s-85 -67 -195 -67c-148 0 -237 90 -237 215zM140 310h269s3 15 3 29c0 67 -41 102 -98 102
c-74 0 -144 -48 -174 -131zM343 576c-70 0 -127 50 -113 119l3 12h66l-2 -13c-7 -36 11 -60 49 -60c28 0 62 13 73 61l3 12h67l-4 -19c-14 -73 -76 -112 -142 -112z" />
    <glyph glyph-name="Edotaccent" unicode="&#x116;" horiz-adv-x="571" 
d="M52 45c0 10 2 22 5 37l105 538h-65l17 86h409c44 0 59 -18 59 -45c0 -10 -2 -23 -5 -36l-14 -72h-91l6 28c2 11 3 18 3 24c0 10 -7 15 -20 15h-199l-43 -221h247l-17 -86h-247l-37 -189c-2 -9 -3 -18 -3 -23c0 -10 5 -15 18 -15h206c14 0 24 8 27 22l9 45h91l-18 -91
c-8 -46 -31 -62 -73 -62h-312c-41 0 -58 17 -58 45zM340 781l21 101h87l-20 -101h-88z" />
    <glyph glyph-name="edotaccent" unicode="&#x117;" horiz-adv-x="540" 
d="M22 203c0 169 125 315 295 315c130 0 192 -78 192 -187c0 -43 -15 -90 -15 -90h-369s-4 -17 -4 -36c0 -76 51 -133 144 -133c87 0 161 58 161 58l28 -75s-85 -67 -195 -67c-148 0 -237 90 -237 215zM140 310h269s3 15 3 29c0 67 -41 102 -98 102
c-74 0 -144 -48 -174 -131zM298 606l21 101h87l-20 -101h-88z" />
    <glyph glyph-name="Eogonek" unicode="&#x118;" horiz-adv-x="571" 
d="M52 45c0 10 2 22 5 37l105 538h-65l17 86h409c44 0 59 -18 59 -45c0 -10 -2 -23 -5 -36l-14 -72h-91l6 28c2 11 3 18 3 24c0 10 -7 15 -20 15h-199l-43 -221h247l-17 -86h-247l-37 -189c-2 -9 -3 -18 -3 -23c0 -10 5 -15 18 -15h206c14 0 24 8 27 22l9 45h91l-18 -91
c-6 -31 -18 -48 -37 -56c-25 -13 -97 -59 -97 -105c0 -32 39 -39 55 -40l-31 -68c-35 4 -105 24 -105 86c0 51 43 92 89 121h-259c-41 0 -58 17 -58 45z" />
    <glyph glyph-name="eogonek" unicode="&#x119;" horiz-adv-x="539" 
d="M22 203c0 169 124 315 295 315c130 0 191 -78 191 -187c0 -43 -16 -90 -16 -90h-369s-3 -15 -3 -33c0 -77 51 -136 145 -136c86 0 161 58 161 58l28 -75s-26 -21 -65 -38c-24 -14 -110 -69 -110 -116c0 -32 38 -39 54 -40l-31 -68c-34 4 -104 24 -104 86
c0 45 33 82 72 110c-146 -6 -248 79 -248 214zM139 310h270s3 15 3 29c0 67 -41 102 -98 102c-74 0 -144 -48 -175 -131z" />
    <glyph glyph-name="Ecaron" unicode="&#x11a;" horiz-adv-x="571" 
d="M338 755l-63 127h75l38 -81h2l67 81h82l-112 -127h-89zM52 45c0 10 2 22 5 37l105 538h-65l17 86h409c44 0 59 -18 59 -45c0 -10 -2 -23 -5 -36l-14 -72h-91l6 28c2 11 3 18 3 24c0 10 -7 15 -20 15h-199l-43 -221h247l-17 -86h-247l-37 -189c-2 -9 -3 -18 -3 -23
c0 -10 5 -15 18 -15h206c14 0 24 8 27 22l9 45h91l-18 -91c-8 -46 -31 -62 -73 -62h-312c-41 0 -58 17 -58 45z" />
    <glyph glyph-name="ecaron" unicode="&#x11b;" horiz-adv-x="540" 
d="M295 580l-63 127h75l38 -81h2l67 81h82l-112 -127h-89zM22 203c0 169 125 315 295 315c130 0 192 -78 192 -187c0 -43 -15 -90 -15 -90h-369s-4 -17 -4 -36c0 -76 51 -133 144 -133c87 0 161 58 161 58l28 -75s-85 -67 -195 -67c-148 0 -237 90 -237 215zM140 310h269
s3 15 3 29c0 67 -41 102 -98 102c-74 0 -144 -48 -174 -131z" />
    <glyph glyph-name="Gcircumflex" unicode="&#x11c;" horiz-adv-x="728" 
d="M343 755l112 127h89l64 -127h-77l-36 80h-2l-68 -80h-82zM40 288c0 225 187 430 427 430c158 0 236 -87 236 -87l-58 -73s-63 67 -179 67c-174 0 -322 -151 -322 -328c0 -136 86 -216 209 -216c129 0 220 91 220 91l11 58c2 9 4 17 4 22c0 9 -4 15 -19 15h-45l15 82h91
c43 0 59 -18 59 -45c0 -11 -3 -23 -5 -36l-52 -268h-89l10 46c2 10 7 29 7 29h-2c-35 -36 -119 -87 -230 -87c-169 0 -288 120 -288 300z" />
    <glyph glyph-name="gcircumflex" unicode="&#x11d;" horiz-adv-x="594" 
d="M208 580l112 127h89l64 -127h-77l-36 80h-2l-68 -80h-82zM37 -90c0 0 54 -34 133 -34c91 0 169 38 191 156c8 38 15 57 15 57h-2c-37 -52 -89 -83 -156 -83c-124 0 -194 85 -194 205c0 141 96 307 268 307c90 0 145 -42 156 -85h2s-1 7 1 21c6 32 27 52 68 52h95l-16 -83
h-41c-14 0 -24 -7 -27 -21l-74 -386c-33 -164 -162 -226 -282 -226c-93 0 -154 28 -180 43zM124 218c0 -78 41 -128 117 -128c117 0 175 133 175 235c0 83 -52 109 -117 109c-112 0 -175 -109 -175 -216z" />
    <glyph glyph-name="Gbreve" unicode="&#x11e;" horiz-adv-x="728" 
d="M40 288c0 225 187 430 427 430c158 0 236 -87 236 -87l-58 -73s-63 67 -179 67c-174 0 -322 -151 -322 -328c0 -136 86 -216 209 -216c129 0 220 91 220 91l11 58c2 9 4 17 4 22c0 9 -4 15 -19 15h-45l15 82h91c43 0 59 -18 59 -45c0 -11 -3 -23 -5 -36l-52 -268h-89
l10 46c2 10 7 29 7 29h-2c-35 -36 -119 -87 -230 -87c-169 0 -288 120 -288 300zM484 751c-70 0 -127 50 -113 119l3 12h66l-2 -13c-7 -36 11 -60 49 -60c28 0 62 13 73 61l3 12h67l-4 -19c-14 -73 -76 -112 -142 -112z" />
    <glyph glyph-name="gbreve" unicode="&#x11f;" horiz-adv-x="594" 
d="M37 -90c0 0 54 -34 133 -34c91 0 169 38 191 156c8 38 15 57 15 57h-2c-37 -52 -89 -83 -156 -83c-124 0 -194 85 -194 205c0 141 96 307 268 307c90 0 145 -42 156 -85h2s-1 7 1 21c6 32 27 52 68 52h95l-16 -83h-41c-14 0 -24 -7 -27 -21l-74 -386
c-33 -164 -162 -226 -282 -226c-93 0 -154 28 -180 43zM124 218c0 -78 41 -128 117 -128c117 0 175 133 175 235c0 83 -52 109 -117 109c-112 0 -175 -109 -175 -216zM349 576c-70 0 -127 50 -113 119l3 12h66l-2 -13c-7 -36 11 -60 49 -60c28 0 62 13 73 61l3 12h67l-4 -19
c-14 -73 -76 -112 -142 -112z" />
    <glyph glyph-name="Gdotaccent" unicode="&#x120;" horiz-adv-x="728" 
d="M40 288c0 225 187 430 427 430c158 0 236 -87 236 -87l-58 -73s-63 67 -179 67c-174 0 -322 -151 -322 -328c0 -136 86 -216 209 -216c129 0 220 91 220 91l11 58c2 9 4 17 4 22c0 9 -4 15 -19 15h-45l15 82h91c43 0 59 -18 59 -45c0 -11 -3 -23 -5 -36l-52 -268h-89
l10 46c2 10 7 29 7 29h-2c-35 -36 -119 -87 -230 -87c-169 0 -288 120 -288 300zM438 781l21 101h87l-20 -101h-88z" />
    <glyph glyph-name="gdotaccent" unicode="&#x121;" horiz-adv-x="594" 
d="M37 -90c0 0 54 -34 133 -34c91 0 169 38 191 156c8 38 15 57 15 57h-2c-37 -52 -89 -83 -156 -83c-124 0 -194 85 -194 205c0 141 96 307 268 307c90 0 145 -42 156 -85h2s-1 7 1 21c6 32 27 52 68 52h95l-16 -83h-41c-14 0 -24 -7 -27 -21l-74 -386
c-33 -164 -162 -226 -282 -226c-93 0 -154 28 -180 43zM124 218c0 -78 41 -128 117 -128c117 0 175 133 175 235c0 83 -52 109 -117 109c-112 0 -175 -109 -175 -216zM303 606l21 101h87l-20 -101h-88z" />
    <glyph glyph-name="Gcommaaccent" unicode="&#x122;" horiz-adv-x="728" 
d="M302 -59h77c2 -7 2 -15 2 -19c0 -37 -15 -77 -46 -122h-68c23 42 38 72 38 110c0 10 -1 20 -3 31zM40 288c0 225 187 430 427 430c158 0 236 -87 236 -87l-58 -73s-63 67 -179 67c-174 0 -322 -151 -322 -328c0 -136 86 -216 209 -216c129 0 220 91 220 91l11 58
c2 9 4 17 4 22c0 9 -4 15 -19 15h-45l15 82h91c43 0 59 -18 59 -45c0 -11 -3 -23 -5 -36l-52 -268h-89l10 46c2 10 7 29 7 29h-2c-35 -36 -119 -87 -230 -87c-169 0 -288 120 -288 300z" />
    <glyph glyph-name="gcommaaccent" unicode="&#x123;" horiz-adv-x="594" 
d="M377 564h-77c-2 7 -2 15 -2 19c0 37 15 77 46 122h68c-23 -42 -38 -72 -38 -110c0 -10 1 -20 3 -31zM37 -90c0 0 54 -34 133 -34c91 0 169 38 191 156c8 38 15 57 15 57h-2c-37 -52 -89 -83 -156 -83c-124 0 -194 85 -194 205c0 141 96 307 268 307c90 0 145 -42 156 -85
h2s-1 7 1 21c6 32 27 52 68 52h95l-16 -83h-41c-14 0 -24 -7 -27 -21l-74 -386c-33 -164 -162 -226 -282 -226c-93 0 -154 28 -180 43zM124 218c0 -78 41 -128 117 -128c117 0 175 133 175 235c0 83 -52 109 -117 109c-112 0 -175 -109 -175 -216z" />
    <glyph glyph-name="Hcircumflex" unicode="&#x124;" horiz-adv-x="757" 
d="M331 755l112 127h89l64 -127h-77l-36 80h-2l-68 -80h-82zM41 0l113 579c2 11 4 20 4 26c0 10 -7 15 -20 15h-41l17 86h95c44 0 58 -18 58 -45c0 -10 -1 -23 -4 -36l-46 -229h360l49 249c9 46 31 61 73 61h104l-17 -86h-45c-12 0 -21 -6 -24 -22l-117 -598h-100l60 310
h-359l-60 -310h-100z" />
    <glyph glyph-name="hcircumflex" unicode="&#x125;" horiz-adv-x="603" 
d="M69 757l112 127h89l64 -127h-77l-36 80h-2l-68 -80h-82zM9 0l114 585c2 8 4 17 4 23c0 10 -7 15 -19 15h-41l17 83h92c39 0 57 -13 57 -44c0 -8 -2 -19 -4 -30l-36 -185c-5 -24 -10 -44 -10 -44h2c29 43 101 115 207 115c94 0 144 -50 144 -137c0 -18 -3 -40 -7 -62
l-39 -205c-1 -5 -3 -13 -3 -16c0 -10 6 -15 18 -15h41l-16 -83h-93c-38 0 -57 16 -57 46c0 7 1 15 3 23l46 233c3 17 5 34 5 50c0 43 -17 77 -78 77c-102 0 -185 -101 -204 -193l-46 -236h-97z" />
    <glyph glyph-name="Hbar" unicode="&#x126;" horiz-adv-x="760" 
d="M43 0l101 514h-66l13 67h65l25 125h100l-25 -125h360l24 125h100l-24 -125h65l-13 -67h-65l-101 -514h-100l60 310h-359l-60 -310h-100zM220 396h360l23 118h-359z" />
    <glyph glyph-name="hbar" unicode="&#x127;" horiz-adv-x="603" 
d="M9 0l110 563h-76l12 63h76l16 80h97l-16 -80h129l-12 -63h-130l-22 -116c-5 -24 -11 -44 -11 -44h2c30 43 102 115 207 115c95 0 144 -50 144 -137c0 -18 -2 -40 -6 -62l-39 -205c-1 -5 -3 -13 -3 -16c0 -10 6 -15 18 -15h41l-16 -83h-93c-39 0 -56 16 -56 46
c0 7 1 15 2 23l45 233c4 17 6 34 6 50c0 43 -17 77 -78 77c-102 0 -186 -101 -204 -193l-46 -236h-97z" />
    <glyph glyph-name="Itilde" unicode="&#x128;" horiz-adv-x="318" 
d="M-15 0l17 86h68l104 534h-69l17 86h233l-17 -86h-68l-104 -534h68l-17 -86h-232zM77 756c16 93 63 127 121 127c75 0 75 -68 121 -68c31 0 47 36 53 65h66c-17 -92 -64 -127 -121 -127c-76 0 -76 68 -122 68c-30 0 -47 -35 -53 -65h-65z" />
    <glyph glyph-name="itilde" unicode="&#x129;" horiz-adv-x="265" 
d="M38 46c0 7 0 14 3 25l61 315c2 10 3 15 3 22c0 10 -6 15 -18 15h-41l16 83h93c38 0 56 -13 56 -44c0 -9 -2 -20 -4 -31l-61 -317c-1 -5 -3 -13 -3 -16c0 -10 6 -15 19 -15h40l-15 -83h-93c-38 0 -56 16 -56 46zM8 581c16 93 63 127 121 127c75 0 75 -68 121 -68
c31 0 47 36 53 65h66c-17 -92 -64 -127 -121 -127c-76 0 -76 68 -122 68c-30 0 -47 -35 -53 -65h-65z" />
    <glyph glyph-name="Imacron" unicode="&#x12a;" horiz-adv-x="318" 
d="M-15 0l17 86h68l104 534h-69l17 86h233l-17 -86h-68l-104 -534h68l-17 -86h-232zM127 784l13 69h254l-13 -69h-254z" />
    <glyph glyph-name="imacron" unicode="&#x12b;" horiz-adv-x="265" 
d="M38 46c0 7 0 14 3 25l61 315c2 10 3 15 3 22c0 10 -6 15 -18 15h-41l16 83h93c38 0 56 -13 56 -44c0 -9 -2 -20 -4 -31l-61 -317c-1 -5 -3 -13 -3 -16c0 -10 6 -15 19 -15h40l-15 -83h-93c-38 0 -56 16 -56 46zM59 609l13 69h254l-13 -69h-254z" />
    <glyph glyph-name="Ibreve" unicode="&#x12c;" horiz-adv-x="318" 
d="M-15 0l17 86h68l104 534h-69l17 86h233l-17 -86h-68l-104 -534h68l-17 -86h-232zM253 751c-70 0 -127 50 -113 119l3 12h66l-2 -13c-7 -36 11 -60 49 -60c28 0 62 13 73 61l3 12h67l-4 -19c-14 -73 -76 -112 -142 -112z" />
    <glyph glyph-name="ibreve" unicode="&#x12d;" horiz-adv-x="265" 
d="M38 46c0 7 0 14 3 25l61 315c2 10 3 15 3 22c0 10 -6 15 -18 15h-41l16 83h93c38 0 56 -13 56 -44c0 -9 -2 -20 -4 -31l-61 -317c-1 -5 -3 -13 -3 -16c0 -10 6 -15 19 -15h40l-15 -83h-93c-38 0 -56 16 -56 46zM185 576c-70 0 -127 50 -113 119l3 12h66l-2 -13
c-7 -36 11 -60 49 -60c28 0 62 13 73 61l3 12h67l-4 -19c-14 -73 -76 -112 -142 -112z" />
    <glyph glyph-name="Iogonek" unicode="&#x12e;" horiz-adv-x="318" 
d="M-15 0l17 86h68l104 534h-69l17 86h233l-17 -86h-68l-104 -534h68l-17 -86h-2c-19 -2 -92 -57 -92 -99c0 -32 39 -39 55 -40l-31 -68c-35 4 -104 24 -104 86c0 51 39 92 84 121h-142z" />
    <glyph glyph-name="iogonek" unicode="&#x12f;" horiz-adv-x="265" 
d="M13 -121c0 52 39 92 85 121c-52 0 -60 22 -60 46c0 7 0 14 3 25l61 315c2 10 3 15 3 22c0 10 -6 15 -18 15h-41l16 83h93c38 0 56 -13 56 -44c0 -9 -2 -20 -4 -31l-61 -317c-1 -5 -3 -13 -3 -16c0 -10 6 -15 19 -15h40l-15 -83c-17 -1 -94 -56 -94 -99
c0 -32 39 -39 55 -40l-31 -68c-35 4 -104 24 -104 86zM146 605l20 101h88l-20 -101h-88z" />
    <glyph glyph-name="Idotaccent" unicode="&#x130;" horiz-adv-x="318" 
d="M-15 0l17 86h68l104 534h-69l17 86h233l-17 -86h-68l-104 -534h68l-17 -86h-232zM208 781l21 101h87l-20 -101h-88z" />
    <glyph glyph-name="dotlessi" unicode="&#x131;" horiz-adv-x="265" 
d="M38 46c0 7 0 14 3 25l61 315c2 10 3 15 3 22c0 10 -6 15 -18 15h-41l16 83h93c38 0 56 -13 56 -44c0 -9 -2 -20 -4 -31l-61 -317c-1 -5 -3 -13 -3 -16c0 -10 6 -15 19 -15h40l-15 -83h-93c-38 0 -56 16 -56 46z" />
    <glyph glyph-name="IJ" unicode="&#x132;" horiz-adv-x="675" 
d="M305 -4l18 90c59 0 142 23 168 154l69 358c3 15 -4 22 -18 22h-111l16 86h170c45 0 61 -19 52 -64l-78 -403c-42 -211 -167 -243 -286 -243zM-15 0l18 86h67l103 534h-68l16 86h234l-17 -86h-69l-103 -534h68l-17 -86h-232z" />
    <glyph glyph-name="ij" unicode="&#x133;" horiz-adv-x="512" 
d="M146 605l20 101h88l-20 -101h-88zM38 46c0 7 0 14 3 25l61 315c2 10 3 15 3 22c0 10 -6 15 -18 15h-41l16 83h93c38 0 56 -13 56 -44c0 -9 -2 -20 -4 -31l-61 -317c-1 -5 -3 -13 -3 -16c0 -10 6 -15 19 -15h40l-15 -83h-93c-38 0 -56 16 -56 46zM413 605l19 101h87
l-19 -101h-87zM292 -5l76 391c2 10 3 15 3 22c0 10 -6 15 -18 15h-40l16 83h92c39 0 57 -13 57 -44c0 -7 -2 -18 -4 -30l-87 -450c-33 -171 -163 -188 -222 -188c-23 0 -41 2 -41 2l17 83s8 -2 21 -2c44 0 111 16 130 118z" />
    <glyph glyph-name="Jcircumflex" unicode="&#x134;" horiz-adv-x="509" 
d="M234 755l112 127h89l64 -127h-77l-36 80h-2l-68 -80h-82zM-8 152c0 19 2 35 5 55l5 31h100l-5 -27c-2 -15 -4 -27 -4 -41c0 -65 43 -88 90 -88c56 0 117 33 135 125l73 375c2 10 3 18 3 23c0 10 -7 15 -20 15h-171l17 86h225c44 0 59 -18 59 -45c0 -10 -3 -22 -5 -35
l-84 -432c-29 -152 -138 -206 -235 -206c-100 0 -188 55 -188 164z" />
    <glyph glyph-name="jcircumflex" unicode="&#x135;" horiz-adv-x="246" 
d="M42 579l112 127h89l64 -127h-77l-37 81h-2l-67 -81h-82zM27 -5l76 391c2 10 3 15 3 22c0 10 -6 15 -18 15h-40l16 83h92c39 0 57 -13 57 -44c0 -7 -2 -18 -4 -30l-87 -450c-33 -171 -163 -188 -222 -188c-23 0 -41 2 -41 2l17 83s8 -2 21 -2c44 0 111 16 130 118z" />
    <glyph glyph-name="Kcommaaccent" unicode="&#x136;" horiz-adv-x="612" 
d="M209 -59h77c2 -7 2 -15 2 -19c0 -37 -15 -77 -46 -122h-68c23 42 38 72 38 110c0 10 -1 20 -3 31zM41 0l113 579c2 11 4 20 4 25c0 11 -7 16 -20 16h-41l17 86h95c44 0 58 -18 58 -45c0 -10 -1 -23 -4 -36l-42 -216h67c29 0 45 7 58 24l210 273h117l-228 -293
c-26 -33 -48 -46 -48 -46v-2s15 -13 25 -44l65 -211c6 -17 17 -24 38 -24h32l-18 -86h-64c-45 0 -65 16 -77 53l-75 245c-6 21 -24 25 -54 25h-65l-63 -323h-100z" />
    <glyph glyph-name="kcommaaccent" unicode="&#x137;" horiz-adv-x="512" 
d="M153 -59h77c2 -7 2 -15 2 -19c0 -37 -15 -77 -46 -122h-68c23 42 38 72 38 110c0 10 -1 20 -3 31zM9 0l114 586c2 8 3 15 3 22c0 10 -6 15 -18 15h-41l17 83h92c39 0 57 -13 57 -44c0 -8 -2 -19 -4 -30l-60 -312h44c20 0 37 7 51 22l150 164h116l-174 -189
c-26 -27 -47 -38 -47 -38l-1 -2s13 -6 25 -38l51 -136c6 -16 16 -20 41 -20h31l-16 -83h-66c-45 0 -57 9 -72 47l-62 168c-7 19 -25 23 -44 23h-43l-47 -238h-97z" />
    <glyph glyph-name="kgreenlandic" unicode="&#x138;" horiz-adv-x="532" 
d="M28 0l75 386c1 8 3 15 3 22c0 10 -6 15 -18 15h-41l16 83h93c39 0 57 -13 57 -44c0 -8 -2 -19 -4 -30l-25 -133h44c20 0 37 7 51 22l169 185h117l-194 -209c-26 -28 -47 -39 -47 -39v-2s12 -7 24 -38l44 -115c6 -16 16 -20 41 -20h31l-16 -83h-65c-46 0 -58 9 -73 47
l-54 147c-8 20 -26 23 -45 23h-43l-43 -217h-97z" />
    <glyph glyph-name="Lacute" unicode="&#x139;" horiz-adv-x="536" 
d="M196 755l97 127h101l-119 -127h-79zM52 45c0 10 2 22 5 37l97 497c2 11 4 20 4 26c0 10 -7 15 -20 15h-41l17 86h95c44 0 58 -18 58 -45c0 -10 -1 -23 -4 -36l-98 -501c-2 -9 -3 -18 -3 -23c0 -10 5 -15 18 -15h195c14 0 23 8 26 22l9 45h91l-17 -91
c-8 -46 -32 -62 -73 -62h-301c-41 0 -58 17 -58 45z" />
    <glyph glyph-name="lacute" unicode="&#x13a;" horiz-adv-x="249" 
d="M164 757l97 127h101l-119 -127h-79zM20 46c0 7 1 15 3 23l101 517c2 10 3 15 3 22c0 10 -6 15 -18 15h-41l16 83h92c39 0 57 -13 57 -44c0 -8 -2 -19 -4 -30l-101 -518c-1 -5 -2 -13 -2 -16c0 -10 6 -15 18 -15h41l-16 -83h-93c-38 0 -56 16 -56 46z" />
    <glyph glyph-name="Lcommaaccent" unicode="&#x13b;" horiz-adv-x="536" 
d="M208 -59h77c2 -7 2 -15 2 -19c0 -37 -15 -77 -46 -122h-68c23 42 38 72 38 110c0 10 -1 20 -3 31zM52 45c0 10 2 22 5 37l97 497c2 11 4 20 4 26c0 10 -7 15 -20 15h-41l17 86h95c44 0 58 -18 58 -45c0 -10 -1 -23 -4 -36l-98 -501c-2 -9 -3 -18 -3 -23
c0 -10 5 -15 18 -15h195c14 0 23 8 26 22l9 45h91l-17 -91c-8 -46 -32 -62 -73 -62h-301c-41 0 -58 17 -58 45z" />
    <glyph glyph-name="lcommaaccent" unicode="&#x13c;" horiz-adv-x="249" 
d="M43 -59h77c2 -7 2 -15 2 -19c0 -37 -15 -77 -46 -122h-68c23 42 38 72 38 110c0 10 -1 20 -3 31zM20 46c0 7 1 15 3 23l101 517c2 10 3 15 3 22c0 10 -6 15 -18 15h-41l16 83h92c39 0 57 -13 57 -44c0 -8 -2 -19 -4 -30l-101 -518c-1 -5 -2 -13 -2 -16
c0 -10 6 -15 18 -15h41l-16 -83h-93c-38 0 -56 16 -56 46z" />
    <glyph glyph-name="Lcaron" unicode="&#x13d;" horiz-adv-x="537" 
d="M362 705h77c2 -7 2 -15 2 -19c0 -37 -15 -77 -46 -122h-68c23 42 38 72 38 110c0 10 -1 20 -3 31zM52 45c0 10 2 22 5 37l97 497c2 11 4 20 4 26c0 10 -7 15 -20 15h-41l17 86h95c44 0 58 -18 58 -45c0 -10 -1 -23 -4 -36l-98 -501c-2 -9 -3 -18 -3 -23
c0 -10 5 -15 18 -15h195c14 0 23 8 26 22l9 45h91l-17 -91c-8 -46 -32 -62 -73 -62h-301c-41 0 -58 17 -58 45z" />
    <glyph glyph-name="lcaron" unicode="&#x13e;" horiz-adv-x="249" 
d="M299 705h77c2 -7 2 -15 2 -19c0 -37 -15 -77 -46 -122h-68c23 42 38 72 38 110c0 10 -1 20 -3 31zM20 46c0 7 1 15 3 23l101 517c2 10 3 15 3 22c0 10 -6 15 -18 15h-41l16 83h92c39 0 57 -13 57 -44c0 -8 -2 -19 -4 -30l-101 -518c-1 -5 -2 -13 -2 -16
c0 -10 6 -15 18 -15h41l-16 -83h-93c-38 0 -56 16 -56 46z" />
    <glyph glyph-name="Ldot" unicode="&#x13f;" horiz-adv-x="537" 
d="M52 45c0 10 2 22 5 37l97 497c2 11 4 20 4 26c0 10 -7 15 -20 15h-41l17 86h95c44 0 58 -18 58 -45c0 -10 -1 -23 -4 -36l-98 -501c-2 -9 -3 -18 -3 -23c0 -10 5 -15 18 -15h195c14 0 23 8 26 22l9 45h91l-17 -91c-8 -46 -32 -62 -73 -62h-301c-41 0 -58 17 -58 45z
M316 327l20 102h99l-20 -102h-99z" />
    <glyph glyph-name="ldot" unicode="&#x140;" horiz-adv-x="337" 
d="M20 46c0 7 1 15 3 23l101 517c2 10 3 15 3 22c0 10 -6 15 -18 15h-41l16 83h92c39 0 57 -13 57 -44c0 -8 -2 -19 -4 -30l-101 -518c-1 -5 -2 -13 -2 -16c0 -10 6 -15 18 -15h41l-16 -83h-93c-38 0 -56 16 -56 46zM240 327l20 102h99l-20 -102h-99z" />
    <glyph glyph-name="Lslash" unicode="&#x141;" horiz-adv-x="539" 
d="M55 45c0 10 2 22 5 37l43 221l-70 -36l18 97l70 36l35 179c2 11 5 20 5 26c0 10 -7 15 -20 15h-41l16 86h96c43 0 58 -18 58 -45c0 -10 -2 -23 -5 -36l-32 -168l115 60l-19 -97l-116 -60l-45 -236c-2 -9 -3 -18 -3 -23c0 -10 5 -15 18 -15h194c14 0 24 8 27 22l9 45h91
l-18 -91c-8 -46 -30 -62 -73 -62h-300c-41 0 -58 17 -58 45z" />
    <glyph glyph-name="lslash" unicode="&#x142;" horiz-adv-x="262" 
d="M31 46c0 7 1 15 2 23l48 251l-82 -42l19 97l83 43l32 168c2 10 3 15 3 22c0 10 -6 15 -18 15h-40l16 83h92c39 0 57 -13 57 -44c0 -8 -2 -19 -4 -30l-31 -158l87 45l-18 -98l-88 -45l-50 -262c-1 -5 -3 -13 -3 -16c0 -10 5 -15 18 -15h41l-15 -83h-94
c-38 0 -55 16 -55 46z" />
    <glyph glyph-name="Nacute" unicode="&#x143;" horiz-adv-x="756" 
d="M437 755l97 127h101l-119 -127h-79zM-24 0l17 86h42c15 0 24 7 27 22l117 598h87l228 -451c19 -38 41 -96 41 -96h2s5 56 13 96l76 390c8 46 30 61 72 61h105l-17 -86h-45c-13 0 -22 -6 -25 -22l-116 -598h-87l-230 451c-18 38 -39 95 -39 95h-2s-6 -55 -14 -95l-75 -391
c-9 -42 -31 -60 -73 -60h-104z" />
    <glyph glyph-name="nacute" unicode="&#x144;" horiz-adv-x="624" 
d="M338 580l97 127h101l-119 -127h-79zM28 0l75 387c2 6 3 15 3 20c0 10 -6 16 -19 16h-40l16 83h92c37 0 54 -17 54 -45c0 -17 -7 -43 -12 -63h2c28 44 101 120 210 120c95 0 145 -50 145 -137c0 -18 -3 -40 -7 -62l-39 -205c-1 -5 -3 -13 -3 -16c0 -10 6 -15 19 -15h40
l-15 -83h-94c-38 0 -56 16 -56 46c0 7 1 15 3 23l45 233c3 17 6 34 6 50c0 43 -18 77 -78 77c-102 0 -186 -101 -204 -193l-47 -236h-96z" />
    <glyph glyph-name="Ncommaaccent" unicode="&#x145;" horiz-adv-x="756" 
d="M265 -59h77c2 -7 2 -15 2 -19c0 -37 -15 -77 -46 -122h-68c23 42 38 72 38 110c0 10 -1 20 -3 31zM-24 0l17 86h42c15 0 24 7 27 22l117 598h87l228 -451c19 -38 41 -96 41 -96h2s5 56 13 96l76 390c8 46 30 61 72 61h105l-17 -86h-45c-13 0 -22 -6 -25 -22l-116 -598
h-87l-230 451c-18 38 -39 95 -39 95h-2s-6 -55 -14 -95l-75 -391c-9 -42 -31 -60 -73 -60h-104z" />
    <glyph glyph-name="ncommaaccent" unicode="&#x146;" horiz-adv-x="621" 
d="M209 -59h77c2 -7 2 -15 2 -19c0 -37 -15 -77 -46 -122h-68c23 42 38 72 38 110c0 10 -1 20 -3 31zM28 0l75 387c2 6 3 15 3 20c0 10 -6 16 -19 16h-40l16 83h92c37 0 54 -17 54 -45c0 -17 -7 -43 -12 -63h2c28 44 101 120 210 120c95 0 145 -50 145 -137
c0 -18 -3 -40 -7 -62l-39 -205c-1 -5 -3 -13 -3 -16c0 -10 6 -15 19 -15h40l-15 -83h-94c-38 0 -56 16 -56 46c0 7 1 15 3 23l45 233c3 17 6 34 6 50c0 43 -18 77 -78 77c-102 0 -186 -101 -204 -193l-47 -236h-96z" />
    <glyph glyph-name="Ncaron" unicode="&#x147;" horiz-adv-x="756" 
d="M434 755l-63 127h75l38 -81h2l67 81h82l-112 -127h-89zM-24 0l17 86h42c15 0 24 7 27 22l117 598h87l228 -451c19 -38 41 -96 41 -96h2s5 56 13 96l76 390c8 46 30 61 72 61h105l-17 -86h-45c-13 0 -22 -6 -25 -22l-116 -598h-87l-230 451c-18 38 -39 95 -39 95h-2
s-6 -55 -14 -95l-75 -391c-9 -42 -31 -60 -73 -60h-104z" />
    <glyph glyph-name="ncaron" unicode="&#x148;" horiz-adv-x="624" 
d="M335 580l-63 127h75l38 -81h2l67 81h82l-112 -127h-89zM28 0l75 387c2 6 3 15 3 20c0 10 -6 16 -19 16h-40l16 83h92c37 0 54 -17 54 -45c0 -17 -7 -43 -12 -63h2c28 44 101 120 210 120c95 0 145 -50 145 -137c0 -18 -3 -40 -7 -62l-39 -205c-1 -5 -3 -13 -3 -16
c0 -10 6 -15 19 -15h40l-15 -83h-94c-38 0 -56 16 -56 46c0 7 1 15 3 23l45 233c3 17 6 34 6 50c0 43 -18 77 -78 77c-102 0 -186 -101 -204 -193l-47 -236h-96z" />
    <glyph glyph-name="napostrophe" unicode="&#x149;" horiz-adv-x="624" 
d="M47 705h77c2 -7 2 -15 2 -19c0 -37 -15 -77 -46 -122h-68c23 42 38 72 38 110c0 10 -1 20 -3 31zM28 0l75 387c2 6 3 15 3 20c0 10 -6 16 -19 16h-40l16 83h92c37 0 54 -17 54 -45c0 -17 -7 -43 -12 -63h2c28 44 101 120 210 120c95 0 145 -50 145 -137
c0 -18 -3 -40 -7 -62l-39 -205c-1 -5 -3 -13 -3 -16c0 -10 6 -15 19 -15h40l-15 -83h-94c-38 0 -56 16 -56 46c0 7 1 15 3 23l45 233c3 17 6 34 6 50c0 43 -18 77 -78 77c-102 0 -186 -101 -204 -193l-47 -236h-96z" />
    <glyph glyph-name="Eng" unicode="&#x14a;" horiz-adv-x="756" 
d="M-24 0l17 86h42c15 0 24 7 27 22l117 598h87l228 -451c19 -38 41 -96 41 -96h2s5 56 13 96l76 390c8 46 30 61 72 61h105l-17 -86h-45c-13 0 -22 -6 -25 -22l-109 -559c-41 -211 -167 -243 -285 -243l17 90c58 0 137 18 167 132l-223 433c-18 38 -39 95 -39 95h-2
s-6 -55 -14 -95l-75 -391c-9 -42 -31 -60 -73 -60h-104z" />
    <glyph glyph-name="eng" unicode="&#x14b;" horiz-adv-x="599" 
d="M28 0l75 387c2 6 3 15 3 20c0 10 -6 16 -19 16h-40l16 83h92c37 0 54 -17 54 -45c0 -17 -7 -43 -12 -63h2c28 44 101 120 210 120c95 0 145 -50 145 -137c0 -18 -3 -40 -7 -62l-65 -337c-33 -171 -164 -188 -222 -188c-23 0 -41 2 -41 2l17 83s8 -2 21 -2
c44 0 111 16 130 118l60 307c3 17 6 34 6 50c0 43 -18 77 -78 77c-102 0 -186 -101 -204 -193l-47 -236h-96z" />
    <glyph glyph-name="Omacron" unicode="&#x14c;" horiz-adv-x="795" 
d="M363 784l13 69h254l-13 -69h-254zM40 296c0 228 206 422 431 422c182 0 307 -125 307 -301c0 -232 -208 -429 -431 -429c-182 0 -307 129 -307 308zM144 300c0 -128 87 -218 212 -218c158 0 318 150 318 329c0 127 -87 214 -211 214c-161 0 -319 -146 -319 -325z" />
    <glyph glyph-name="omacron" unicode="&#x14d;" horiz-adv-x="613" 
d="M242 609l13 69h254l-13 -69h-254zM21 211c0 174 154 307 320 307c138 0 234 -90 234 -221c0 -176 -156 -309 -320 -309c-137 0 -234 90 -234 223zM120 215c0 -85 59 -143 144 -143c104 0 212 94 212 220c0 84 -58 142 -142 142c-107 0 -214 -95 -214 -219z" />
    <glyph glyph-name="Obreve" unicode="&#x14e;" horiz-adv-x="795" 
d="M40 296c0 228 206 422 431 422c182 0 307 -125 307 -301c0 -232 -208 -429 -431 -429c-182 0 -307 129 -307 308zM144 300c0 -128 87 -218 212 -218c158 0 318 150 318 329c0 127 -87 214 -211 214c-161 0 -319 -146 -319 -325zM489 751c-70 0 -127 50 -113 119l3 12h66
l-2 -13c-7 -36 11 -60 49 -60c28 0 62 13 73 61l3 12h67l-4 -19c-14 -73 -76 -112 -142 -112z" />
    <glyph glyph-name="obreve" unicode="&#x14f;" horiz-adv-x="613" 
d="M21 211c0 174 154 307 320 307c138 0 234 -90 234 -221c0 -176 -156 -309 -320 -309c-137 0 -234 90 -234 223zM120 215c0 -85 59 -143 144 -143c104 0 212 94 212 220c0 84 -58 142 -142 142c-107 0 -214 -95 -214 -219zM368 576c-70 0 -127 50 -113 119l3 12h66l-2 -13
c-7 -36 11 -60 49 -60c28 0 62 13 73 61l3 12h67l-4 -19c-14 -73 -76 -112 -142 -112z" />
    <glyph glyph-name="Ohungarumlaut" unicode="&#x150;" horiz-adv-x="795" 
d="M520 755l85 127h98l-106 -127h-77zM368 755l81 127h84l-82 -127h-83zM40 296c0 228 206 422 431 422c182 0 307 -125 307 -301c0 -232 -208 -429 -431 -429c-182 0 -307 129 -307 308zM144 300c0 -128 87 -218 212 -218c158 0 318 150 318 329c0 127 -87 214 -211 214
c-161 0 -319 -146 -319 -325z" />
    <glyph glyph-name="ohungarumlaut" unicode="&#x151;" horiz-adv-x="613" 
d="M399 580l85 127h98l-106 -127h-77zM247 580l81 127h84l-82 -127h-83zM21 211c0 174 154 307 320 307c138 0 234 -90 234 -221c0 -176 -156 -309 -320 -309c-137 0 -234 90 -234 223zM120 215c0 -85 59 -143 144 -143c104 0 212 94 212 220c0 84 -58 142 -142 142
c-107 0 -214 -95 -214 -219z" />
    <glyph glyph-name="OE" unicode="&#x152;" horiz-adv-x="945" 
d="M40 292c0 230 201 423 422 423c58 0 100 -9 142 -9h293c44 0 59 -18 59 -45c0 -10 -2 -23 -5 -36l-14 -72h-91l5 28c2 11 4 18 4 24c0 10 -8 15 -20 15h-200l-43 -221h248l-17 -86h-248l-36 -188c-2 -10 -4 -19 -4 -24c0 -10 6 -15 19 -15h206c14 0 23 8 26 22l9 45h92
l-18 -91c-9 -46 -31 -62 -73 -62h-317c-35 0 -77 -9 -125 -9c-190 0 -314 126 -314 301zM143 292c0 -127 82 -217 216 -217c39 0 72 7 72 7l104 541s-29 8 -69 8c-174 0 -323 -154 -323 -339z" />
    <glyph glyph-name="oe" unicode="&#x153;" horiz-adv-x="984" 
d="M21 211c0 174 152 307 313 307c97 0 167 -48 203 -120h2c50 72 128 120 222 120c131 0 193 -78 193 -187c0 -43 -16 -91 -16 -91h-368s-4 -15 -4 -33c0 -76 51 -135 145 -135c86 0 161 59 161 59l27 -76s-84 -67 -193 -67c-101 0 -176 46 -208 123h-2
c-57 -76 -147 -123 -237 -123c-142 0 -238 90 -238 223zM585 310h270s3 15 3 29c0 67 -41 102 -99 102c-74 0 -143 -47 -174 -131zM119 215c0 -85 59 -143 143 -143c105 0 212 94 212 220c0 84 -58 142 -142 142c-110 0 -213 -95 -213 -219z" />
    <glyph glyph-name="Racute" unicode="&#x154;" horiz-adv-x="621" 
d="M332 755l97 127h101l-119 -127h-79zM40 0l121 620h-65l18 86h301c107 0 182 -61 182 -170c0 -126 -92 -207 -171 -223v-2s13 -11 20 -33l52 -166c6 -19 17 -26 35 -26h30l-17 -86h-53c-47 0 -66 12 -80 56l-60 187c-11 33 -22 38 -59 38h-99l-55 -281h-100zM212 367h131
c82 0 151 66 151 155c0 66 -36 98 -100 98h-133z" />
    <glyph glyph-name="racute" unicode="&#x155;" horiz-adv-x="377" 
d="M213 580l97 127h101l-119 -127h-79zM28 0l77 401c2 12 -1 22 -18 22h-40l16 83h93c39 0 55 -14 55 -43c0 -12 -11 -63 -19 -86h2c35 71 104 135 187 135c10 0 19 -1 26 -2l-20 -96c-4 1 -13 2 -26 2c-94 0 -176 -101 -199 -223l-37 -193h-97z" />
    <glyph glyph-name="Rcommaaccent" unicode="&#x156;" horiz-adv-x="621" 
d="M241 -59h77c2 -7 2 -15 2 -19c0 -37 -15 -77 -46 -122h-68c23 42 38 72 38 110c0 10 -1 20 -3 31zM40 0l121 620h-65l18 86h301c107 0 182 -61 182 -170c0 -126 -92 -207 -171 -223v-2s13 -11 20 -33l52 -166c6 -19 17 -26 35 -26h30l-17 -86h-53c-47 0 -66 12 -80 56
l-60 187c-11 33 -22 38 -59 38h-99l-55 -281h-100zM212 367h131c82 0 151 66 151 155c0 66 -36 98 -100 98h-133z" />
    <glyph glyph-name="rcommaaccent" unicode="&#x157;" horiz-adv-x="378" 
d="M22 -59h77c2 -7 2 -15 2 -19c0 -37 -15 -77 -46 -122h-68c23 42 38 72 38 110c0 10 -1 20 -3 31zM28 0l77 401c2 12 -1 22 -18 22h-40l16 83h93c39 0 55 -14 55 -43c0 -12 -11 -63 -19 -86h2c35 71 104 135 187 135c10 0 19 -1 26 -2l-20 -96c-4 1 -13 2 -26 2
c-94 0 -176 -101 -199 -223l-37 -193h-97z" />
    <glyph glyph-name="Rcaron" unicode="&#x158;" horiz-adv-x="621" 
d="M329 755l-63 127h75l38 -81h2l67 81h82l-112 -127h-89zM40 0l121 620h-65l18 86h301c107 0 182 -61 182 -170c0 -126 -92 -207 -171 -223v-2s13 -11 20 -33l52 -166c6 -19 17 -26 35 -26h30l-17 -86h-53c-47 0 -66 12 -80 56l-60 187c-11 33 -22 38 -59 38h-99l-55 -281
h-100zM212 367h131c82 0 151 66 151 155c0 66 -36 98 -100 98h-133z" />
    <glyph glyph-name="rcaron" unicode="&#x159;" horiz-adv-x="377" 
d="M210 580l-63 127h75l38 -81h2l67 81h82l-112 -127h-89zM28 0l77 401c2 12 -1 22 -18 22h-40l16 83h93c39 0 55 -14 55 -43c0 -12 -11 -63 -19 -86h2c35 71 104 135 187 135c10 0 19 -1 26 -2l-20 -96c-4 1 -13 2 -26 2c-94 0 -176 -101 -199 -223l-37 -193h-97z" />
    <glyph glyph-name="Sacute" unicode="&#x15a;" horiz-adv-x="528" 
d="M319 755l97 127h101l-119 -127h-79zM-7 91l64 69s58 -81 166 -81c86 0 147 51 147 119c0 139 -283 109 -283 312c0 124 112 208 250 208c88 0 193 -35 193 -110c0 -8 -2 -21 -4 -30l-10 -48h-89l4 23c2 7 3 15 3 21c0 35 -47 53 -100 53c-95 0 -145 -53 -145 -111
c0 -130 283 -96 283 -307c0 -125 -99 -221 -250 -221c-156 0 -229 103 -229 103z" />
    <glyph glyph-name="sacute" unicode="&#x15b;" horiz-adv-x="452" 
d="M242 580l97 127h101l-119 -127h-79zM-12 74l49 64s53 -71 151 -71c58 0 100 27 100 70c0 44 -43 61 -88 79c-66 26 -143 60 -143 150c0 101 95 152 197 152c79 0 185 -32 169 -110l-8 -36h-85l3 19c5 27 -25 50 -81 50c-60 0 -97 -28 -97 -68c0 -47 50 -65 99 -85
c64 -25 135 -56 135 -142c0 -92 -83 -158 -202 -158c-138 0 -199 86 -199 86z" />
    <glyph glyph-name="Scircumflex" unicode="&#x15c;" horiz-adv-x="528" 
d="M224 755l112 127h89l64 -127h-77l-36 80h-2l-68 -80h-82zM-7 91l64 69s58 -81 166 -81c86 0 147 51 147 119c0 139 -283 109 -283 312c0 124 112 208 250 208c88 0 193 -35 193 -110c0 -8 -2 -21 -4 -30l-10 -48h-89l4 23c2 7 3 15 3 21c0 35 -47 53 -100 53
c-95 0 -145 -53 -145 -111c0 -130 283 -96 283 -307c0 -125 -99 -221 -250 -221c-156 0 -229 103 -229 103z" />
    <glyph glyph-name="scircumflex" unicode="&#x15d;" horiz-adv-x="452" 
d="M147 580l112 127h89l64 -127h-77l-36 80h-2l-68 -80h-82zM-12 74l49 64s53 -71 151 -71c58 0 100 27 100 70c0 44 -43 61 -88 79c-66 26 -143 60 -143 150c0 101 95 152 197 152c79 0 185 -32 169 -110l-8 -36h-85l3 19c5 27 -25 50 -81 50c-60 0 -97 -28 -97 -68
c0 -47 50 -65 99 -85c64 -25 135 -56 135 -142c0 -92 -83 -158 -202 -158c-138 0 -199 86 -199 86z" />
    <glyph glyph-name="Scedilla" unicode="&#x15e;" horiz-adv-x="530" 
d="M142 -88l35 80c-123 16 -182 99 -182 99l63 69s58 -81 166 -81c86 0 147 51 147 119c0 139 -282 109 -282 312c0 124 112 208 249 208c88 0 193 -35 193 -110c0 -8 -1 -21 -3 -30l-10 -48h-90l5 23c1 7 3 15 3 21c0 35 -48 53 -101 53c-94 0 -145 -53 -145 -111
c0 -130 283 -96 283 -307c0 -123 -96 -218 -243 -221l-15 -38c27 -5 59 -26 59 -64c0 -69 -66 -93 -116 -93c-34 0 -58 6 -58 6l11 59s19 -7 42 -7c26 0 53 8 53 37c0 17 -18 26 -46 26c-9 0 -18 -2 -18 -2z" />
    <glyph glyph-name="scedilla" unicode="&#x15f;" horiz-adv-x="452" 
d="M97 -88l35 81c-100 18 -143 81 -143 81l49 64s52 -71 151 -71c57 0 100 27 100 70c0 44 -44 61 -88 79c-67 26 -144 60 -144 150c0 101 95 152 197 152c80 0 185 -32 169 -110l-8 -36h-85l3 19c5 27 -25 50 -81 50c-59 0 -96 -28 -96 -68c0 -47 50 -65 98 -85
c64 -25 135 -56 135 -142c0 -92 -82 -158 -204 -158l-16 -38c28 -5 60 -26 60 -64c0 -69 -66 -93 -117 -93c-34 0 -57 6 -57 6l11 59s19 -7 41 -7c26 0 54 8 54 37c0 17 -18 26 -46 26c-9 0 -18 -2 -18 -2z" />
    <glyph glyph-name="Scaron" unicode="&#x160;" horiz-adv-x="528" 
d="M317 755l-63 127h75l38 -81h2l67 81h82l-112 -127h-89zM-7 91l64 69s58 -81 166 -81c86 0 147 51 147 119c0 139 -283 109 -283 312c0 124 112 208 250 208c88 0 193 -35 193 -110c0 -8 -2 -21 -4 -30l-10 -48h-89l4 23c2 7 3 15 3 21c0 35 -47 53 -100 53
c-95 0 -145 -53 -145 -111c0 -130 283 -96 283 -307c0 -125 -99 -221 -250 -221c-156 0 -229 103 -229 103z" />
    <glyph glyph-name="scaron" unicode="&#x161;" horiz-adv-x="452" 
d="M240 580l-63 127h75l38 -81h2l67 81h82l-112 -127h-89zM-12 74l49 64s53 -71 151 -71c58 0 100 27 100 70c0 44 -43 61 -88 79c-66 26 -143 60 -143 150c0 101 95 152 197 152c79 0 185 -32 169 -110l-8 -36h-85l3 19c5 27 -25 50 -81 50c-60 0 -97 -28 -97 -68
c0 -47 50 -65 99 -85c64 -25 135 -56 135 -142c0 -92 -83 -158 -202 -158c-138 0 -199 86 -199 86z" />
    <glyph glyph-name="Tcommaaccent" unicode="&#x162;" horiz-adv-x="628" 
d="M207 0l121 620h-142c-15 0 -23 -7 -26 -22l-9 -45h-89l18 96c8 43 24 57 67 57h483c44 0 56 -18 56 -45c0 -10 -2 -23 -5 -36l-13 -72h-90l6 28c2 10 4 18 4 24c0 10 -8 15 -21 15h-139l-121 -620h-22l-20 -50c27 -5 59 -26 59 -64c0 -69 -65 -93 -116 -93
c-34 0 -58 6 -58 6l12 59s18 -7 41 -7c26 0 54 8 54 37c0 17 -18 26 -46 26c-9 0 -19 -2 -19 -2l39 88h-24z" />
    <glyph glyph-name="tcommaaccent" unicode="&#x163;" horiz-adv-x="329" 
d="M74 -88l47 106c-36 20 -65 56 -65 120c0 15 2 33 6 51l47 239h-66l15 78h68l27 139h95l-27 -139h121l-15 -78h-122l-43 -228c-3 -14 -5 -27 -5 -39c0 -73 56 -79 87 -79c15 0 25 2 25 2l-16 -86s-15 -3 -35 -3c-15 0 -32 2 -50 6l-22 -51c28 -5 60 -26 60 -64
c0 -69 -66 -93 -117 -93c-34 0 -57 6 -57 6l11 59s19 -7 41 -7c26 0 54 8 54 37c0 17 -18 26 -46 26c-9 0 -18 -2 -18 -2z" />
    <glyph glyph-name="Tcaron" unicode="&#x164;" horiz-adv-x="628" 
d="M361 755l-63 127h75l38 -81h2l67 81h82l-112 -127h-89zM207 0l121 620h-142c-15 0 -23 -7 -26 -22l-9 -45h-89l18 96c8 43 24 57 67 57h483c44 0 56 -18 56 -45c0 -10 -2 -23 -5 -36l-13 -72h-90l6 28c2 10 4 18 4 24c0 10 -8 15 -21 15h-139l-121 -620h-100z" />
    <glyph glyph-name="tcaron" unicode="&#x165;" horiz-adv-x="328" 
d="M321 705h77c2 -7 2 -15 2 -19c0 -37 -15 -77 -46 -122h-68c23 42 38 72 38 110c0 10 -1 20 -3 31zM56 138c0 15 2 33 5 51l47 239h-66l15 78h68l27 139h95l-27 -139h122l-16 -78h-121l-44 -228c-3 -14 -4 -27 -4 -39c0 -73 55 -79 87 -79c15 0 25 2 25 2l-17 -86
s-14 -3 -35 -3c-57 0 -161 24 -161 143z" />
    <glyph glyph-name="Tbar" unicode="&#x166;" horiz-adv-x="642" 
d="M212 0l60 310h-154l15 76h154l46 234h-141c-16 0 -24 -7 -27 -22l-9 -45h-89l18 96c9 43 25 57 68 57h482c43 0 57 -18 57 -45c0 -10 -3 -23 -5 -36l-14 -72h-89l5 28c2 10 3 18 3 24c0 10 -7 15 -20 15h-139l-47 -234h162l-15 -76h-161l-60 -310h-100z" />
    <glyph glyph-name="tbar" unicode="&#x167;" horiz-adv-x="330" 
d="M57 138c0 18 7 57 19 121h-65l13 68h65l20 101h-66l15 78h68l27 139h95l-27 -139h122l-16 -78h-121l-20 -101h122l-14 -68h-121l-13 -69c-12 -61 17 -108 85 -108c15 0 25 2 25 2l-17 -86s-14 -3 -35 -3c-57 0 -161 24 -161 143z" />
    <glyph glyph-name="Utilde" unicode="&#x168;" horiz-adv-x="716" 
d="M74 197c0 18 2 37 6 57l64 325c2 11 4 20 4 26c0 10 -7 15 -20 15h-41l17 86h95c44 0 59 -18 59 -45c0 -10 -2 -23 -5 -36l-73 -375c-4 -15 -5 -31 -5 -42c0 -80 53 -126 140 -126c103 0 183 64 204 170l77 393c8 46 30 61 72 61h104l-16 -86h-45c-13 0 -22 -6 -25 -22
l-70 -360c-29 -149 -144 -250 -306 -250c-147 0 -236 83 -236 209zM276 756c16 93 63 127 121 127c75 0 75 -68 121 -68c31 0 47 36 53 65h66c-17 -92 -64 -127 -121 -127c-76 0 -76 68 -122 68c-30 0 -47 -35 -53 -65h-65z" />
    <glyph glyph-name="utilde" unicode="&#x169;" horiz-adv-x="616" 
d="M51 125c0 19 2 40 6 63l40 204c1 5 2 13 2 16c0 10 -6 15 -18 15h-41l16 83h93c39 0 57 -16 57 -46c0 -6 -1 -14 -3 -23l-46 -234c-3 -16 -5 -33 -5 -48c0 -43 17 -77 76 -77c100 0 183 100 201 192l46 236h97l-75 -387c-2 -7 -3 -15 -3 -20c0 -10 6 -16 19 -16h39
l-16 -83h-91c-37 0 -54 17 -54 45c0 18 7 43 12 64h-2c-28 -45 -100 -121 -208 -121c-94 0 -142 50 -142 137zM183 581c16 93 63 127 121 127c75 0 75 -68 121 -68c31 0 47 36 53 65h66c-17 -92 -64 -127 -121 -127c-76 0 -76 68 -122 68c-30 0 -47 -35 -53 -65h-65z" />
    <glyph glyph-name="Umacron" unicode="&#x16a;" horiz-adv-x="716" 
d="M74 197c0 18 2 37 6 57l64 325c2 11 4 20 4 26c0 10 -7 15 -20 15h-41l17 86h95c44 0 59 -18 59 -45c0 -10 -2 -23 -5 -36l-73 -375c-4 -15 -5 -31 -5 -42c0 -80 53 -126 140 -126c103 0 183 64 204 170l77 393c8 46 30 61 72 61h104l-16 -86h-45c-13 0 -22 -6 -25 -22
l-70 -360c-29 -149 -144 -250 -306 -250c-147 0 -236 83 -236 209zM327 784l13 69h254l-13 -69h-254z" />
    <glyph glyph-name="umacron" unicode="&#x16b;" horiz-adv-x="616" 
d="M51 125c0 19 2 40 6 63l40 204c1 5 2 13 2 16c0 10 -6 15 -18 15h-41l16 83h93c39 0 57 -16 57 -46c0 -6 -1 -14 -3 -23l-46 -234c-3 -16 -5 -33 -5 -48c0 -43 17 -77 76 -77c100 0 183 100 201 192l46 236h97l-75 -387c-2 -7 -3 -15 -3 -20c0 -10 6 -16 19 -16h39
l-16 -83h-91c-37 0 -54 17 -54 45c0 18 7 43 12 64h-2c-28 -45 -100 -121 -208 -121c-94 0 -142 50 -142 137zM233 609l13 69h254l-13 -69h-254z" />
    <glyph glyph-name="Ubreve" unicode="&#x16c;" horiz-adv-x="716" 
d="M74 197c0 18 2 37 6 57l64 325c2 11 4 20 4 26c0 10 -7 15 -20 15h-41l17 86h95c44 0 59 -18 59 -45c0 -10 -2 -23 -5 -36l-73 -375c-4 -15 -5 -31 -5 -42c0 -80 53 -126 140 -126c103 0 183 64 204 170l77 393c8 46 30 61 72 61h104l-16 -86h-45c-13 0 -22 -6 -25 -22
l-70 -360c-29 -149 -144 -250 -306 -250c-147 0 -236 83 -236 209zM453 751c-70 0 -127 50 -113 119l3 12h66l-2 -13c-7 -36 11 -60 49 -60c28 0 62 13 73 61l3 12h67l-4 -19c-14 -73 -76 -112 -142 -112z" />
    <glyph glyph-name="ubreve" unicode="&#x16d;" horiz-adv-x="616" 
d="M51 125c0 19 2 40 6 63l40 204c1 5 2 13 2 16c0 10 -6 15 -18 15h-41l16 83h93c39 0 57 -16 57 -46c0 -6 -1 -14 -3 -23l-46 -234c-3 -16 -5 -33 -5 -48c0 -43 17 -77 76 -77c100 0 183 100 201 192l46 236h97l-75 -387c-2 -7 -3 -15 -3 -20c0 -10 6 -16 19 -16h39
l-16 -83h-91c-37 0 -54 17 -54 45c0 18 7 43 12 64h-2c-28 -45 -100 -121 -208 -121c-94 0 -142 50 -142 137zM360 576c-70 0 -127 50 -113 119l3 12h66l-2 -13c-7 -36 11 -60 49 -60c28 0 62 13 73 61l3 12h67l-4 -19c-14 -73 -76 -112 -142 -112z" />
    <glyph glyph-name="Uring" unicode="&#x16e;" horiz-adv-x="716" 
d="M449 742c-40 0 -74 25 -74 65c0 53 49 86 94 86c40 0 75 -24 75 -66c0 -51 -49 -85 -95 -85zM452 783c24 0 42 18 42 43c0 16 -10 27 -28 27c-21 0 -41 -18 -41 -44c0 -16 10 -26 27 -26zM74 197c0 18 2 37 6 57l64 325c2 11 4 20 4 26c0 10 -7 15 -20 15h-41l17 86h95
c44 0 59 -18 59 -45c0 -10 -2 -23 -5 -36l-73 -375c-4 -15 -5 -31 -5 -42c0 -80 53 -126 140 -126c103 0 183 64 204 170l77 393c8 46 30 61 72 61h104l-16 -86h-45c-13 0 -22 -6 -25 -22l-70 -360c-29 -149 -144 -250 -306 -250c-147 0 -236 83 -236 209z" />
    <glyph glyph-name="uring" unicode="&#x16f;" horiz-adv-x="616" 
d="M355 567c-40 0 -74 25 -74 65c0 53 49 86 94 86c40 0 75 -24 75 -66c0 -51 -49 -85 -95 -85zM358 608c24 0 42 18 42 43c0 16 -10 27 -28 27c-21 0 -41 -18 -41 -44c0 -16 10 -26 27 -26zM51 125c0 19 2 40 6 63l40 204c1 5 2 13 2 16c0 10 -6 15 -18 15h-41l16 83h93
c39 0 57 -16 57 -46c0 -6 -1 -14 -3 -23l-46 -234c-3 -16 -5 -33 -5 -48c0 -43 17 -77 76 -77c100 0 183 100 201 192l46 236h97l-75 -387c-2 -7 -3 -15 -3 -20c0 -10 6 -16 19 -16h39l-16 -83h-91c-37 0 -54 17 -54 45c0 18 7 43 12 64h-2c-28 -45 -100 -121 -208 -121
c-94 0 -142 50 -142 137z" />
    <glyph glyph-name="Uhungarumlaut" unicode="&#x170;" horiz-adv-x="716" 
d="M74 197c0 18 2 37 6 57l64 325c2 11 4 20 4 26c0 10 -7 15 -20 15h-41l17 86h95c44 0 59 -18 59 -45c0 -10 -2 -23 -5 -36l-73 -375c-4 -15 -5 -31 -5 -42c0 -80 53 -126 140 -126c103 0 183 64 204 170l77 393c8 46 30 61 72 61h104l-16 -86h-45c-13 0 -22 -6 -25 -22
l-70 -360c-29 -149 -144 -250 -306 -250c-147 0 -236 83 -236 209zM485 755l85 127h98l-106 -127h-77zM333 755l81 127h84l-82 -127h-83z" />
    <glyph glyph-name="uhungarumlaut" unicode="&#x171;" horiz-adv-x="616" 
d="M51 125c0 19 2 40 6 63l40 204c1 5 2 13 2 16c0 10 -6 15 -18 15h-41l16 83h93c39 0 57 -16 57 -46c0 -6 -1 -14 -3 -23l-46 -234c-3 -16 -5 -33 -5 -48c0 -43 17 -77 76 -77c100 0 183 100 201 192l46 236h97l-75 -387c-2 -7 -3 -15 -3 -20c0 -10 6 -16 19 -16h39
l-16 -83h-91c-37 0 -54 17 -54 45c0 18 7 43 12 64h-2c-28 -45 -100 -121 -208 -121c-94 0 -142 50 -142 137zM391 580l85 127h98l-106 -127h-77zM239 580l81 127h84l-82 -127h-83z" />
    <glyph glyph-name="Uogonek" unicode="&#x172;" horiz-adv-x="718" 
d="M75 197c0 18 2 37 6 57l64 325c2 11 4 20 4 26c0 10 -7 15 -20 15h-41l16 86h96c43 0 58 -18 58 -45c0 -10 -2 -23 -5 -36l-73 -375c-3 -15 -4 -31 -4 -42c0 -80 52 -126 139 -126c104 0 184 64 204 170l77 393c9 46 30 61 73 61h104l-17 -86h-45c-13 0 -22 -6 -25 -22
l-69 -360c-22 -109 -90 -193 -188 -229c-26 -13 -106 -62 -106 -108c0 -32 39 -39 55 -40l-31 -68c-35 4 -105 24 -105 86c0 46 36 82 77 110c-145 -3 -244 74 -244 208z" />
    <glyph glyph-name="uogonek" unicode="&#x173;" horiz-adv-x="616" 
d="M363 -121c0 52 40 93 85 121c-42 0 -57 20 -57 45c0 18 7 43 12 64h-2c-28 -45 -100 -121 -208 -121c-94 0 -142 50 -142 137c0 19 2 40 6 63l40 204c1 5 2 13 2 16c0 10 -6 15 -18 15h-41l16 83h93c39 0 57 -16 57 -46c0 -6 -1 -14 -3 -23l-46 -234
c-3 -16 -5 -33 -5 -48c0 -43 17 -77 76 -77c100 0 183 100 201 192l46 236h97l-75 -387c-2 -7 -3 -15 -3 -20c0 -10 6 -16 19 -16h39l-16 -83h-1c-18 -2 -91 -57 -91 -99c0 -32 38 -39 54 -40l-31 -68c-34 4 -104 24 -104 86z" />
    <glyph glyph-name="Wcircumflex" unicode="&#x174;" horiz-adv-x="967" 
d="M440 755l112 127h89l64 -127h-77l-36 80h-2l-68 -80h-82zM159 0l-38 596c-1 17 -10 24 -24 24h-20l16 86h64c43 0 65 -12 67 -58l22 -454c2 -38 -2 -75 -2 -75h2s14 36 32 75l242 510h89l33 -510c2 -39 0 -75 0 -75h2s12 37 29 75l198 454c21 48 51 58 86 58h71l-17 -86
h-20c-13 0 -26 -4 -34 -22l-271 -598h-117l-33 446c-3 45 -1 96 -1 96h-2s-19 -50 -41 -95l-216 -447h-117z" />
    <glyph glyph-name="wcircumflex" unicode="&#x175;" horiz-adv-x="844" 
d="M338 580l112 127h89l64 -127h-77l-36 80h-2l-68 -80h-82zM134 0l-54 403c-3 15 -10 20 -25 20h-17l17 83h64c33 0 53 -16 57 -56l31 -299c3 -26 2 -54 2 -54h2s11 28 24 54l178 353h89l41 -353c3 -26 3 -54 3 -54h2s10 28 23 54l148 301c21 43 36 54 81 54h68l-16 -83
h-14c-16 0 -26 -4 -36 -20l-211 -403h-108l-43 325c-3 26 -3 55 -3 55h-2s-12 -29 -25 -55l-167 -325h-109z" />
    <glyph glyph-name="Ycircumflex" unicode="&#x176;" horiz-adv-x="606" 
d="M194 0l60 308l-123 287c-7 18 -19 25 -35 25h-24l17 86h45c42 0 60 -10 78 -54l76 -177c15 -36 28 -80 28 -80h2s28 44 56 80l140 177c34 44 57 54 98 54h61l-17 -86h-23c-19 0 -31 -6 -44 -23l-235 -289l-60 -308h-100zM253 755l112 127h89l64 -127h-77l-36 80h-2
l-68 -80h-82z" />
    <glyph glyph-name="ycircumflex" unicode="&#x177;" horiz-adv-x="544" 
d="M31 -210c-69 0 -112 50 -112 50l41 69c2 -2 29 -36 74 -36c40 0 73 29 100 74l36 57l-95 399c-4 16 -10 20 -27 20h-12l16 83h65c32 0 43 -17 50 -51l59 -285c5 -26 6 -61 6 -61h2s15 35 29 61l161 285c23 40 43 51 84 51h62l-17 -83h-12c-16 0 -27 -4 -36 -20l-297 -497
c-47 -78 -109 -116 -177 -116zM184 580l112 127h89l64 -127h-77l-36 80h-2l-68 -80h-82z" />
    <glyph glyph-name="Ydieresis" unicode="&#x178;" horiz-adv-x="606" 
d="M194 0l60 308l-123 287c-7 18 -19 25 -35 25h-24l17 86h45c42 0 60 -10 78 -54l76 -177c15 -36 28 -80 28 -80h2s28 44 56 80l140 177c34 44 57 54 98 54h61l-17 -86h-23c-19 0 -31 -6 -44 -23l-235 -289l-60 -308h-100zM431 781l20 101h74l-20 -101h-74zM267 781l20 101
h73l-20 -101h-73z" />
    <glyph glyph-name="Zacute" unicode="&#x179;" horiz-adv-x="601" 
d="M359 755l97 127h101l-119 -127h-79zM-24 0l12 66l435 490c32 35 66 64 66 64v2s-19 -2 -53 -2h-219c-13 0 -23 -7 -26 -22l-9 -45h-92l17 89c9 45 32 64 77 64h453l-13 -65l-438 -491c-32 -36 -66 -64 -66 -64v-2s19 2 53 2h243c14 0 24 7 27 22l8 45h92l-17 -89
c-9 -45 -32 -64 -77 -64h-473z" />
    <glyph glyph-name="zacute" unicode="&#x17a;" horiz-adv-x="514" 
d="M278 580l97 127h101l-119 -127h-79zM-20 0l12 62l318 316c27 27 55 51 55 51v2s-22 -2 -46 -2h-149c-14 0 -23 -7 -26 -22l-8 -40h-83l15 75c9 45 32 64 77 64h361l-11 -62l-318 -316c-29 -27 -58 -50 -58 -50v-2s20 2 53 2h164c14 0 24 9 27 23l7 38h83l-15 -75
c-9 -45 -32 -64 -77 -64h-381z" />
    <glyph glyph-name="Zdotaccent" unicode="&#x17b;" horiz-adv-x="601" 
d="M-24 0l12 66l435 490c32 35 66 64 66 64v2s-19 -2 -53 -2h-219c-13 0 -23 -7 -26 -22l-9 -45h-92l17 89c9 45 32 64 77 64h453l-13 -65l-438 -491c-32 -36 -66 -64 -66 -64v-2s19 2 53 2h243c14 0 24 7 27 22l8 45h92l-17 -89c-9 -45 -32 -64 -77 -64h-473zM359 781
l21 101h87l-20 -101h-88z" />
    <glyph glyph-name="zdotaccent" unicode="&#x17c;" horiz-adv-x="514" 
d="M-20 0l12 62l318 316c27 27 55 51 55 51v2s-22 -2 -46 -2h-149c-14 0 -23 -7 -26 -22l-8 -40h-83l15 75c9 45 32 64 77 64h361l-11 -62l-318 -316c-29 -27 -58 -50 -58 -50v-2s20 2 53 2h164c14 0 24 9 27 23l7 38h83l-15 -75c-9 -45 -32 -64 -77 -64h-381zM278 606
l21 101h87l-20 -101h-88z" />
    <glyph glyph-name="Zcaron" unicode="&#x17d;" horiz-adv-x="601" 
d="M356 755l-63 127h75l38 -81h2l67 81h82l-112 -127h-89zM-24 0l12 66l435 490c32 35 66 64 66 64v2s-19 -2 -53 -2h-219c-13 0 -23 -7 -26 -22l-9 -45h-92l17 89c9 45 32 64 77 64h453l-13 -65l-438 -491c-32 -36 -66 -64 -66 -64v-2s19 2 53 2h243c14 0 24 7 27 22l8 45
h92l-17 -89c-9 -45 -32 -64 -77 -64h-473z" />
    <glyph glyph-name="zcaron" unicode="&#x17e;" horiz-adv-x="514" 
d="M275 580l-63 127h75l38 -81h2l67 81h82l-112 -127h-89zM-20 0l12 62l318 316c27 27 55 51 55 51v2s-22 -2 -46 -2h-149c-14 0 -23 -7 -26 -22l-8 -40h-83l15 75c9 45 32 64 77 64h361l-11 -62l-318 -316c-29 -27 -58 -50 -58 -50v-2s20 2 53 2h164c14 0 24 9 27 23l7 38
h83l-15 -75c-9 -45 -32 -64 -77 -64h-381z" />
    <glyph glyph-name="longs" unicode="&#x17f;" horiz-adv-x="263" 
d="M30 0l82 428h-63l15 78h63l5 22c33 166 161 185 221 185c25 0 43 -3 43 -3l-19 -86s-10 2 -29 2c-40 0 -103 -12 -121 -107l-101 -519h-96z" />
    <glyph glyph-name="florin" unicode="&#x192;" 
d="M51 -56c-23 0 -43 3 -43 3l24 83s9 -2 23 -2c37 0 108 13 135 111l60 211h-75l15 78h82l30 104c44 158 166 179 233 179c24 0 44 -3 44 -3l-25 -84s-9 2 -24 2c-36 0 -107 -12 -136 -110l-25 -88h105l-15 -78h-112l-64 -225c-46 -164 -171 -181 -232 -181z" />
    <glyph glyph-name="Scommaaccent" unicode="&#x218;" horiz-adv-x="528" 
d="M154 -59h77c2 -7 2 -15 2 -19c0 -37 -15 -77 -46 -122h-68c23 42 38 72 38 110c0 10 -1 20 -3 31zM-7 91l64 69s58 -81 166 -81c86 0 147 51 147 119c0 139 -283 109 -283 312c0 124 112 208 250 208c88 0 193 -35 193 -110c0 -8 -2 -21 -4 -30l-10 -48h-89l4 23
c2 7 3 15 3 21c0 35 -47 53 -100 53c-95 0 -145 -53 -145 -111c0 -130 283 -96 283 -307c0 -125 -99 -221 -250 -221c-156 0 -229 103 -229 103z" />
    <glyph glyph-name="scommaaccent" unicode="&#x219;" horiz-adv-x="450" 
d="M117 -59h77c2 -7 2 -15 2 -19c0 -37 -15 -77 -46 -122h-68c23 42 38 72 38 110c0 10 -1 20 -3 31zM-13 74l49 64s53 -71 151 -71c58 0 100 27 100 70c0 44 -43 61 -88 79c-66 26 -143 60 -143 150c0 101 95 152 197 152c79 0 185 -32 169 -110l-8 -36h-85l3 19
c5 27 -25 50 -81 50c-60 0 -97 -28 -97 -68c0 -47 50 -65 99 -85c64 -25 135 -56 135 -142c0 -92 -83 -158 -202 -158c-138 0 -199 86 -199 86z" />
    <glyph glyph-name="uni021A" unicode="&#x21a;" horiz-adv-x="628" 
d="M202 -59h77c2 -7 2 -15 2 -19c0 -37 -15 -77 -46 -122h-68c23 42 38 72 38 110c0 10 -1 20 -3 31zM207 0l121 620h-142c-15 0 -23 -7 -26 -22l-9 -45h-89l18 96c8 43 24 57 67 57h483c44 0 56 -18 56 -45c0 -10 -2 -23 -5 -36l-13 -72h-90l6 28c2 10 4 18 4 24
c0 10 -8 15 -21 15h-139l-121 -620h-100z" />
    <glyph glyph-name="uni021B" unicode="&#x21b;" horiz-adv-x="328" 
d="M80 -59h77c2 -7 2 -15 2 -19c0 -37 -15 -77 -46 -122h-68c23 42 38 72 38 110c0 10 -1 20 -3 31zM56 138c0 15 2 33 5 51l47 239h-66l15 78h68l27 139h95l-27 -139h122l-16 -78h-121l-44 -228c-3 -14 -4 -27 -4 -39c0 -73 55 -79 87 -79c15 0 25 2 25 2l-17 -86
s-14 -3 -35 -3c-57 0 -161 24 -161 143z" />
    <glyph glyph-name="circumflex" unicode="&#x2c6;" horiz-adv-x="485" 
d="M95 755l112 127h89l64 -127h-77l-36 80h-2l-68 -80h-82z" />
    <glyph glyph-name="caron" unicode="&#x2c7;" horiz-adv-x="488" 
d="M188 755l-63 127h75l38 -81h2l67 81h82l-112 -127h-89z" />
    <glyph glyph-name="breve" unicode="&#x2d8;" horiz-adv-x="501" 
d="M238 751c-70 0 -127 50 -113 119l3 12h66l-2 -13c-7 -36 11 -60 49 -60c28 0 62 13 73 61l3 12h67l-4 -19c-14 -73 -76 -112 -142 -112z" />
    <glyph glyph-name="dotaccent" unicode="&#x2d9;" horiz-adv-x="256" 
d="M73 781l21 101h87l-20 -101h-88z" />
    <glyph glyph-name="ring" unicode="&#x2da;" horiz-adv-x="380" 
d="M180 742c-40 0 -74 25 -74 65c0 53 49 86 94 86c40 0 75 -24 75 -66c0 -51 -49 -85 -95 -85zM183 783c24 0 42 18 42 43c0 16 -10 27 -28 27c-21 0 -41 -18 -41 -44c0 -16 10 -26 27 -26z" />
    <glyph glyph-name="ogonek" unicode="&#x2db;" horiz-adv-x="361" 
d="M105 -121c0 64 62 111 118 141h56v-20c-17 0 -94 -56 -94 -99c0 -32 38 -39 55 -40l-31 -68c-35 4 -104 24 -104 86z" />
    <glyph glyph-name="tilde" unicode="&#x2dc;" horiz-adv-x="519" 
d="M80 756c16 93 63 127 121 127c75 0 75 -68 121 -68c31 0 47 36 53 65h66c-17 -92 -64 -127 -121 -127c-76 0 -76 68 -122 68c-30 0 -47 -35 -53 -65h-65z" />
    <glyph glyph-name="hungarumlaut" unicode="&#x2dd;" horiz-adv-x="536" 
d="M245 755l85 127h98l-106 -127h-77zM93 755l81 127h84l-82 -127h-83z" />
    <glyph glyph-name="uni1E9E" unicode="&#x1e9e;" horiz-adv-x="648" 
d="M-25 0l17 86h42c14 0 24 8 27 22l75 390c24 122 125 208 252 208h257l-13 -68l-169 -200c-6 -7 -22 -23 -22 -23v-2c86 -20 162 -74 162 -173c0 -127 -108 -248 -282 -248c-42 0 -79 7 -95 10l17 87c10 -3 43 -8 74 -8c122 0 183 76 183 151c0 66 -48 107 -176 115l12 59
l156 189c12 16 25 25 25 25l1 2s-15 -2 -30 -2h-112c-68 0 -126 -52 -139 -120l-85 -436c-9 -45 -32 -64 -77 -64h-100z" />
    <glyph glyph-name="endash" unicode="&#x2013;" horiz-adv-x="648" 
d="M50 246l15 78h527l-15 -78h-527z" />
    <glyph glyph-name="emdash" unicode="&#x2014;" horiz-adv-x="846" 
d="M50 246l14 78h727l-15 -78h-726z" />
    <glyph glyph-name="quoteleft" unicode="&#x2018;" horiz-adv-x="226" 
d="M92 522l103 195h70l-80 -195h-93z" />
    <glyph glyph-name="quoteright" unicode="&#x2019;" horiz-adv-x="219" 
d="M96 523l81 195h91l-102 -195h-70z" />
    <glyph glyph-name="quotesinglbase" unicode="&#x201a;" horiz-adv-x="243" 
d="M-30 -89l80 194h92l-103 -194h-69z" />
    <glyph glyph-name="quotedblleft" unicode="&#x201c;" horiz-adv-x="364" 
d="M231 522l103 195h69l-80 -195h-92zM92 522l103 195h70l-80 -195h-93z" />
    <glyph glyph-name="quotedblright" unicode="&#x201d;" horiz-adv-x="358" 
d="M235 523l80 195h92l-103 -195h-69zM96 523l81 195h91l-102 -195h-70z" />
    <glyph glyph-name="quotedblbase" unicode="&#x201e;" horiz-adv-x="382" 
d="M109 -89l80 194h91l-102 -194h-69zM-30 -89l80 194h92l-103 -194h-69z" />
    <glyph glyph-name="dagger" unicode="&#x2020;" horiz-adv-x="429" 
d="M99 -50l94 478h-122l16 78h121l38 200h93l-38 -200h124l-15 -78h-124l-93 -478h-94z" />
    <glyph glyph-name="daggerdbl" unicode="&#x2021;" horiz-adv-x="442" 
d="M105 -50l43 221h-120l14 78h121l36 179h-121l15 78h121l38 200h94l-39 -200h125l-15 -78h-125l-35 -179h124l-15 -78h-124l-43 -221h-94z" />
    <glyph glyph-name="bullet" unicode="&#x2022;" horiz-adv-x="458" 
d="M227 136c-85 0 -154 70 -154 155s69 155 154 155c86 0 155 -70 155 -155s-69 -155 -155 -155z" />
    <glyph glyph-name="ellipsis" unicode="&#x2026;" horiz-adv-x="740" 
d="M524 0l20 103h100l-20 -103h-100zM265 0l19 103h100l-19 -103h-100zM6 0l19 103h99l-19 -103h-99z" />
    <glyph glyph-name="perthousand" unicode="&#x2030;" horiz-adv-x="1116" 
d="M234 422c-81 0 -134 53 -134 132c0 83 82 164 175 164c81 0 134 -55 134 -131c0 -87 -87 -165 -175 -165zM14 0l668 706h99l-667 -706h-100zM242 496c46 0 88 40 88 88c0 35 -25 61 -63 61c-45 0 -88 -42 -88 -90c0 -34 24 -59 63 -59zM741 119c0 84 82 165 175 165
c81 0 134 -56 134 -132c0 -87 -87 -164 -174 -164c-82 0 -135 53 -135 131zM386 119c0 84 82 165 174 165c82 0 135 -56 135 -132c0 -87 -87 -164 -175 -164c-82 0 -134 53 -134 131zM820 121c0 -34 25 -59 63 -59c46 0 88 40 88 89c0 33 -24 60 -62 60
c-45 0 -89 -43 -89 -90zM464 121c0 -34 25 -59 64 -59c45 0 88 40 88 89c0 33 -25 60 -63 60c-45 0 -89 -43 -89 -90z" />
    <glyph glyph-name="guilsinglleft" unicode="&#x2039;" horiz-adv-x="347" 
d="M168 77l-129 207l192 204h102l-201 -210l128 -201h-92z" />
    <glyph glyph-name="guilsinglright" unicode="&#x203a;" horiz-adv-x="347" 
d="M9 77l201 210l-128 201h92l129 -207l-191 -204h-103z" />
    <glyph glyph-name="fraction" unicode="&#x2044;" horiz-adv-x="150" 
d="M-109 0h-80l473 706h79z" />
    <glyph glyph-name="Euro" unicode="&#x20ac;" 
d="M20 253l13 61h55c1 27 7 61 13 87h-53l12 61h62c66 150 212 256 376 256c65 0 114 -16 114 -16l-38 -82s-38 10 -79 10c-110 0 -211 -66 -264 -168h281l-25 -61h-283c-7 -26 -13 -59 -15 -87h264l-25 -61h-233c11 -100 76 -176 198 -176c50 0 94 14 94 14l2 -88
s-44 -15 -104 -15c-165 0 -282 106 -295 265h-70z" />
    <glyph glyph-name="trademark" unicode="&#x2122;" horiz-adv-x="1068" 
d="M512 266v67h24c6 0 9 3 10 9l28 364h70l104 -230c8 -18 14 -41 14 -41h2s5 23 13 41l104 230h70l29 -364c0 -6 3 -9 10 -9h24v-67h-59c-36 0 -47 8 -49 46l-17 217c-1 15 1 30 1 30h-2l-95 -212h-61l-95 212h-2s2 -15 1 -30l-17 -217c-2 -38 -13 -46 -49 -46h-58z
M280 266v373h-77c-6 0 -8 -3 -8 -9v-30h-68v61c0 34 11 45 48 45h285c37 0 47 -11 47 -45v-61h-64v30c0 6 -3 9 -10 9h-77v-373h-76z" />
    <glyph glyph-name="minus" unicode="&#x2212;" 
d="M27 246v78h517v-78h-517z" />
    <glyph glyph-name="infinity" unicode="&#x221e;" horiz-adv-x="463" 
d="M242 167c-101 0 -183 82 -183 182c0 101 82 181 183 181c100 0 180 -80 180 -181c0 -100 -80 -182 -180 -182z" />
    <glyph glyph-name="approxequal" unicode="&#x2248;" 
d="M76 322l-41 58c35 36 90 73 151 73c94 0 127 -70 198 -70c42 0 84 26 111 55l40 -59c-34 -35 -89 -73 -151 -73c-94 0 -127 70 -198 70c-42 0 -82 -26 -110 -54zM76 133l-41 59c35 35 90 71 151 71c94 0 127 -70 198 -70c42 0 84 27 111 56l40 -59
c-34 -35 -89 -72 -151 -72c-94 0 -127 70 -198 70c-42 0 -82 -27 -110 -55z" />
    <glyph glyph-name="notequal" unicode="&#x2260;" 
d="M100 73l55 78h-110v78h162l80 111h-242v78h295l80 114l52 -34l-57 -80h107v-78h-160l-79 -111h239v-78h-292l-78 -112z" />
    <glyph glyph-name="lessequal" unicode="&#x2264;" 
d="M15 252v66l466 208v-89l-358 -151v-2l358 -151v-89zM16 -95h465v-77h-465v77z" />
    <glyph glyph-name="greaterequal" unicode="&#x2265;" 
d="M35 44v89l357 151v2l-357 151v89l466 -208v-66zM34 -95h465v-77h-465v77z" />
    <glyph glyph-name="commaaccent" unicode="&#xf6c3;" horiz-adv-x="335" 
d="M144 -59h77c2 -7 2 -15 2 -19c0 -37 -15 -77 -46 -122h-68c23 42 38 72 38 110c0 10 -1 20 -3 31z" />
    <glyph glyph-name="apple" unicode="&#xf8ff;" horiz-adv-x="1130" 
d="M110 -5v152l-126 72v278l126 71v151l265 142l134 -71l132 71l265 -142v-151l124 -71v-278l-124 -72v-152l-265 -141l-132 71l-134 -71zM150 30l238 -126l121 66l118 -66l238 126v139l114 64v249l-114 66v136l-238 126l-118 -64l-121 64l-238 -126v-136l-114 -66v-249
l114 -64v-139zM184 64v121l-99 60v225l99 58v123l215 114l110 -59l107 59l214 -114v-123l100 -58v-225l-100 -60v-121l-214 -114l-107 58l-110 -58zM380 91h79v204h206v69h-206v165h151c20 0 24 -8 24 -26v-33h73v74c0 37 -14 53 -54 53h-331v-68h58v-438z" />
    <glyph glyph-name="zero.tnum" 
d="M35 221c0 181 80 497 321 497c155 0 208 -95 208 -233c0 -181 -79 -497 -321 -497c-152 0 -208 95 -208 233zM137 223c0 -87 28 -146 108 -146c159 0 217 263 217 404c0 89 -28 148 -109 148c-152 0 -216 -250 -216 -406z" />
    <glyph glyph-name="one.tnum" 
d="M45 0l15 86h155l89 456c5 22 10 43 10 43h-2s-11 -15 -42 -41l-78 -64l-47 62l200 164h92l-122 -620h154l-17 -86h-407z" />
    <glyph glyph-name="two.tnum" 
d="M52 0c-45 0 -56 21 -56 62c0 259 449 275 449 471c0 59 -39 93 -106 93c-63 0 -112 -29 -121 -70l-5 -28h-92l10 54c19 95 128 136 221 136c117 0 197 -64 197 -175c0 -253 -438 -297 -438 -439c0 -14 5 -18 23 -18h246c15 0 23 8 26 22l10 45h91l-17 -89
c-9 -45 -32 -64 -77 -64h-361z" />
    <glyph glyph-name="three.tnum" 
d="M6 82l59 68s61 -73 159 -73c94 0 177 69 177 158c0 71 -58 107 -134 107c-20 0 -44 -3 -44 -3l-14 53l201 199c16 17 36 30 36 30v2s-23 -3 -37 -3h-165c-14 0 -23 -7 -26 -22l-9 -45h-90l17 89c9 45 31 64 76 64h371l-14 -69l-229 -226c67 -9 165 -50 165 -168
c0 -132 -117 -255 -282 -255c-141 0 -217 94 -217 94z" />
    <glyph glyph-name="four.tnum" 
d="M-6 186l12 65l405 455h116l-84 -434h109l-16 -86h-110l-37 -186h-97l36 186h-334zM126 272h219l50 258c5 26 16 61 16 61h-2s-22 -32 -39 -51l-244 -266v-2z" />
    <glyph glyph-name="five.tnum" 
d="M13 80l59 65s54 -68 150 -68c97 0 188 73 188 169c0 76 -56 120 -137 120c-72 0 -127 -35 -127 -35l-57 23l86 290c13 43 31 62 76 62h242c47 0 62 -21 53 -66l-17 -87h-89l9 45c3 14 -3 22 -18 22h-149c-15 0 -23 -7 -26 -22l-39 -130c-8 -25 -14 -41 -14 -41h2
s40 21 97 21c121 0 211 -80 211 -198c0 -147 -136 -262 -293 -262c-143 0 -207 92 -207 92z" />
    <glyph glyph-name="six.tnum" 
d="M42 245c0 181 140 473 397 473c87 0 140 -30 140 -30l-42 -81s-42 23 -100 23c-133 0 -226 -122 -263 -240h2c37 42 102 66 162 66c122 0 194 -80 194 -191c0 -135 -102 -277 -265 -277c-136 0 -225 99 -225 257zM143 235c0 -79 48 -158 129 -158c91 0 159 84 159 183
c0 67 -41 114 -122 114c-78 0 -166 -57 -166 -139z" />
    <glyph glyph-name="seven.tnum" 
d="M56 0l398 577c22 32 36 43 36 43v2s-13 -2 -38 -2h-223c-14 0 -24 -7 -27 -22l-8 -45h-91l17 89c8 45 30 64 75 64h425l-13 -68l-443 -638h-108z" />
    <glyph glyph-name="eight.tnum" 
d="M21 174c0 119 116 193 157 220c-38 29 -64 66 -64 119c0 100 92 205 246 205c126 0 204 -63 204 -161c0 -107 -104 -195 -127 -214c46 -30 78 -71 78 -130c0 -121 -118 -225 -273 -225c-131 0 -221 73 -221 186zM369 381c15 12 95 83 95 165c0 53 -41 85 -107 85
c-83 0 -145 -52 -145 -117c0 -69 83 -96 157 -133zM123 185c0 -69 53 -110 124 -110c80 0 166 51 166 135c0 74 -94 100 -171 141c-27 -17 -119 -77 -119 -166z" />
    <glyph glyph-name="nine.tnum" 
d="M25 19l40 80s42 -22 98 -22c134 0 226 120 264 240h-2c-38 -41 -102 -66 -163 -66c-122 0 -193 81 -193 189c0 136 101 278 264 278c136 0 226 -99 226 -257c0 -180 -141 -473 -398 -473c-85 0 -136 31 -136 31zM290 334c78 0 168 57 168 138c0 78 -47 158 -128 158
c-92 0 -161 -84 -161 -184c0 -65 41 -112 121 -112z" />
    <glyph glyph-name="hyphen.case" horiz-adv-x="413" 
d="M61 305l16 86h292l-17 -86h-291z" />
    <glyph glyph-name="parenleft.case" horiz-adv-x="273" 
d="M91 -65c-31 78 -51 170 -51 268c0 211 67 397 206 562h88c-135 -170 -208 -359 -208 -564c0 -92 16 -181 47 -266h-82z" />
    <glyph glyph-name="parenright.case" horiz-adv-x="273" 
d="M-41 -65c136 171 208 360 208 564c0 92 -15 181 -46 266h81c32 -77 52 -169 52 -268c0 -210 -67 -397 -207 -562h-88z" />
    <glyph glyph-name="bracketleft.case" horiz-adv-x="283" 
d="M21 -1l136 702c9 45 32 64 77 64h101l-14 -73h-59c-14 0 -23 -7 -26 -22l-124 -639c-3 -15 4 -22 18 -22h59l-15 -74h-102c-45 0 -60 19 -51 64z" />
    <glyph glyph-name="bracketright.case" horiz-adv-x="284" 
d="M-16 9h59c14 0 23 7 26 22l124 639c3 15 -4 22 -18 22h-59l15 73h101c46 0 61 -19 52 -64l-136 -702c-9 -45 -32 -64 -77 -64h-100z" />
    <glyph glyph-name="braceleft.case" horiz-adv-x="322" 
d="M68 62c0 15 2 32 5 51l18 90c2 11 3 21 3 29c0 74 -67 80 -67 80l17 86s86 7 106 111l18 90c31 158 143 172 217 167l-14 -74c-30 4 -102 -6 -121 -105l-21 -110c-20 -100 -106 -121 -106 -121v-2s60 -25 60 -102c0 -10 -1 -20 -3 -30l-21 -107c-3 -13 -5 -26 -5 -37
c0 -69 57 -72 85 -70l-15 -74s-10 -2 -23 -2c-35 0 -133 15 -133 130z" />
    <glyph glyph-name="braceright.case" horiz-adv-x="321" 
d="M-30 8c32 -4 102 6 121 105l24 119c19 103 106 124 106 124v2s-59 23 -59 100c0 10 1 19 3 30l19 99c2 13 4 25 4 35c0 69 -58 72 -85 70l15 74c53 7 156 -13 156 -129c0 -14 -2 -32 -6 -50l-15 -80c-2 -11 -3 -21 -3 -29c0 -75 67 -80 67 -80l-17 -86s-86 -8 -106 -111
l-20 -100c-31 -158 -143 -174 -218 -168z" />
    <glyph glyph-name="at.case" horiz-adv-x="786" 
d="M54 292c0 229 205 429 448 429c153 0 219 -76 219 -171c0 -15 -1 -31 -4 -46l-53 -269h72l-14 -73h-262c-117 0 -185 73 -185 162c0 110 99 214 252 214h103s2 10 2 18c0 46 -52 85 -140 85c-185 0 -339 -172 -339 -349c0 -132 86 -230 233 -230l-15 -77
c-185 0 -317 124 -317 307zM374 329c0 -55 37 -94 97 -94h100l46 236h-99c-78 0 -144 -69 -144 -142z" />
    <glyph glyph-name="guillemotleft.case" horiz-adv-x="555" 
d="M378 137l-129 207l208 204h103l-218 -210l128 -201h-92zM179 137l-129 207l192 204h102l-201 -210l128 -201h-92z" />
    <glyph glyph-name="guillemotright.case" horiz-adv-x="559" 
d="M229 137l202 208l-126 203h95l127 -205l-198 -206h-100zM17 137l212 208l-126 203h95l126 -205l-206 -206h-101z" />
    <glyph glyph-name="guilsinglleft.case" horiz-adv-x="349" 
d="M179 137l-129 207l192 204h102l-201 -210l128 -201h-92z" />
    <glyph glyph-name="guilsinglright.case" horiz-adv-x="348" 
d="M21 137l201 210l-128 201h92l129 -207l-191 -204h-103z" />
    <glyph glyph-name="endash.case" horiz-adv-x="649" 
d="M61 306l15 78h527l-15 -78h-527z" />
    <glyph glyph-name="emdash.case" horiz-adv-x="849" 
d="M62 306l14 78h727l-15 -78h-726z" />
    <glyph glyph-name="periodcentered.case" horiz-adv-x="221" 
d="M58 294l20 102h99l-20 -102h-99z" />
    <glyph glyph-name="questiondown.case" horiz-adv-x="473" 
d="M361 511l-9 -47c-32 -160 -227 -184 -227 -307c0 -47 37 -81 96 -81c66 0 122 42 122 42l43 -75s-79 -58 -178 -58c-107 0 -186 62 -186 160c0 177 212 207 236 325l8 41h95zM401 705l-20 -99h-101l20 99h101z" />
    <glyph glyph-name="exclamdown.case" horiz-adv-x="270" 
d="M220 511l-93 -512h-100l106 512h87zM264 705l-19 -97h-100l19 97h100z" />
    <glyph glyph-name="bullet.case" horiz-adv-x="457" 
d="M237 197c-85 0 -154 70 -154 155s69 155 154 155c86 0 155 -70 155 -155s-69 -155 -155 -155z" />
    <glyph glyph-name="uni00A0" unicode="&#xa0;" horiz-adv-x="269" 
 />
    <glyph glyph-name="uni00AD" unicode="&#xad;" horiz-adv-x="411" 
d="M49 242l16 86h292l-17 -86h-291z" />
    <glyph glyph-name="cyrbreve" unicode="&#xf6d4;" horiz-adv-x="324" 
d="M179 739c-75 0 -133 43 -133 105c0 7 0 16 5 38h79c-5 -13 -5 -22 -5 -27c0 -33 24 -53 59 -53c38 0 78 20 86 80h77c-16 -108 -94 -143 -168 -143z" />
    <glyph glyph-name="uni0410" unicode="&#x410;" horiz-adv-x="664" 
d="M-46 0l17 86h18c16 0 24 4 33 22l338 598h105l105 -600c3 -16 8 -20 24 -20h18l-17 -86h-60c-43 0 -56 12 -63 58l-25 145h-259l-82 -145c-25 -46 -41 -58 -84 -58h-68zM228 287h211l-36 216c-5 35 -8 98 -8 98h-2s-27 -63 -47 -98z" />
    <glyph glyph-name="uni0411" unicode="&#x411;" horiz-adv-x="595" 
d="M52 47c0 6 3 24 6 42l104 531h-65l17 86h413c34 0 53 -14 53 -44c0 -6 -1 -14 -2 -20l-17 -89h-92l7 36c1 5 2 11 2 15c0 10 -5 16 -18 16h-198l-40 -204h124c108 0 210 -47 210 -173c0 -151 -132 -243 -276 -243h-175c-37 0 -53 14 -53 47zM179 84h114
c88 0 159 64 159 151c0 64 -41 97 -110 97h-136l-40 -202c-3 -15 -5 -27 -5 -31c0 -9 5 -15 18 -15z" />
    <glyph glyph-name="uni0412" unicode="&#x412;" horiz-adv-x="609" 
d="M52 45c0 10 2 22 5 37l105 538h-65l17 86h295c109 0 180 -56 180 -152c0 -86 -58 -154 -124 -181v-2c53 -22 90 -71 90 -145c0 -109 -79 -187 -166 -214c-29 -9 -60 -12 -88 -12h-191c-41 0 -58 17 -58 45zM221 409h142c70 0 124 58 124 127c0 52 -30 84 -91 84h-134z
M162 101c0 -10 5 -15 18 -15h128c19 0 36 2 53 9c55 20 91 74 91 134c0 65 -40 98 -104 98h-143l-40 -203c-2 -9 -3 -18 -3 -23z" />
    <glyph glyph-name="uni0413" unicode="&#x413;" horiz-adv-x="514" 
d="M450 620h-189l-121 -620h-100l121 620h-65l18 86h400c43 0 56 -18 56 -45c0 -10 -3 -23 -5 -36l-14 -72h-89l5 28c2 10 4 18 4 24c0 10 -8 15 -21 15z" />
    <glyph glyph-name="uni0414" unicode="&#x414;" horiz-adv-x="728" 
d="M-38 24c9 45 30 62 74 62h16c121 138 170 320 200 474l11 60h-63l17 86h412c43 0 56 -17 56 -44c0 -9 -2 -24 -4 -37l-105 -539h23c39 0 52 -15 52 -40c0 -9 -3 -25 -6 -39l-29 -147h-91l20 101c2 10 4 20 4 24c0 9 -4 15 -17 15h-463c-13 0 -22 -8 -25 -22l-23 -118h-91
zM162 86h314l96 493c2 11 4 20 4 26c0 10 -7 15 -20 15h-197l-12 -65c-30 -155 -82 -342 -185 -469z" />
    <glyph glyph-name="uni0415" unicode="&#x415;" horiz-adv-x="571" 
d="M52 45c0 10 2 22 5 37l105 538h-65l17 86h409c44 0 59 -18 59 -45c0 -10 -2 -23 -5 -36l-14 -72h-91l6 28c2 11 3 18 3 24c0 10 -7 15 -20 15h-199l-43 -221h247l-17 -86h-247l-37 -189c-2 -9 -3 -18 -3 -23c0 -10 5 -15 18 -15h206c14 0 24 8 27 22l9 45h91l-18 -91
c-8 -46 -31 -62 -73 -62h-312c-41 0 -58 17 -58 45z" />
    <glyph glyph-name="uni0416" unicode="&#x416;" horiz-adv-x="887" 
d="M-49 0l250 324c28 35 54 47 54 47v2s-18 6 -32 43l-66 181c-7 20 -21 23 -46 23h-17l17 86h44c55 0 68 -8 84 -53l79 -218c9 -25 27 -28 55 -28h45l58 299h96l-58 -299h35c28 0 50 3 69 28l159 218c33 45 54 53 109 53h51l-16 -86h-16c-24 0 -39 -3 -54 -23l-138 -185
c-26 -37 -53 -46 -53 -46v-2s22 -11 35 -46l125 -318h-104l-114 297c-10 26 -27 29 -52 29h-52l-64 -326h-96l64 326h-46c-26 0 -43 -3 -63 -29l-227 -297h-115z" />
    <glyph glyph-name="uni0417" unicode="&#x417;" horiz-adv-x="530" 
d="M-15 82l61 67c30 -39 83 -72 153 -72c93 0 175 58 175 145c0 65 -47 95 -115 95h-94l16 82h78c73 0 152 54 152 135c0 54 -32 96 -108 96c-62 0 -114 -31 -122 -68l-5 -29h-92l11 55c18 99 141 130 224 130c112 0 196 -60 196 -167c0 -91 -58 -156 -136 -185v-2
c55 -20 96 -66 96 -140c0 -141 -131 -236 -272 -236c-82 0 -169 31 -218 94z" />
    <glyph glyph-name="uni0418" unicode="&#x418;" horiz-adv-x="763" 
d="M41 0l116 598c3 15 -3 22 -17 22h-43l17 86h101c45 0 60 -19 51 -64l-76 -387c-7 -40 -25 -101 -25 -101h2s44 65 76 102l396 450h105l-117 -598c-2 -14 4 -22 18 -22h43l-17 -86h-100c-45 0 -61 19 -52 64l75 388c8 39 27 103 27 103h-2s-42 -65 -74 -103l-399 -452
h-105z" />
    <glyph glyph-name="uni0419" unicode="&#x419;" horiz-adv-x="763" 
d="M473 739c-75 0 -133 43 -133 105c0 7 0 16 5 38h79c-5 -13 -5 -22 -5 -27c0 -33 24 -53 59 -53c38 0 78 20 86 80h77c-16 -108 -94 -143 -168 -143zM41 0l116 598c3 15 -3 22 -17 22h-43l17 86h101c45 0 60 -19 51 -64l-76 -387c-7 -40 -25 -101 -25 -101h2s44 65 76 102
l396 450h105l-117 -598c-2 -14 4 -22 18 -22h43l-17 -86h-100c-45 0 -61 19 -52 64l75 388c8 39 27 103 27 103h-2s-42 -65 -74 -103l-399 -452h-105z" />
    <glyph glyph-name="uni041A" unicode="&#x41a;" horiz-adv-x="612" 
d="M41 0l113 579c2 11 4 20 4 25c0 11 -7 16 -20 16h-41l17 86h95c44 0 58 -18 58 -45c0 -10 -1 -23 -4 -36l-42 -216h67c29 0 45 7 58 24l210 273h117l-228 -293c-26 -33 -48 -46 -48 -46v-2s15 -13 25 -44l65 -211c6 -17 17 -24 38 -24h32l-18 -86h-64
c-45 0 -65 16 -77 53l-75 245c-6 21 -24 25 -54 25h-65l-63 -323h-100z" />
    <glyph glyph-name="uni041B" unicode="&#x41b;" horiz-adv-x="681" 
d="M-50 -8l18 91c119 16 194 172 249 458l15 79h-66l17 86h415c36 0 54 -13 54 -41c0 -8 -2 -22 -6 -42l-96 -495c-3 -12 -5 -24 -5 -27c0 -9 7 -15 19 -15h43l-17 -86h-101c-37 0 -54 13 -54 42c0 7 3 24 6 42l97 494c3 14 4 24 4 27c0 10 -7 15 -19 15h-195l-15 -79
c-65 -338 -162 -539 -363 -549z" />
    <glyph glyph-name="uni041C" unicode="&#x41c;" horiz-adv-x="862" 
d="M-35 0l16 86h33c15 0 23 7 27 22l164 598h100l93 -375c9 -39 17 -89 17 -89h2s26 48 52 89l239 375h107l-66 -581c-1 -9 -2 -17 -2 -24c0 -9 5 -15 17 -15h34l-17 -86h-82c-43 0 -60 14 -60 49c0 7 2 19 3 27l42 361c5 42 18 104 18 104h-2s-34 -68 -58 -104l-203 -310
h-84l-82 310c-9 37 -18 105 -18 105h-2s-11 -64 -22 -105l-102 -377c-12 -42 -30 -60 -72 -60h-92z" />
    <glyph glyph-name="uni041D" unicode="&#x41d;" horiz-adv-x="757" 
d="M41 0l113 579c2 11 4 20 4 26c0 10 -7 15 -20 15h-41l17 86h95c44 0 58 -18 58 -45c0 -10 -1 -23 -4 -36l-46 -229h360l49 249c9 46 31 61 73 61h104l-17 -86h-45c-12 0 -21 -6 -24 -22l-117 -598h-100l60 310h-359l-60 -310h-100z" />
    <glyph glyph-name="uni041E" unicode="&#x41e;" horiz-adv-x="795" 
d="M40 296c0 228 206 422 431 422c182 0 307 -125 307 -301c0 -232 -208 -429 -431 -429c-182 0 -307 129 -307 308zM144 300c0 -128 87 -218 212 -218c158 0 318 150 318 329c0 127 -87 214 -211 214c-161 0 -319 -146 -319 -325z" />
    <glyph glyph-name="uni041F" unicode="&#x41f;" horiz-adv-x="745" 
d="M40 0l121 620h-65l18 86h548c36 0 54 -12 54 -42c0 -9 -4 -26 -6 -38l-98 -503c-1 -9 -3 -17 -3 -22c0 -9 5 -15 18 -15h43l-17 -86h-99c-38 0 -55 13 -55 41c0 10 2 23 5 37l98 504c2 10 4 18 4 24c0 10 -6 14 -18 14h-327l-121 -620h-100z" />
    <glyph glyph-name="uni0420" unicode="&#x420;" horiz-adv-x="588" 
d="M40 0l121 620h-65l18 86h301c113 0 193 -68 193 -185c0 -109 -69 -195 -146 -233c-35 -17 -76 -27 -117 -27h-154l-51 -261h-100zM208 347h130c90 0 167 67 167 165c0 74 -43 108 -113 108h-131z" />
    <glyph glyph-name="uni0421" unicode="&#x421;" horiz-adv-x="693" 
d="M41 295c0 217 181 423 418 423c103 0 244 -41 244 -138c0 -12 -2 -26 -6 -44l-8 -40h-91l8 38c13 69 -94 91 -150 91c-164 0 -312 -143 -312 -325c0 -128 80 -218 214 -218c84 0 170 31 230 85l45 -78c-68 -63 -179 -101 -286 -101c-180 0 -306 128 -306 307z" />
    <glyph glyph-name="uni0422" unicode="&#x422;" horiz-adv-x="628" 
d="M207 0l121 620h-142c-15 0 -23 -7 -26 -22l-9 -45h-89l18 96c8 43 24 57 67 57h483c44 0 56 -18 56 -45c0 -10 -2 -23 -5 -36l-13 -72h-90l6 28c2 10 4 18 4 24c0 10 -8 15 -21 15h-139l-121 -620h-100z" />
    <glyph glyph-name="uni0423" unicode="&#x423;" horiz-adv-x="612" 
d="M20 38l54 72c18 -17 43 -33 74 -33c43 0 68 30 96 78l-131 443c-5 16 -12 22 -29 22h-21l17 86h48c47 0 59 -13 71 -58l86 -305c11 -39 21 -88 21 -88h2s18 39 45 88l170 305c26 47 43 58 93 58h61l-17 -86h-16c-18 0 -27 -4 -37 -21l-280 -486
c-39 -68 -91 -125 -174 -125c-49 0 -102 21 -133 50z" />
    <glyph glyph-name="uni0424" unicode="&#x424;" horiz-adv-x="817" 
d="M40 324c0 205 170 342 392 345l16 81h99l-17 -81c166 0 277 -95 277 -244c0 -205 -176 -346 -391 -347l-18 -90h-99l18 90c-166 0 -277 96 -277 246zM432 163c146 2 274 104 274 260c0 102 -73 161 -193 161zM141 327c0 -103 73 -164 192 -164l82 421
c-147 -2 -274 -100 -274 -257z" />
    <glyph glyph-name="uni0425" unicode="&#x425;" horiz-adv-x="594" 
d="M-43 0l294 367l-100 228c-8 19 -21 25 -42 25h-25l17 86h55c45 0 65 -11 83 -54l55 -131c14 -35 30 -82 30 -82h2s29 43 59 82l104 131c32 41 53 54 98 54h68l-17 -86h-24c-20 0 -35 -4 -51 -25l-193 -235l157 -360h-109l-90 211c-15 34 -30 77 -30 77h-2
s-26 -38 -58 -77l-167 -211h-114z" />
    <glyph glyph-name="uni0426" unicode="&#x426;" horiz-adv-x="752" 
d="M52 41c0 9 2 25 5 37l98 506c1 6 3 18 3 21c0 10 -7 15 -19 15h-43l18 86h101c37 0 53 -13 53 -42c0 -9 -3 -27 -5 -36l-98 -505c-2 -9 -4 -20 -4 -23c0 -8 7 -14 19 -14h322l121 620h100l-121 -620h20c37 0 53 -12 53 -40c0 -7 -3 -25 -5 -36l-29 -150h-90l20 104
c2 6 4 18 4 22c0 8 -6 14 -17 14h-452c-38 0 -54 14 -54 41z" />
    <glyph glyph-name="uni0427" unicode="&#x427;" horiz-adv-x="646" 
d="M103 421c0 18 2 37 6 58l21 107c1 7 2 14 2 18c0 11 -5 16 -18 16h-43l17 86h101c36 0 53 -12 53 -42c0 -7 -1 -14 -2 -22l-28 -144c-3 -16 -4 -31 -4 -43c0 -62 35 -94 117 -94c63 0 128 32 162 53l57 292h100l-139 -706h-100l56 284c3 14 8 33 8 33h-2
c-39 -21 -107 -46 -179 -46c-126 0 -185 54 -185 150z" />
    <glyph glyph-name="uni0428" unicode="&#x428;" horiz-adv-x="1015" 
d="M56 76l100 516c1 4 2 9 2 12c0 11 -6 16 -18 16h-43l17 86h101c36 0 54 -12 54 -42c0 -9 -2 -18 -4 -28l-100 -516c-1 -5 -4 -15 -4 -18c0 -10 7 -16 19 -16h236l122 620h100l-122 -620h238c14 0 23 8 26 22l104 534c9 45 32 64 77 64h101l-17 -86h-43
c-15 0 -23 -7 -26 -22l-104 -534c-9 -45 -32 -64 -77 -64h-690c-37 0 -53 13 -53 43c0 9 1 20 4 33z" />
    <glyph glyph-name="uni0429" unicode="&#x429;" horiz-adv-x="1030" 
d="M52 43c0 9 1 20 4 33l100 516c1 4 2 9 2 12c0 11 -6 16 -18 16h-43l17 86h101c36 0 54 -12 54 -42c0 -9 -2 -18 -4 -28l-100 -516c-1 -5 -4 -15 -4 -18c0 -10 7 -16 19 -16h237l121 620h100l-121 -620h259l120 620h100l-120 -620h28c37 0 52 -12 52 -40
c0 -9 -2 -24 -4 -34l-30 -153h-89l19 98c1 9 5 24 5 29c0 8 -7 14 -17 14h-734c-38 0 -54 13 -54 43z" />
    <glyph glyph-name="uni042A" unicode="&#x42a;" horiz-adv-x="726" 
d="M195 64l108 556h-119c-15 0 -24 -7 -27 -22l-8 -45h-90l18 93c9 45 27 60 72 60h336l-17 -86h-65l-35 -184h136c110 0 194 -60 194 -183c0 -173 -140 -253 -282 -253h-170c-37 0 -54 13 -54 43c0 6 1 13 3 21zM321 86h110c88 0 164 60 164 163c0 66 -41 101 -110 101
h-134l-45 -227c-2 -11 -4 -20 -4 -22c0 -10 7 -15 19 -15z" />
    <glyph glyph-name="uni042B" unicode="&#x42b;" horiz-adv-x="856" 
d="M613 64l125 642h100l-115 -587c-2 -9 -3 -14 -3 -18c0 -9 6 -15 18 -15h43l-17 -86h-100c-37 0 -54 13 -54 43c0 6 1 13 3 21zM54 64l99 514c3 13 5 25 5 28c0 9 -7 14 -19 14h-43l18 86h100c37 0 54 -12 54 -42c0 -7 -1 -14 -3 -22l-39 -202h130c111 0 194 -57 194 -181
c0 -157 -125 -259 -278 -259h-167c-38 0 -54 13 -54 43c0 6 1 14 3 21zM179 86h109c85 0 159 63 159 167c0 66 -39 101 -106 101h-131l-44 -228c-2 -9 -5 -21 -5 -24c0 -10 6 -16 18 -16z" />
    <glyph glyph-name="uni042C" unicode="&#x42c;" horiz-adv-x="579" 
d="M54 64l99 514c3 13 5 25 5 28c0 9 -7 14 -19 14h-43l18 86h100c37 0 54 -12 54 -42c0 -7 -1 -14 -3 -22l-39 -202h130c111 0 194 -57 194 -181c0 -157 -125 -259 -278 -259h-167c-38 0 -54 13 -54 43c0 6 1 14 3 21zM179 86h109c85 0 159 63 159 167
c0 66 -39 101 -106 101h-131l-44 -228c-2 -9 -5 -21 -5 -24c0 -10 6 -16 18 -16z" />
    <glyph glyph-name="uni042D" unicode="&#x42d;" horiz-adv-x="697" 
d="M-7 97l57 67c41 -51 123 -86 206 -86c138 0 264 100 303 233h-368l15 82h371c11 129 -62 235 -208 235c-72 0 -182 -29 -193 -88l-8 -39h-92l13 64c20 99 161 153 283 153c194 0 307 -135 307 -306c0 -233 -195 -424 -424 -424c-98 0 -200 35 -262 109z" />
    <glyph glyph-name="uni042E" unicode="&#x42e;" horiz-adv-x="1059" 
d="M41 0l113 583c2 9 4 18 4 22c0 9 -6 15 -18 15h-43l17 86h101c36 0 54 -12 54 -42c0 -7 -1 -14 -3 -22l-48 -246h119c47 182 220 322 408 322c177 0 297 -125 297 -301c0 -232 -203 -429 -421 -429c-190 0 -302 144 -296 322h-124l-60 -310h-100zM428 300
c0 -128 82 -218 202 -218c154 0 308 150 308 329c0 127 -82 214 -202 214c-155 0 -308 -146 -308 -325z" />
    <glyph glyph-name="uni042F" unicode="&#x42f;" horiz-adv-x="624" 
d="M-36 0l17 86h12c24 0 40 3 56 23l118 150c20 27 41 38 41 38v2c-33 13 -110 54 -110 164c0 146 125 243 263 243h310l-16 -86h-65l-122 -620h-100l53 271h-81c-38 0 -50 -6 -78 -42l-136 -176c-34 -43 -54 -53 -109 -53h-53zM314 357h124l52 263h-125
c-89 0 -164 -61 -164 -153c0 -74 47 -110 113 -110z" />
    <glyph glyph-name="uni0430" unicode="&#x430;" horiz-adv-x="529" 
d="M-4 121c0 147 176 194 339 194h25l2 12c3 14 4 25 4 39c0 50 -30 75 -90 75c-33 0 -90 -7 -95 -39l-5 -29h-92l10 51c14 72 115 94 194 94c122 0 175 -56 175 -143c0 -19 -3 -38 -7 -59l-37 -197c-2 -7 -4 -16 -4 -21c0 -9 6 -15 18 -15h42l-17 -83h-85
c-39 0 -55 17 -55 41c0 11 5 39 10 55h-2c1 0 -60 -108 -183 -108c-79 0 -147 43 -147 133zM94 135c0 -45 31 -72 77 -72c88 0 159 97 172 164l4 18h-25c-85 0 -228 -15 -228 -110z" />
    <glyph glyph-name="uni0431" unicode="&#x431;" horiz-adv-x="571" 
d="M35 216c0 67 17 147 39 207c36 95 92 154 207 201l119 49c49 19 63 27 69 53l6 24h93l-9 -43c-13 -71 -60 -89 -124 -114l-128 -52c-90 -36 -137 -92 -154 -167h1c51 63 113 86 178 86c123 0 192 -77 192 -197c0 -166 -134 -275 -286 -275c-145 0 -203 102 -203 228z
M131 197c0 -87 52 -126 117 -126c88 0 179 72 179 183c0 83 -51 123 -118 123c-64 0 -124 -38 -156 -94c-18 -32 -22 -65 -22 -86z" />
    <glyph glyph-name="uni0432" unicode="&#x432;" horiz-adv-x="521" 
d="M38 55l71 368h-63l16 83h264c95 0 154 -40 154 -111c0 -68 -46 -114 -97 -131v-2c48 -13 75 -54 75 -101c0 -100 -93 -161 -209 -161h-167c-32 0 -46 11 -46 36c0 6 0 12 2 19zM156 69h85c75 0 120 39 120 97c0 40 -32 62 -89 62h-103l-25 -124c-2 -10 -4 -19 -4 -22
c0 -9 5 -13 16 -13zM180 293h97c63 0 103 36 103 92c0 35 -26 52 -78 52h-93z" />
    <glyph glyph-name="uni0433" unicode="&#x433;" horiz-adv-x="440" 
d="M28 0l82 423h-63l16 83h336c37 0 54 -11 54 -40c0 -6 -1 -14 -2 -22l-15 -77h-81l5 27c1 8 2 13 2 15c0 8 -6 14 -18 14h-137l-83 -423h-96z" />
    <glyph glyph-name="uni0434" unicode="&#x434;" horiz-adv-x="588" 
d="M-44 18c9 43 30 63 73 63h6c93 92 129 243 144 314l5 28h-61l17 83h336c45 0 60 -19 52 -64l-71 -361h17c43 0 57 -20 49 -63l-27 -138h-89l19 98c2 14 -3 22 -17 22h-347c-13 -1 -22 -8 -25 -22l-18 -98h-90zM138 81h222l63 320c3 15 -4 22 -18 22h-129l-5 -28
c-14 -69 -49 -220 -133 -314z" />
    <glyph glyph-name="uni0435" unicode="&#x435;" horiz-adv-x="538" 
d="M21 203c0 169 125 315 295 315c130 0 192 -78 192 -187c0 -43 -15 -90 -15 -90h-369s-4 -17 -4 -36c0 -76 51 -133 144 -133c87 0 161 58 161 58l28 -75s-85 -67 -195 -67c-148 0 -237 90 -237 215zM139 310h269s3 15 3 29c0 67 -41 102 -98 102
c-74 0 -144 -48 -174 -131z" />
    <glyph glyph-name="uni0436" unicode="&#x436;" horiz-adv-x="746" 
d="M-41 0l161 208c33 42 65 49 65 49l1 2s-18 7 -28 40l-31 104c-5 17 -17 20 -42 20h-29l16 83h58c47 0 63 -7 76 -47l39 -131c8 -27 34 -29 53 -29h33l40 207h93l-40 -207h29c19 0 41 2 60 29l90 131c29 40 52 47 99 47h60l-16 -83h-25c-25 0 -37 -3 -49 -20l-71 -104
c-22 -33 -50 -40 -50 -40v-2c-1 0 25 -7 41 -49l81 -208h-101l-66 176c-13 35 -37 40 -64 40h-34l-42 -216h-94l43 216h-31c-28 0 -51 -5 -77 -40l-135 -176h-113z" />
    <glyph glyph-name="uni0437" unicode="&#x437;" horiz-adv-x="439" 
d="M-20 62l49 61c11 -13 55 -56 127 -56c61 0 123 33 123 101c0 38 -30 58 -90 58h-64l13 68h51c67 0 119 32 119 94c0 39 -34 56 -79 56c-36 0 -86 -13 -91 -48l-4 -23h-81l8 47c13 68 95 98 177 98c102 0 167 -42 167 -119c0 -76 -53 -121 -101 -135v-2
c38 -12 71 -43 71 -99c0 -115 -113 -175 -217 -175c-99 0 -153 46 -178 74z" />
    <glyph glyph-name="uni0438" unicode="&#x438;" horiz-adv-x="619" 
d="M27 0l76 387c1 7 3 17 3 21c0 10 -7 15 -18 15h-40l16 83h90c36 0 53 -12 53 -41c0 -7 -1 -14 -3 -22l-46 -235c-5 -27 -15 -63 -16 -68h2c5 8 38 47 60 70l276 296h95l-75 -384c-2 -9 -4 -20 -4 -24c0 -10 6 -15 18 -15h40l-16 -83h-90c-37 0 -53 13 -53 42
c0 6 1 14 2 21l45 236c5 24 15 60 17 67h-2c-6 -8 -38 -47 -60 -69l-274 -297h-96z" />
    <glyph glyph-name="uni0439" unicode="&#x439;" horiz-adv-x="619" 
d="M27 0l76 387c1 7 3 17 3 21c0 10 -7 15 -18 15h-40l16 83h90c36 0 53 -12 53 -41c0 -7 -1 -14 -3 -22l-46 -235c-5 -27 -15 -63 -16 -68h2c5 8 38 47 60 70l276 296h95l-75 -384c-2 -9 -4 -20 -4 -24c0 -10 6 -15 18 -15h40l-16 -83h-90c-37 0 -53 13 -53 42
c0 6 1 14 2 21l45 236c5 24 15 60 17 67h-2c-6 -8 -38 -47 -60 -69l-274 -297h-96zM374 564c-75 0 -133 43 -133 105c0 7 0 16 5 38h79c-5 -13 -5 -22 -5 -27c0 -33 24 -53 59 -53c38 0 78 20 86 80h77c-16 -108 -94 -143 -168 -143z" />
    <glyph glyph-name="uni043A" unicode="&#x43a;" horiz-adv-x="533" 
d="M28 0l75 388c1 6 3 16 3 20c0 10 -6 15 -18 15h-40l15 83h94c39 0 56 -13 56 -44c0 -7 -1 -16 -3 -24l-25 -131h43c19 0 37 4 53 23l154 176h114l-178 -203c-28 -31 -46 -38 -46 -38v-2s16 -7 29 -38l50 -122c6 -16 15 -20 41 -20h30l-16 -83h-68c-47 0 -59 8 -73 47
l-60 157c-7 18 -25 20 -46 20h-43l-44 -224h-97z" />
    <glyph glyph-name="uni043B" unicode="&#x43b;" horiz-adv-x="545" 
d="M-44 -3l16 86c25 2 50 17 73 43c53 60 89 176 105 258l7 39h-63l16 83h326c38 0 55 -13 55 -42c0 -7 -1 -14 -2 -22l-65 -330c-1 -6 -2 -11 -2 -13c0 -11 7 -16 19 -16h41l-16 -83h-96c-37 0 -54 13 -54 43c0 6 1 13 3 21l63 330c1 5 3 11 3 13c0 11 -7 16 -19 16h-116
l-8 -40c-17 -87 -60 -247 -147 -330c-38 -35 -84 -56 -139 -56z" />
    <glyph glyph-name="uni043C" unicode="&#x43c;" horiz-adv-x="727" 
d="M-39 0l16 83h25c13 0 19 7 23 19l114 404h101l76 -290c7 -30 13 -64 13 -64h2s20 34 39 64l187 290h112l-43 -388c-1 -12 -1 -19 -1 -21c0 -9 4 -14 15 -14h26l-17 -83h-74c-34 0 -45 13 -45 37c0 6 1 16 2 24l27 233c3 31 15 92 15 92h-2s-20 -39 -46 -78l-166 -247h-87
l-71 247c-10 37 -13 80 -13 80h-2s-10 -63 -18 -94l-66 -239c-10 -36 -25 -55 -66 -55h-76z" />
    <glyph glyph-name="uni043D" unicode="&#x43d;" horiz-adv-x="620" 
d="M28 0l74 383c2 9 5 22 5 25c0 10 -7 15 -19 15h-41l16 83h96c37 0 54 -13 54 -42c0 -6 -1 -14 -3 -22l-27 -143h256l40 207h97l-75 -383c-2 -11 -4 -23 -4 -26c0 -9 6 -14 18 -14h41l-16 -83h-96c-37 0 -54 13 -54 42c0 7 1 16 3 25l30 151h-256l-43 -218h-96z" />
    <glyph glyph-name="uni043E" unicode="&#x43e;" horiz-adv-x="611" 
d="M20 211c0 174 154 307 320 307c138 0 234 -90 234 -221c0 -176 -156 -309 -320 -309c-137 0 -234 90 -234 223zM119 215c0 -85 59 -143 144 -143c104 0 212 94 212 220c0 84 -58 142 -142 142c-107 0 -214 -95 -214 -219z" />
    <glyph glyph-name="uni043F" unicode="&#x43f;" horiz-adv-x="608" 
d="M28 0l82 423h-63l16 83h437c37 0 54 -13 54 -42c0 -6 -1 -14 -3 -22l-62 -322c-2 -10 -4 -20 -4 -22c0 -10 7 -15 19 -15h40l-16 -83h-95c-38 0 -54 13 -54 42c0 7 1 16 3 25l63 323c1 8 3 15 3 17c0 10 -7 16 -19 16h-222l-83 -423h-96z" />
    <glyph glyph-name="uni0440" unicode="&#x440;" horiz-adv-x="603" 
d="M-11 -200l113 583c2 11 3 18 3 25c0 10 -4 15 -17 15h-41l16 83h91c39 0 52 -16 52 -37c0 -13 -5 -34 -10 -48h2c35 52 95 97 179 97c119 0 188 -79 188 -212c0 -185 -136 -318 -276 -318c-66 0 -124 30 -150 88h-2s-2 -21 -7 -47l-45 -229h-96zM166 204
c0 -73 36 -132 111 -132c90 0 189 87 189 227c0 87 -43 134 -114 134c-104 0 -186 -114 -186 -229z" />
    <glyph glyph-name="uni0441" unicode="&#x441;" horiz-adv-x="525" 
d="M21 212c0 167 139 306 306 306c71 0 198 -27 180 -119l-8 -44h-86l4 21c7 41 -52 59 -97 59c-105 0 -200 -97 -200 -214c0 -84 48 -147 147 -147c102 0 163 61 163 61l28 -77s-68 -70 -201 -70c-151 0 -236 94 -236 224z" />
    <glyph glyph-name="uni0442" unicode="&#x442;" horiz-adv-x="529" 
d="M159 0l82 423h-97c-15 0 -24 -8 -27 -22l-6 -34h-81l14 77c9 45 32 62 78 62h368c37 0 54 -12 54 -41c0 -5 -1 -14 -3 -21l-14 -77h-81l4 23c1 5 3 15 3 18c0 9 -6 15 -18 15h-97l-82 -423h-97z" />
    <glyph glyph-name="uni0443" unicode="&#x443;" horiz-adv-x="543" 
d="M32 -210c-69 0 -112 50 -112 50l41 69c2 -2 29 -36 74 -36c40 0 73 29 100 74l36 57l-95 399c-4 16 -10 20 -27 20h-12l16 83h65c32 0 43 -17 50 -51l59 -285c5 -26 6 -61 6 -61h2s15 35 29 61l161 285c23 40 43 51 84 51h62l-17 -83h-12c-16 0 -27 -4 -36 -20l-297 -497
c-47 -78 -109 -116 -177 -116z" />
    <glyph glyph-name="uni0444" unicode="&#x444;" horiz-adv-x="735" 
d="M22 211c0 173 142 294 338 295l17 86c1 7 2 14 2 16c0 10 -6 15 -18 15h-41l16 83h95c38 0 55 -13 55 -42c0 -7 -1 -14 -2 -22l-27 -136c139 -1 239 -82 239 -209c0 -173 -140 -296 -337 -297l-39 -200h-97l38 200c-142 1 -239 83 -239 211zM374 81c116 2 223 83 223 212
c0 81 -57 133 -156 133zM121 215c0 -81 56 -134 156 -134l67 345c-117 -3 -223 -83 -223 -211z" />
    <glyph glyph-name="uni0445" unicode="&#x445;" horiz-adv-x="504" 
d="M-37 0l226 265l-73 139c-8 16 -21 19 -40 19h-29l17 83h62c39 0 54 -13 73 -53l46 -95c5 -12 11 -31 11 -31h2s12 19 22 31l77 95c34 42 47 53 94 53h72l-16 -83h-29c-20 0 -34 -2 -47 -18l-129 -149l124 -256h-102l-80 164c-5 13 -11 28 -11 28h-2s-8 -14 -19 -28
l-137 -164h-112z" />
    <glyph glyph-name="uni0446" unicode="&#x446;" horiz-adv-x="605" 
d="M36 41c0 7 1 13 3 22l62 320c3 13 4 22 4 24c0 11 -6 16 -18 16h-41l16 83h96c36 0 54 -12 54 -42c0 -7 -1 -14 -3 -22l-62 -318c-2 -12 -4 -20 -4 -27c0 -11 6 -16 17 -16h216l83 425h97l-83 -425h16c36 0 52 -14 52 -41c0 -6 -1 -14 -3 -22l-26 -138h-90l17 85
c1 8 3 16 3 20c0 9 -6 15 -17 15h-335c-37 0 -54 12 -54 41z" />
    <glyph glyph-name="uni0447" unicode="&#x447;" horiz-adv-x="537" 
d="M37 423l16 83h91c39 0 53 -16 53 -42c0 -7 -1 -14 -2 -23l-17 -86c-3 -11 -4 -22 -4 -32c0 -36 18 -63 81 -63c51 0 95 21 120 36l41 210h97l-99 -506h-97l36 181c2 14 8 32 8 32h-2c-38 -19 -91 -35 -142 -35c-95 0 -144 46 -144 115c0 11 1 22 4 35l12 62
c1 8 3 16 3 18c0 11 -6 15 -19 15h-36z" />
    <glyph glyph-name="uni0448" unicode="&#x448;" horiz-adv-x="828" 
d="M36 42c0 6 1 13 3 21l61 321c2 11 5 22 5 24c0 10 -7 15 -19 15h-40l16 83h95c37 0 54 -13 54 -42c0 -6 -1 -14 -2 -22l-62 -321c-2 -12 -5 -21 -5 -25c0 -9 7 -15 18 -15h163l83 425h96l-83 -425h166c13 0 23 8 26 22l65 339c9 45 32 64 77 64h95l-16 -83h-41
c-14 0 -24 -7 -27 -22l-64 -338c-10 -44 -32 -63 -77 -63h-533c-38 0 -54 13 -54 42z" />
    <glyph glyph-name="uni0449" unicode="&#x449;" horiz-adv-x="838" 
d="M36 42c0 6 1 13 3 21l61 321c2 11 5 22 5 24c0 10 -7 15 -19 15h-40l16 83h95c37 0 54 -13 54 -42c0 -6 -1 -14 -2 -22l-62 -321c-3 -12 -5 -21 -5 -25c0 -9 7 -15 18 -15h163l83 425h96l-83 -425h187l82 425h98l-83 -425h21c36 0 52 -14 52 -40c0 -6 -1 -13 -3 -20
l-27 -141h-89l16 83c2 10 4 20 4 23c0 8 -7 14 -19 14h-568c-38 0 -54 13 -54 42z" />
    <glyph glyph-name="uni044A" unicode="&#x44a;" horiz-adv-x="596" 
d="M141 36c0 6 1 12 2 19l65 335c2 12 4 20 4 22c0 10 -7 16 -19 16h-54c-15 0 -22 -7 -25 -22l-7 -38h-78l14 76c10 46 32 62 77 62h145c37 0 53 -15 53 -41c0 -6 -1 -15 -2 -21l-24 -122h101c106 0 159 -54 159 -130c0 -119 -92 -192 -208 -192h-156c-33 0 -47 11 -47 36z
M262 70h76c70 0 115 48 115 115c0 39 -24 67 -79 67h-95l-29 -147c-2 -12 -4 -19 -4 -21c0 -9 6 -14 16 -14z" />
    <glyph glyph-name="uni044B" unicode="&#x44b;" horiz-adv-x="726" 
d="M498 64l86 442h97l-78 -401c-3 -15 3 -22 17 -22h41l-16 -83h-96c-44 0 -60 19 -51 64zM36 36c0 6 0 12 2 19l63 331c3 11 5 20 5 22c0 10 -7 15 -19 15h-41l16 83h96c38 0 55 -15 55 -41c0 -6 -2 -15 -3 -21l-24 -122h96c108 0 161 -54 161 -130
c0 -119 -93 -192 -209 -192h-152c-32 0 -46 11 -46 36zM156 70h73c69 0 115 48 115 115c0 39 -25 67 -80 67h-91l-29 -147c-2 -12 -4 -19 -4 -21c0 -9 6 -14 16 -14z" />
    <glyph glyph-name="uni044C" unicode="&#x44c;" horiz-adv-x="490" 
d="M38 55l63 331c3 11 5 20 5 22c0 10 -7 15 -19 15h-41l16 83h96c38 0 55 -15 55 -41c0 -6 -2 -15 -3 -21l-24 -122h100c107 0 160 -54 160 -130c0 -119 -92 -192 -208 -192h-156c-32 0 -46 11 -46 36c0 6 0 12 2 19zM156 70h76c70 0 116 48 116 115c0 39 -25 67 -80 67
h-95l-29 -147c-2 -12 -4 -19 -4 -21c0 -9 6 -14 16 -14z" />
    <glyph glyph-name="uni044D" unicode="&#x44d;" horiz-adv-x="529" 
d="M-17 65l43 66c32 -39 90 -64 150 -64c97 0 179 66 209 151h-237l13 68h238c5 95 -58 153 -145 153c-46 0 -110 -19 -117 -54l-4 -24h-83l8 42c13 71 103 115 203 115c143 0 231 -96 231 -225c0 -159 -135 -305 -313 -305c-69 0 -151 24 -196 77z" />
    <glyph glyph-name="uni044E" unicode="&#x44e;" horiz-adv-x="831" 
d="M259 213v4h-92l-43 -217h-97l75 387c2 11 4 18 4 21c0 10 -7 15 -19 15h-40l16 83h96c37 0 53 -13 53 -42c0 -6 -1 -14 -2 -22l-29 -148h89c37 131 161 224 297 224c132 0 226 -90 226 -223c0 -173 -149 -307 -310 -307c-131 0 -224 89 -224 225zM358 217
c0 -88 55 -145 133 -145c103 0 203 96 203 218c0 87 -56 144 -135 144c-103 0 -201 -96 -201 -217z" />
    <glyph glyph-name="uni044F" unicode="&#x44f;" horiz-adv-x="525" 
d="M-32 0l16 84h15c22 0 33 3 47 19l69 79c11 13 18 18 31 26l1 2c-49 12 -83 57 -83 118c0 111 91 178 197 178h284l-16 -83h-63l-82 -423h-97l36 184h-57c-27 0 -34 -6 -60 -34l-87 -103c-36 -41 -54 -47 -101 -47h-50zM250 254h86l36 185h-92c-69 0 -118 -47 -118 -111
c0 -46 33 -74 88 -74z" />
    <glyph glyph-name="uni0409" unicode="&#x409;" horiz-adv-x="933" 
d="M539 84h106c88 0 155 60 155 153c0 58 -42 94 -111 94h-124l-41 -209c-2 -10 -4 -20 -4 -23c0 -9 7 -15 19 -15zM-46 -7l17 92c120 18 188 163 241 438l20 97h-66l16 86h391c38 0 55 -13 55 -42c0 -7 -1 -14 -3 -22l-44 -227h113c103 0 208 -50 208 -175
c0 -153 -121 -240 -268 -240h-170c-37 0 -53 13 -53 42c0 7 0 14 2 22l101 517c2 12 4 22 4 25c0 9 -7 14 -19 14h-168l-20 -97c-59 -307 -139 -517 -357 -530z" />
    <glyph glyph-name="uni040A" unicode="&#x40a;" horiz-adv-x="1002" 
d="M41 0l112 577c3 14 5 24 5 27c0 11 -6 16 -18 16h-43l17 86h101c36 0 54 -12 54 -41c0 -7 -1 -16 -3 -23l-45 -227h328l58 291h100l-58 -291h122c105 0 201 -53 201 -175c0 -150 -126 -240 -273 -240h-166c-38 0 -54 13 -54 46c0 4 1 9 3 18l51 267h-328l-64 -331h-100z
M607 84h109c87 0 155 70 155 149c0 61 -39 98 -111 98h-127l-39 -204c-2 -10 -5 -23 -5 -27c0 -10 6 -16 18 -16z" />
    <glyph glyph-name="uni040B" unicode="&#x40b;" horiz-adv-x="774" 
d="M60 553l18 93c9 46 28 60 72 60h485l-15 -82h-229l-40 -203l-8 -32h2c36 19 104 45 178 45c122 0 177 -60 177 -149c0 -18 -2 -37 -5 -57l-20 -101c-4 -19 -5 -26 -5 -28c0 -9 6 -13 19 -13h43l-17 -86h-101c-37 0 -53 13 -53 43c0 6 0 13 2 21l28 143c3 17 5 32 5 46
c0 60 -31 91 -101 91c-71 0 -139 -30 -168 -50l-58 -294h-100l122 624h-112c-13 0 -23 -6 -26 -22l-10 -49h-83z" />
    <glyph glyph-name="uni04BA" unicode="&#x4ba;" horiz-adv-x="650" 
d="M41 0l112 578c3 12 5 24 5 26c0 11 -6 16 -18 16h-43l17 86h101c36 0 54 -12 54 -42c0 -7 -1 -14 -3 -22l-37 -193c-3 -14 -8 -33 -8 -33h2c36 18 104 42 181 42c121 0 173 -63 173 -153c0 -17 -1 -35 -5 -53l-24 -126c-2 -12 -4 -22 -4 -24c0 -10 5 -16 18 -16h43
l-17 -86h-101c-37 0 -54 13 -54 43c0 6 1 13 3 21l32 167c4 17 5 33 5 47c0 59 -31 90 -103 90c-67 0 -133 -26 -167 -48l-62 -320h-100z" />
    <glyph glyph-name="uni048C" unicode="&#x48c;" horiz-adv-x="658" 
d="M119 64l98 506h-158l14 77h158l21 103h100l-20 -103h183l-15 -77h-183l-27 -141h128c111 0 211 -56 211 -182c0 -150 -128 -247 -268 -247h-190c-37 0 -54 13 -54 43c0 6 1 13 2 21zM245 84h119c88 0 162 65 162 163c0 62 -44 98 -114 98h-138l-46 -235
c-1 -4 -2 -8 -2 -10c0 -10 7 -16 19 -16z" />
    <glyph glyph-name="uni0402" unicode="&#x402;" horiz-adv-x="744" 
d="M169 0l122 624h-112c-15 0 -23 -6 -26 -22l-10 -49h-83l18 93c9 45 27 60 72 60h485l-15 -82h-229l-39 -198c-3 -18 -7 -32 -7 -32h2c20 10 93 39 171 39c133 0 197 -78 197 -182c0 -134 -107 -263 -269 -263c-18 0 -42 1 -50 3l16 83c2 0 21 -2 34 -2
c85 0 169 69 169 169c0 66 -37 104 -120 104c-88 0 -166 -42 -166 -42l-60 -303h-100z" />
    <glyph glyph-name="uni0452" unicode="&#x452;" horiz-adv-x="584" 
d="M10 0l107 553h-62l14 71h62l16 82h97l-16 -82h207l-14 -71h-207l-31 -163c-5 -24 -13 -44 -13 -44h2c27 49 107 115 205 115c91 0 149 -42 149 -134c0 -20 -3 -41 -8 -64l-53 -275c-32 -174 -160 -197 -223 -197c-24 0 -43 3 -43 3l17 83s12 -2 28 -2
c38 0 106 14 126 122l47 245c4 20 7 40 7 57c0 50 -28 73 -75 73c-100 0 -188 -93 -209 -198l-34 -174h-96z" />
    <glyph glyph-name="uni04BB" unicode="&#x4bb;" horiz-adv-x="603" 
d="M9 0l114 585c2 8 4 17 4 23c0 10 -7 15 -19 15h-41l17 83h92c39 0 57 -13 57 -44c0 -8 -2 -19 -4 -30l-36 -185c-5 -24 -10 -44 -10 -44h2c29 43 101 115 207 115c94 0 144 -50 144 -137c0 -18 -3 -40 -7 -62l-39 -205c-1 -5 -3 -13 -3 -16c0 -10 6 -15 18 -15h41
l-16 -83h-93c-38 0 -57 16 -57 46c0 7 1 15 3 23l46 233c3 17 5 34 5 50c0 43 -17 77 -78 77c-102 0 -185 -101 -204 -193l-46 -236h-97z" />
    <glyph glyph-name="uni045B" unicode="&#x45b;" horiz-adv-x="605" 
d="M10 0l107 553h-63l15 71h62l16 82h97l-16 -82h207l-14 -71h-207l-31 -161c-5 -23 -13 -44 -12 -44h2c30 51 105 113 202 113c94 0 151 -41 151 -131c0 -20 -3 -42 -7 -65l-28 -143c-2 -11 -4 -20 -4 -23c0 -11 7 -16 19 -16h40l-16 -83h-95c-38 0 -55 13 -55 43
c0 6 1 13 3 21l35 181c4 19 6 37 6 54c0 50 -29 73 -75 73c-104 0 -189 -92 -209 -198l-34 -174h-96z" />
    <glyph glyph-name="uni0459" unicode="&#x459;" horiz-adv-x="742" 
d="M-47 -5l16 87c27 1 55 15 80 44c54 63 88 181 104 262l7 35h-63l16 83h299c36 0 54 -14 54 -40c0 -6 0 -13 -1 -18l-26 -130h99c104 0 160 -53 160 -133c0 -107 -80 -185 -217 -185h-146c-31 0 -46 11 -46 37c0 6 1 12 2 18l65 332c3 15 4 22 4 24c0 11 -7 16 -19 16h-89
l-6 -36c-17 -90 -57 -243 -135 -328c-40 -42 -91 -68 -158 -68zM410 70h73c71 0 120 45 120 106c0 45 -29 71 -87 71h-91l-27 -139c-3 -15 -4 -22 -4 -24c0 -9 6 -14 16 -14z" />
    <glyph glyph-name="uni045A" unicode="&#x45a;" horiz-adv-x="819" 
d="M28 0l74 380c3 15 5 25 5 28c0 10 -7 15 -19 15h-40l16 83h96c37 0 53 -13 53 -42c0 -6 -1 -14 -2 -22l-25 -128h237l37 192h97l-37 -191h94c106 0 163 -55 163 -132c0 -107 -92 -183 -213 -183h-147c-33 0 -47 11 -47 36c0 6 1 12 2 19l36 182h-237l-46 -237h-97z
M491 70h72c67 0 118 43 118 108c0 40 -28 64 -84 64h-91l-26 -134c-3 -13 -5 -21 -5 -25c0 -9 6 -13 16 -13z" />
    <glyph glyph-name="uni0463" unicode="&#x463;" horiz-adv-x="534" 
d="M80 36c0 5 0 12 2 19l78 404h-121l14 73h121l34 174h97l-34 -174h165l-14 -73h-165l-27 -134h99c106 0 164 -55 164 -137c0 -104 -92 -188 -213 -188h-155c-31 0 -45 11 -45 36zM200 70h75c68 0 120 50 120 115c0 43 -29 70 -84 70h-94l-28 -145c-4 -15 -5 -24 -5 -27
c0 -8 6 -13 16 -13z" />
    <glyph glyph-name="uni048D" unicode="&#x48d;" horiz-adv-x="534" 
d="M80 36c0 5 0 12 2 19l78 404h-121l14 73h121l34 174h97l-34 -174h165l-14 -73h-165l-27 -134h99c106 0 164 -55 164 -137c0 -104 -92 -188 -213 -188h-155c-31 0 -45 11 -45 36zM200 70h75c68 0 120 50 120 115c0 43 -29 70 -84 70h-94l-28 -145c-4 -15 -5 -24 -5 -27
c0 -8 6 -13 16 -13z" />
    <glyph glyph-name="uni04A4" unicode="&#x4a4;" horiz-adv-x="942" 
d="M41 0l112 578c3 15 5 24 5 26c0 11 -6 16 -18 16h-43l17 86h101c36 0 54 -12 54 -42c0 -7 -1 -14 -3 -22l-48 -246h336l44 224h-65l17 86h397c36 0 52 -11 52 -39c0 -6 -1 -14 -3 -23l-17 -91h-91l5 30c2 13 3 19 3 22c0 10 -6 15 -18 15h-180l-121 -620h-100l61 310
h-337l-60 -310h-100z" />
    <glyph glyph-name="uni04A0" unicode="&#x4a0;" horiz-adv-x="758" 
d="M62 553l18 94c8 45 28 59 74 59h336l-17 -86h-65l-41 -211h67c29 0 45 7 58 24l210 273h116l-227 -293c-26 -33 -48 -46 -48 -46v-2s16 -13 25 -44l65 -211c6 -17 17 -24 38 -24h31l-16 -86h-66c-43 0 -64 16 -76 53l-75 245c-6 21 -24 25 -54 25h-65l-63 -323h-100
l120 620h-119c-14 0 -23 -7 -26 -22l-9 -45h-91z" />
    <glyph glyph-name="uni04B4" unicode="&#x4b4;" horiz-adv-x="915" 
d="M199 64l108 556h-124c-14 0 -23 -7 -26 -22l-8 -45h-90l18 93c9 45 27 60 72 60h447c36 0 51 -9 51 -37c0 -6 -1 -15 -3 -23l-17 -93h-86l6 29c3 14 4 21 4 23c0 10 -7 15 -19 15h-125l-97 -499c-2 -8 -3 -16 -3 -19c0 -10 7 -16 19 -16h336l121 620h100l-121 -620h24
c37 0 53 -12 53 -40c0 -7 -1 -14 -2 -23l-32 -163h-90l20 100c2 12 4 22 4 24c0 10 -6 16 -17 16h-471c-37 0 -54 13 -54 43c0 6 0 13 2 21z" />
    <glyph glyph-name="uni0495" unicode="&#x495;" horiz-adv-x="506" 
d="M28 0l82 423h-62l15 83h349c34 0 50 -9 50 -36c0 -7 -1 -13 -2 -21l-16 -82h-81l4 24c2 9 4 17 4 20c0 8 -6 12 -16 12h-148l-35 -177c33 15 72 25 109 25c115 0 161 -72 161 -162c0 -132 -77 -249 -207 -316l-39 73c78 42 150 128 150 233c0 50 -23 91 -93 91
c-42 0 -76 -16 -97 -27l-32 -163h-96z" />
    <glyph glyph-name="uni04C8" unicode="&#x4c8;" horiz-adv-x="619" 
d="M28 0l74 380c3 18 4 24 4 27c0 11 -6 16 -18 16h-41l16 83h96c37 0 54 -13 54 -42c0 -7 -1 -14 -3 -22l-27 -142h257l27 142c9 45 32 64 77 64h95l-15 -83h-41c-15 0 -23 -7 -26 -22l-70 -353c-28 -150 -100 -204 -195 -255l-44 73c66 33 121 75 142 181l33 170h-257
l-42 -217h-96z" />
    <glyph glyph-name="uni04C4" unicode="&#x4c4;" horiz-adv-x="532" 
d="M28 0l74 382c2 13 4 22 4 25c0 11 -6 16 -18 16h-41l16 83h96c37 0 55 -14 55 -42c0 -5 -2 -14 -3 -20l-28 -143h32c20 0 38 3 61 30l149 175h117l-166 -193c-24 -29 -42 -37 -42 -37v-2c87 -25 120 -100 120 -173c0 -162 -118 -267 -200 -308l-46 74
c71 34 152 115 152 230c0 77 -52 120 -144 120h-49l-43 -217h-96z" />
    <glyph glyph-name="uni04A1" unicode="&#x4a1;" horiz-adv-x="639" 
d="M133 0l77 393c2 9 4 20 4 22c0 8 -5 13 -16 13h-60c-13 0 -20 -8 -23 -20l-7 -40h-79l16 83c9 45 30 55 75 55h145c37 0 55 -9 55 -37c0 -6 -1 -14 -2 -21l-27 -141h43c19 0 36 4 52 23l155 176h114l-179 -203c-28 -31 -45 -38 -45 -38v-2s16 -7 28 -38l50 -122
c7 -16 16 -20 41 -20h31l-17 -83h-67c-47 0 -59 8 -74 47l-59 157c-7 18 -26 20 -46 20h-44l-43 -224h-98z" />
    <glyph glyph-name="uni04A5" unicode="&#x4a5;" horiz-adv-x="758" 
d="M28 0l74 384c3 11 5 20 5 24c0 10 -7 15 -19 15h-40l16 83h96c37 0 53 -13 53 -42c0 -6 -1 -14 -2 -22l-30 -153h233l27 139h-62l15 78h323c37 0 55 -7 55 -35c0 -6 0 -13 -2 -20l-15 -80h-81l5 25c2 9 2 16 2 19c0 7 -4 13 -14 13h-129l-84 -428h-96l40 208h-232
l-41 -208h-97z" />
    <glyph glyph-name="uni04B5" unicode="&#x4b5;" horiz-adv-x="745" 
d="M148 69l70 358h-90c-13 0 -20 -7 -22 -20l-6 -36h-69l15 79c8 45 30 56 75 56h318c38 0 55 -8 55 -36c0 -6 -1 -13 -2 -20l-14 -79h-69l5 25c2 8 3 14 3 17c0 9 -6 14 -16 14h-86l-60 -303c-3 -14 -5 -25 -5 -27c0 -11 7 -16 18 -16h245l83 425h97l-83 -425h15
c36 0 51 -14 51 -41c0 -6 -1 -14 -2 -22l-27 -138h-89l15 81c3 11 4 20 4 23c0 10 -5 16 -16 16h-363c-37 0 -53 12 -53 41c0 8 1 18 3 28z" />
    <glyph glyph-name="uni0401" unicode="&#x401;" horiz-adv-x="571" 
d="M440 781l20 101h74l-20 -101h-74zM276 781l20 101h73l-20 -101h-73zM52 45c0 10 2 22 5 37l105 538h-65l17 86h409c44 0 59 -18 59 -45c0 -10 -2 -23 -5 -36l-14 -72h-91l6 28c2 11 3 18 3 24c0 10 -7 15 -20 15h-199l-43 -221h247l-17 -86h-247l-37 -189
c-2 -9 -3 -18 -3 -23c0 -10 5 -15 18 -15h206c14 0 24 8 27 22l9 45h91l-18 -91c-8 -46 -31 -62 -73 -62h-312c-41 0 -58 17 -58 45z" />
    <glyph glyph-name="uni0407" unicode="&#x407;" horiz-adv-x="315" 
d="M297 781l20 101h73l-19 -101h-74zM133 781l19 101h74l-20 -101h-73zM-16 0l17 86h67l104 534h-68l17 86h232l-16 -86h-69l-104 -534h69l-17 -86h-232z" />
    <glyph glyph-name="uni04D2" unicode="&#x4d2;" horiz-adv-x="664" 
d="M-46 0l17 86h18c16 0 24 4 33 22l338 598h105l105 -600c3 -16 8 -20 24 -20h18l-17 -86h-60c-43 0 -56 12 -63 58l-25 145h-259l-82 -145c-25 -46 -41 -58 -84 -58h-68zM228 287h211l-36 216c-5 35 -8 98 -8 98h-2s-27 -63 -47 -98zM472 781l20 101h74l-20 -101h-74z
M308 781l20 101h73l-20 -101h-73z" />
    <glyph glyph-name="uni04DA" unicode="&#x4da;" horiz-adv-x="696" 
d="M476 781l20 101h74l-20 -101h-74zM312 781l20 101h73l-20 -101h-73zM34 241c0 42 8 90 23 148h513c2 16 4 31 4 44c0 116 -69 195 -195 195c-114 0 -210 -66 -226 -78l-43 77c9 7 122 91 278 91c185 0 288 -120 288 -294c0 -202 -139 -436 -384 -436
c-151 0 -258 89 -258 253zM131 236c0 -101 54 -159 161 -159c137 0 233 95 262 233h-415c-6 -27 -8 -53 -8 -74z" />
    <glyph glyph-name="uni04DC" unicode="&#x4dc;" horiz-adv-x="887" 
d="M-49 0l250 324c28 35 54 47 54 47v2s-18 6 -32 43l-66 181c-7 20 -21 23 -46 23h-17l17 86h44c55 0 68 -8 84 -53l79 -218c9 -25 27 -28 55 -28h45l58 299h96l-58 -299h35c28 0 50 3 69 28l159 218c33 45 54 53 109 53h51l-16 -86h-16c-24 0 -39 -3 -54 -23l-138 -185
c-26 -37 -53 -46 -53 -46v-2s22 -11 35 -46l125 -318h-104l-114 297c-10 26 -27 29 -52 29h-52l-64 -326h-96l64 326h-46c-26 0 -43 -3 -63 -29l-227 -297h-115zM585 781l20 101h74l-20 -101h-74zM421 781l20 101h73l-20 -101h-73z" />
    <glyph glyph-name="uni04DE" unicode="&#x4de;" horiz-adv-x="530" 
d="M395 781l20 101h74l-20 -101h-74zM231 781l20 101h73l-20 -101h-73zM-15 82l61 67c30 -39 83 -72 153 -72c93 0 175 58 175 145c0 65 -47 95 -115 95h-94l16 82h78c73 0 152 54 152 135c0 54 -32 96 -108 96c-62 0 -114 -31 -122 -68l-5 -29h-92l11 55
c18 99 141 130 224 130c112 0 196 -60 196 -167c0 -91 -58 -156 -136 -185v-2c55 -20 96 -66 96 -140c0 -141 -131 -236 -272 -236c-82 0 -169 31 -218 94z" />
    <glyph glyph-name="uni04E4" unicode="&#x4e4;" horiz-adv-x="763" 
d="M521 781l20 101h74l-20 -101h-74zM357 781l20 101h73l-20 -101h-73zM41 0l116 598c3 15 -3 22 -17 22h-43l17 86h101c45 0 60 -19 51 -64l-76 -387c-7 -40 -25 -101 -25 -101h2s44 65 76 102l396 450h105l-117 -598c-2 -14 4 -22 18 -22h43l-17 -86h-100
c-45 0 -61 19 -52 64l75 388c8 39 27 103 27 103h-2s-42 -65 -74 -103l-399 -452h-105z" />
    <glyph glyph-name="uni04E6" unicode="&#x4e6;" horiz-adv-x="795" 
d="M534 781l20 101h74l-20 -101h-74zM370 781l20 101h73l-20 -101h-73zM40 296c0 228 206 422 431 422c182 0 307 -125 307 -301c0 -232 -208 -429 -431 -429c-182 0 -307 129 -307 308zM144 300c0 -128 87 -218 212 -218c158 0 318 150 318 329c0 127 -87 214 -211 214
c-161 0 -319 -146 -319 -325z" />
    <glyph glyph-name="uni04EA" unicode="&#x4ea;" horiz-adv-x="795" 
d="M40 296c0 228 206 422 431 422c182 0 307 -125 307 -301c0 -232 -208 -429 -431 -429c-182 0 -307 129 -307 308zM144 300c0 -128 87 -218 212 -218c129 0 260 100 303 235h-515v-17zM463 625c-131 0 -260 -97 -304 -229h514c0 5 1 10 1 15c0 127 -87 214 -211 214z
M537 781l20 101h74l-20 -101h-74zM373 781l20 101h73l-20 -101h-73z" />
    <glyph glyph-name="uni04EC" unicode="&#x4ec;" horiz-adv-x="697" 
d="M458 781l20 101h74l-20 -101h-74zM294 781l20 101h73l-20 -101h-73zM-7 97l57 67c41 -51 123 -86 206 -86c138 0 264 100 303 233h-368l15 82h371c11 129 -62 235 -208 235c-72 0 -182 -29 -193 -88l-8 -39h-92l13 64c20 99 161 153 283 153c194 0 307 -135 307 -306
c0 -233 -195 -424 -424 -424c-98 0 -200 35 -262 109z" />
    <glyph glyph-name="uni04F0" unicode="&#x4f0;" horiz-adv-x="612" 
d="M437 781l20 101h74l-20 -101h-74zM273 781l20 101h73l-20 -101h-73zM20 38l54 72c18 -17 43 -33 74 -33c43 0 68 30 96 78l-131 443c-5 16 -12 22 -29 22h-21l17 86h48c47 0 59 -13 71 -58l86 -305c11 -39 21 -88 21 -88h2s18 39 45 88l170 305c26 47 43 58 93 58h61
l-17 -86h-16c-18 0 -27 -4 -37 -21l-280 -486c-39 -68 -91 -125 -174 -125c-49 0 -102 21 -133 50z" />
    <glyph glyph-name="uni04F4" unicode="&#x4f4;" horiz-adv-x="646" 
d="M103 421c0 18 2 37 6 58l21 107c1 7 2 14 2 18c0 11 -5 16 -18 16h-43l17 86h101c36 0 53 -12 53 -42c0 -7 -1 -14 -2 -22l-28 -144c-3 -16 -4 -31 -4 -43c0 -62 35 -94 117 -94c63 0 128 32 162 53l57 292h100l-139 -706h-100l56 284c3 14 8 33 8 33h-2
c-39 -21 -107 -46 -179 -46c-126 0 -185 54 -185 150zM442 781l20 101h74l-20 -101h-74zM278 781l20 101h73l-20 -101h-73z" />
    <glyph glyph-name="uni04F8" unicode="&#x4f8;" horiz-adv-x="856" 
d="M556 781l20 101h74l-20 -101h-74zM392 781l20 101h73l-20 -101h-73zM613 64l125 642h100l-115 -587c-2 -9 -3 -14 -3 -18c0 -9 6 -15 18 -15h43l-17 -86h-100c-37 0 -54 13 -54 43c0 6 1 13 3 21zM54 64l99 514c3 13 5 25 5 28c0 9 -7 14 -19 14h-43l18 86h100
c37 0 54 -12 54 -42c0 -7 -1 -14 -3 -22l-39 -202h130c111 0 194 -57 194 -181c0 -157 -125 -259 -278 -259h-167c-38 0 -54 13 -54 43c0 6 1 14 3 21zM179 86h109c85 0 159 63 159 167c0 66 -39 101 -106 101h-131l-44 -228c-2 -9 -5 -21 -5 -24c0 -10 6 -16 18 -16z" />
    <glyph glyph-name="uni0451" unicode="&#x451;" horiz-adv-x="540" 
d="M386 606l20 101h74l-20 -101h-74zM222 606l20 101h73l-20 -101h-73zM21 203c0 169 125 315 295 315c130 0 192 -78 192 -187c0 -43 -15 -90 -15 -90h-369s-4 -17 -4 -36c0 -76 51 -133 144 -133c87 0 161 58 161 58l28 -75s-85 -67 -195 -67c-148 0 -237 90 -237 215z
M139 310h269s3 15 3 29c0 67 -41 102 -98 102c-74 0 -144 -48 -174 -131z" />
    <glyph glyph-name="uni0457" unicode="&#x457;" horiz-adv-x="265" 
d="M38 46c0 7 0 14 3 25l61 315c2 10 3 15 3 22c0 10 -6 15 -18 15h-41l16 83h93c38 0 56 -13 56 -44c0 -9 -2 -20 -4 -31l-61 -317c-1 -5 -3 -13 -3 -16c0 -10 6 -15 19 -15h40l-15 -83h-93c-38 0 -56 16 -56 46zM215 605l20 101h74l-21 -101h-73zM75 605l21 101h73
l-20 -101h-74z" />
    <glyph glyph-name="uni04D3" unicode="&#x4d3;" horiz-adv-x="533" 
d="M-3 121c0 147 176 194 339 194h25l2 12c3 14 4 25 4 39c0 50 -30 75 -90 75c-33 0 -90 -7 -95 -39l-5 -29h-92l10 51c14 72 115 94 194 94c122 0 175 -56 175 -143c0 -19 -3 -38 -7 -59l-37 -197c-2 -7 -4 -16 -4 -21c0 -9 6 -15 18 -15h42l-17 -83h-85
c-39 0 -55 17 -55 41c0 11 5 39 10 55h-2c1 0 -60 -108 -183 -108c-79 0 -147 43 -147 133zM95 135c0 -45 31 -72 77 -72c88 0 159 97 172 164l4 18h-25c-85 0 -228 -15 -228 -110zM359 606l20 101h74l-20 -101h-74zM195 606l20 101h73l-20 -101h-73z" />
    <glyph glyph-name="uni04DB" unicode="&#x4db;" horiz-adv-x="542" 
d="M360 606l20 101h74l-20 -101h-74zM196 606l20 101h73l-20 -101h-73zM16 174c0 35 9 73 20 106h367s2 6 2 27c0 76 -54 130 -147 130c-68 0 -136 -33 -162 -55l-29 74c23 19 106 62 200 62c141 0 236 -85 236 -223c0 -159 -123 -307 -295 -307c-128 0 -192 78 -192 186z
M108 170c0 -70 42 -105 102 -105c75 0 155 53 183 145h-280c-3 -11 -5 -25 -5 -40z" />
    <glyph glyph-name="uni04DD" unicode="&#x4dd;" horiz-adv-x="746" 
d="M482 606l20 101h74l-20 -101h-74zM318 606l20 101h73l-20 -101h-73zM-41 0l161 208c33 42 65 49 65 49l1 2s-18 7 -28 40l-31 104c-5 17 -17 20 -42 20h-29l16 83h58c47 0 63 -7 76 -47l39 -131c8 -27 34 -29 53 -29h33l40 207h93l-40 -207h29c19 0 41 2 60 29l90 131
c29 40 52 47 99 47h60l-16 -83h-25c-25 0 -37 -3 -49 -20l-71 -104c-22 -33 -50 -40 -50 -40v-2c-1 0 25 -7 41 -49l81 -208h-101l-66 176c-13 35 -37 40 -64 40h-34l-42 -216h-94l43 216h-31c-28 0 -51 -5 -77 -40l-135 -176h-113z" />
    <glyph glyph-name="uni04DF" unicode="&#x4df;" horiz-adv-x="441" 
d="M319 606l20 101h74l-20 -101h-74zM155 606l20 101h73l-20 -101h-73zM-19 62l49 61c11 -13 55 -56 127 -56c61 0 123 33 123 101c0 38 -30 58 -90 58h-64l13 68h51c67 0 119 32 119 94c0 39 -34 56 -79 56c-36 0 -86 -13 -91 -48l-4 -23h-81l8 47c13 68 95 98 177 98
c102 0 167 -42 167 -119c0 -76 -53 -121 -101 -135v-2c38 -12 71 -43 71 -99c0 -115 -113 -175 -217 -175c-99 0 -153 46 -178 74z" />
    <glyph glyph-name="uni04E5" unicode="&#x4e5;" horiz-adv-x="619" 
d="M416 606l20 101h74l-20 -101h-74zM252 606l20 101h73l-20 -101h-73zM27 0l76 387c1 7 3 17 3 21c0 10 -7 15 -18 15h-40l16 83h90c36 0 53 -12 53 -41c0 -7 -1 -14 -3 -22l-46 -235c-5 -27 -15 -63 -16 -68h2c5 8 38 47 60 70l276 296h95l-75 -384c-2 -9 -4 -20 -4 -24
c0 -10 6 -15 18 -15h40l-16 -83h-90c-37 0 -53 13 -53 42c0 6 1 14 2 21l45 236c5 24 15 60 17 67h-2c-6 -8 -38 -47 -60 -69l-274 -297h-96z" />
    <glyph glyph-name="uni04E7" unicode="&#x4e7;" horiz-adv-x="613" 
d="M411 606l20 101h74l-20 -101h-74zM247 606l20 101h73l-20 -101h-73zM21 211c0 174 154 307 320 307c138 0 234 -90 234 -221c0 -176 -156 -309 -320 -309c-137 0 -234 90 -234 223zM120 215c0 -85 59 -143 144 -143c104 0 212 94 212 220c0 84 -58 142 -142 142
c-107 0 -214 -95 -214 -219z" />
    <glyph glyph-name="uni04EB" unicode="&#x4eb;" horiz-adv-x="613" 
d="M21 211c0 174 154 307 320 307c138 0 234 -90 234 -221c0 -176 -156 -309 -320 -309c-137 0 -234 90 -234 223zM114 215c0 -89 61 -149 150 -149c86 0 178 65 208 159h-358v-10zM334 441c-88 0 -176 -63 -208 -154h357v5c0 88 -61 149 -149 149zM410 585l20 101h74
l-20 -101h-74zM246 585l20 101h73l-20 -101h-73z" />
    <glyph glyph-name="uni04ED" unicode="&#x4ed;" horiz-adv-x="530" 
d="M353 606l20 101h74l-20 -101h-74zM189 606l20 101h73l-20 -101h-73zM-17 65l43 66c32 -39 90 -64 150 -64c97 0 179 66 209 151h-237l13 68h238c5 95 -58 153 -145 153c-46 0 -110 -19 -117 -54l-4 -24h-83l8 42c13 71 103 115 203 115c143 0 231 -96 231 -225
c0 -159 -135 -305 -313 -305c-69 0 -151 24 -196 77z" />
    <glyph glyph-name="uni04F1" unicode="&#x4f1;" horiz-adv-x="543" 
d="M32 -210c-69 0 -112 50 -112 50l41 69c2 -2 29 -36 74 -36c40 0 73 29 100 74l36 57l-95 399c-4 16 -10 20 -27 20h-12l16 83h65c32 0 43 -17 50 -51l59 -285c5 -26 6 -61 6 -61h2s15 35 29 61l161 285c23 40 43 51 84 51h62l-17 -83h-12c-16 0 -27 -4 -36 -20l-297 -497
c-47 -78 -109 -116 -177 -116zM373 606l20 101h74l-20 -101h-74zM209 606l20 101h73l-20 -101h-73z" />
    <glyph glyph-name="uni04F5" unicode="&#x4f5;" horiz-adv-x="537" 
d="M370 606l20 101h74l-20 -101h-74zM206 606l20 101h73l-20 -101h-73zM37 423l16 83h91c39 0 53 -16 53 -42c0 -7 -1 -14 -2 -23l-17 -86c-3 -11 -4 -22 -4 -32c0 -36 18 -63 81 -63c51 0 95 21 120 36l41 210h97l-99 -506h-97l36 181c2 14 8 32 8 32h-2
c-38 -19 -91 -35 -142 -35c-95 0 -144 46 -144 115c0 11 1 22 4 35l12 62c1 8 3 16 3 18c0 11 -6 15 -19 15h-36z" />
    <glyph glyph-name="uni04F9" unicode="&#x4f9;" horiz-adv-x="726" 
d="M461 606l20 101h74l-20 -101h-74zM297 606l20 101h73l-20 -101h-73zM498 64l86 442h97l-78 -401c-3 -15 3 -22 17 -22h41l-16 -83h-96c-44 0 -60 19 -51 64zM36 36c0 6 0 12 2 19l63 331c3 11 5 20 5 22c0 10 -7 15 -19 15h-41l16 83h96c38 0 55 -15 55 -41
c0 -6 -2 -15 -3 -21l-24 -122h96c108 0 161 -54 161 -130c0 -119 -93 -192 -209 -192h-152c-32 0 -46 11 -46 36zM156 70h73c69 0 115 48 115 115c0 39 -25 67 -80 67h-91l-29 -147c-2 -12 -4 -19 -4 -21c0 -9 6 -14 16 -14z" />
    <glyph glyph-name="uni0472" unicode="&#x472;" horiz-adv-x="795" 
d="M40 296c0 228 206 422 431 422c182 0 307 -125 307 -301c0 -232 -208 -429 -431 -429c-182 0 -307 129 -307 308zM144 300c0 -128 87 -218 212 -218c129 0 260 100 303 235h-515v-17zM463 625c-131 0 -260 -97 -304 -229h514c0 5 1 10 1 15c0 127 -87 214 -211 214z" />
    <glyph glyph-name="uni04E8" unicode="&#x4e8;" horiz-adv-x="795" 
d="M40 296c0 228 206 422 431 422c182 0 307 -125 307 -301c0 -232 -208 -429 -431 -429c-182 0 -307 129 -307 308zM144 300c0 -128 87 -218 212 -218c129 0 260 100 303 235h-515v-17zM463 625c-131 0 -260 -97 -304 -229h514c0 5 1 10 1 15c0 127 -87 214 -211 214z" />
    <glyph glyph-name="uni0473" unicode="&#x473;" horiz-adv-x="611" 
d="M20 211c0 174 154 307 320 307c138 0 234 -90 234 -221c0 -176 -156 -309 -320 -309c-137 0 -234 90 -234 223zM113 215c0 -89 61 -149 150 -149c86 0 178 65 208 159h-358v-10zM333 441c-88 0 -176 -63 -208 -154h357v5c0 88 -61 149 -149 149z" />
    <glyph glyph-name="uni04E9" unicode="&#x4e9;" horiz-adv-x="611" 
d="M20 211c0 174 154 307 320 307c138 0 234 -90 234 -221c0 -176 -156 -309 -320 -309c-137 0 -234 90 -234 223zM113 215c0 -89 61 -149 150 -149c86 0 178 65 208 159h-358v-10zM333 441c-88 0 -176 -63 -208 -154h357v5c0 88 -61 149 -149 149z" />
    <glyph glyph-name="uni0496" unicode="&#x496;" horiz-adv-x="922" 
d="M-49 0l250 324c28 35 54 47 54 47v2s-18 6 -32 43l-66 181c-7 20 -21 23 -46 23h-17l17 86h44c55 0 68 -8 84 -53l79 -218c9 -25 27 -28 55 -28h45l58 299h96l-58 -299h35c28 0 50 3 69 28l159 218c33 45 54 53 109 53h51l-16 -86h-16c-24 0 -39 -3 -54 -23l-138 -185
c-26 -37 -53 -46 -53 -46v-2s22 -11 35 -46l91 -232h39c37 0 53 -12 53 -40c0 -7 -1 -14 -3 -23l-31 -163h-90l19 98c3 14 5 24 5 27c0 9 -5 14 -15 15h-47l-114 297c-10 26 -27 29 -52 29h-52l-64 -326h-96l64 326h-46c-26 0 -43 -3 -63 -29l-227 -297h-115z" />
    <glyph glyph-name="uni049A" unicode="&#x49a;" horiz-adv-x="632" 
d="M41 0l113 579c2 11 4 20 4 25c0 11 -7 16 -20 16h-41l17 86h95c44 0 58 -18 58 -45c0 -10 -1 -23 -4 -36l-42 -216h67c29 0 45 7 58 24l210 273h117l-228 -293c-26 -33 -48 -46 -48 -46v-2s15 -13 25 -44l72 -235h34c37 0 53 -12 53 -40c0 -7 -1 -14 -2 -23l-32 -163h-90
l19 98c3 14 5 24 5 27c0 9 -6 15 -17 15h-49l-92 298c-6 21 -24 25 -54 25h-65l-63 -323h-100z" />
    <glyph glyph-name="uni04B2" unicode="&#x4b2;" horiz-adv-x="626" 
d="M-43 0l294 367l-100 228c-8 19 -21 25 -42 25h-25l17 86h55c45 0 65 -11 83 -54l55 -131c14 -35 30 -82 30 -82h2s29 43 59 82l104 131c32 41 53 54 98 54h68l-17 -86h-24c-20 0 -35 -4 -51 -25l-193 -235l119 -274h39c37 0 53 -12 53 -40c0 -7 -1 -14 -3 -23l-32 -163
h-89l19 98c3 14 5 24 5 27c0 8 -5 14 -14 15h-49l-90 211c-15 34 -30 77 -30 77h-2s-26 -38 -58 -77l-167 -211h-114z" />
    <glyph glyph-name="uni04F6" unicode="&#x4f6;" horiz-adv-x="516" 
d="M450 620h-189l-104 -534h36c37 0 53 -12 53 -40c0 -7 -1 -14 -3 -23l-32 -163h-89l19 98c3 14 5 24 5 27c0 9 -5 14 -15 15h-91l121 620h-65l18 86h400c43 0 56 -18 56 -45c0 -10 -3 -23 -5 -36l-14 -72h-89l5 28c2 10 4 18 4 24c0 10 -8 15 -21 15z" />
    <glyph glyph-name="uni04A2" unicode="&#x4a2;" horiz-adv-x="782" 
d="M41 0l113 579c2 11 4 20 4 26c0 10 -7 15 -20 15h-41l17 86h95c44 0 58 -18 58 -45c0 -10 -1 -23 -4 -36l-46 -229h360l49 249c9 46 31 61 73 61h104l-17 -86h-45c-12 0 -21 -6 -24 -22l-100 -512h35c37 0 53 -12 53 -40c0 -7 -1 -14 -3 -23l-31 -163h-90l19 98
c3 14 5 24 5 27c0 9 -6 15 -17 15h-88l60 310h-359l-60 -310h-100z" />
    <glyph glyph-name="uni04AC" unicode="&#x4ac;" horiz-adv-x="632" 
d="M207 0l121 620h-142c-15 0 -23 -7 -26 -22l-9 -45h-89l18 96c8 43 24 57 67 57h483c44 0 56 -18 56 -45c0 -10 -2 -23 -5 -36l-13 -72h-90l6 28c2 10 4 18 4 24c0 10 -8 15 -21 15h-139l-104 -534h35c37 0 52 -12 52 -40c0 -7 -1 -14 -2 -23l-32 -163h-90l19 98
c3 14 5 24 5 27c0 9 -5 14 -15 15h-89z" />
    <glyph glyph-name="uni04B6" unicode="&#x4b6;" horiz-adv-x="681" 
d="M103 421c0 18 2 37 6 58l21 107c1 7 2 14 2 18c0 11 -5 16 -18 16h-43l17 86h101c36 0 53 -12 53 -42c0 -7 -1 -14 -2 -22l-28 -144c-3 -16 -4 -31 -4 -43c0 -62 35 -94 117 -94c63 0 128 32 162 53l57 292h100l-122 -620h36c36 0 52 -12 52 -40c0 -7 -1 -14 -2 -23
l-32 -163h-89l19 98c3 14 5 24 5 27c0 9 -6 14 -16 15h-90l56 284c3 14 8 33 8 33h-2c-39 -21 -107 -46 -179 -46c-126 0 -185 54 -185 150z" />
    <glyph glyph-name="uni04CB" unicode="&#x4cb;" horiz-adv-x="646" 
d="M103 421c0 18 2 37 6 58l21 107c1 7 2 14 2 18c0 11 -5 16 -18 16h-43l17 86h101c36 0 53 -12 53 -42c0 -7 -1 -14 -2 -22l-28 -144c-3 -16 -4 -31 -4 -43c0 -62 35 -94 117 -94c63 0 128 32 162 53l57 292h100l-139 -706h-107c-14 0 -23 -8 -26 -22l-23 -118h-89l32 163
c9 46 30 63 75 63h55l39 198c3 14 8 33 8 33h-2c-39 -21 -107 -46 -179 -46c-126 0 -185 54 -185 150z" />
    <glyph glyph-name="uni0497" unicode="&#x497;" horiz-adv-x="773" 
d="M-41 0l161 208c33 42 65 49 65 49l1 2s-18 7 -28 40l-31 104c-5 17 -17 20 -42 20h-29l16 83h58c47 0 63 -7 76 -47l39 -131c8 -27 34 -29 53 -29h33l40 207h93l-40 -207h29c19 0 41 2 60 29l90 131c29 40 52 47 99 47h60l-16 -83h-25c-25 0 -37 -3 -49 -20l-71 -104
c-22 -33 -50 -40 -50 -40v-2c-1 0 25 -7 41 -49l49 -127h27c36 0 51 -14 51 -41c0 -6 -1 -14 -3 -24l-26 -136h-90l15 77c3 15 5 25 5 28c0 9 -6 15 -16 15h-32l-66 176c-13 35 -37 40 -64 40h-34l-42 -216h-94l43 216h-31c-28 0 -51 -5 -77 -40l-135 -176h-113z" />
    <glyph glyph-name="uni049B" unicode="&#x49b;" horiz-adv-x="537" 
d="M28 0l75 388c1 6 3 16 3 20c0 10 -6 15 -18 15h-40l15 83h94c39 0 56 -13 56 -44c0 -7 -1 -16 -3 -24l-25 -131h43c19 0 37 4 53 23l154 176h114l-178 -203c-28 -31 -46 -38 -46 -38v-2s16 -7 29 -38l59 -144h16c36 0 51 -14 51 -41c0 -6 -1 -14 -3 -24l-26 -136h-90
l15 77c3 15 5 25 5 28c0 9 -5 15 -15 15h-30l-78 204c-7 18 -25 20 -46 20h-43l-44 -224h-97z" />
    <glyph glyph-name="uni04B3" unicode="&#x4b3;" horiz-adv-x="526" 
d="M-37 0l226 265l-73 139c-8 16 -21 19 -40 19h-29l17 83h62c39 0 54 -13 73 -53l46 -95c5 -12 11 -31 11 -31h2s12 19 22 31l77 95c34 42 47 53 94 53h72l-16 -83h-29c-20 0 -34 -2 -47 -18l-129 -149l85 -175h27c36 0 52 -14 52 -41c0 -6 -1 -14 -3 -24l-27 -136h-89
l15 77c3 15 5 25 5 28c0 8 -5 14 -14 15h-29l-80 164c-5 13 -11 28 -11 28h-2s-8 -14 -19 -28l-137 -164h-112z" />
    <glyph glyph-name="uni04F7" unicode="&#x4f7;" horiz-adv-x="442" 
d="M28 0l82 423h-63l16 83h336c37 0 54 -11 54 -40c0 -6 -1 -14 -2 -22l-15 -77h-81l5 27c1 8 2 13 2 15c0 8 -6 14 -18 14h-137l-67 -342h25c35 0 50 -13 50 -41c0 -6 -1 -14 -2 -22l-27 -138h-90l15 77c3 15 5 25 5 28c0 8 -4 14 -12 15h-76z" />
    <glyph glyph-name="uni04A3" unicode="&#x4a3;" horiz-adv-x="631" 
d="M380 0l43 219h-256l-43 -219h-96l73 381c3 11 5 22 5 26c0 11 -6 16 -18 16h-41l16 83h96c37 0 54 -13 54 -42c0 -7 -1 -14 -3 -22l-27 -142h256l39 206h97l-83 -425h25c35 0 51 -13 51 -41c0 -6 -1 -14 -3 -22l-27 -138h-90l15 77c3 15 5 25 5 28c0 8 -4 14 -12 15h-76z
" />
    <glyph glyph-name="uni04AD" unicode="&#x4ad;" horiz-adv-x="532" 
d="M159 0l82 423h-97c-15 0 -24 -8 -27 -22l-6 -34h-81l14 77c9 45 32 62 78 62h368c37 0 54 -12 54 -41c0 -5 -1 -14 -3 -21l-14 -77h-81l4 23c1 5 3 15 3 18c0 9 -6 15 -18 15h-97l-67 -342h25c36 0 50 -13 50 -41c0 -6 -1 -14 -2 -22l-27 -138h-89l15 77c3 15 5 25 5 28
c0 8 -4 14 -13 15h-76z" />
    <glyph glyph-name="uni04B7" unicode="&#x4b7;" horiz-adv-x="568" 
d="M37 423l16 83h91c39 0 53 -16 53 -42c0 -7 -1 -14 -2 -23l-17 -86c-3 -11 -4 -22 -4 -32c0 -36 18 -63 81 -63c51 0 95 21 120 36l41 210h97l-83 -425h24c36 0 50 -13 50 -41c0 -6 -1 -14 -2 -22l-27 -138h-90l15 77c3 15 5 25 5 28c0 9 -5 15 -14 15h-74l36 181
c2 14 8 32 8 32h-2c-38 -19 -91 -35 -142 -35c-95 0 -144 46 -144 115c0 11 1 22 4 35l12 62c1 8 3 16 3 18c0 11 -6 15 -19 15h-36z" />
    <glyph glyph-name="uni04CC" unicode="&#x4cc;" horiz-adv-x="536" 
d="M233 8c9 43 29 63 73 63h25l23 119c2 14 8 31 8 31h-1c-38 -19 -91 -34 -143 -34c-94 0 -144 45 -144 114c0 11 2 23 4 36l10 53c2 8 3 16 3 18c0 11 -6 15 -19 15h-36l17 83h91c39 0 53 -16 53 -42c0 -7 -1 -14 -3 -23l-15 -78c-2 -11 -3 -21 -3 -31
c0 -36 17 -64 81 -64c50 0 95 21 119 37l39 201h97l-98 -506h-79c-10 -1 -16 -10 -18 -22l-19 -98h-90z" />
    <glyph glyph-name="uni048A" unicode="&#x48a;" horiz-adv-x="793" 
d="M41 0l116 598c3 15 -3 22 -17 22h-43l17 86h101c45 0 60 -19 51 -64l-76 -387c-7 -40 -25 -101 -25 -101h2s44 65 76 102l396 450h105l-117 -598c-2 -14 4 -22 18 -22h89l-12 -57l-105 -169h-77l67 140h-36c-45 0 -61 19 -52 64l75 388c8 39 27 103 27 103h-2
s-42 -65 -74 -103l-399 -452h-105zM483 739c-75 0 -133 43 -133 105c0 7 0 16 5 38h79c-5 -13 -5 -22 -5 -27c0 -33 24 -53 59 -53c38 0 78 20 86 80h77c-16 -108 -94 -143 -168 -143z" />
    <glyph glyph-name="uni04C5" unicode="&#x4c5;" horiz-adv-x="709" 
d="M-50 -8l18 91c119 16 194 172 249 458l15 79h-66l17 86h415c36 0 54 -13 54 -41c0 -8 -2 -22 -6 -42l-96 -495c-3 -12 -5 -24 -5 -27c0 -9 7 -15 19 -15h87l-11 -57l-106 -169h-77l67 140h-35c-37 0 -54 13 -54 42c0 7 3 24 6 42l97 494c3 14 4 24 4 27
c0 10 -7 15 -19 15h-195l-15 -79c-65 -338 -162 -539 -363 -549z" />
    <glyph glyph-name="uni04C9" unicode="&#x4c9;" horiz-adv-x="788" 
d="M41 0l113 579c2 11 4 20 4 26c0 10 -7 15 -20 15h-41l17 86h95c44 0 58 -18 58 -45c0 -10 -1 -23 -4 -36l-46 -229h360l49 249c9 46 31 61 73 61h104l-17 -86h-45c-12 0 -21 -6 -24 -22l-100 -512h112l-11 -57l-106 -169h-77l70 140h-105l60 310h-359l-60 -310h-100z" />
    <glyph glyph-name="uni04CD" unicode="&#x4cd;" horiz-adv-x="890" 
d="M-35 0l16 86h33c15 0 23 7 27 22l164 598h100l93 -375c9 -39 17 -89 17 -89h2s26 48 52 89l239 375h107l-66 -581c-1 -9 -2 -17 -2 -24c0 -9 5 -15 17 -15h91l-11 -57l-106 -169h-77l67 140h-29c-43 0 -60 14 -60 49c0 7 2 19 3 27l42 361c5 42 18 104 18 104h-2
s-34 -68 -58 -104l-203 -310h-84l-82 310c-9 37 -18 105 -18 105h-2s-11 -64 -22 -105l-102 -377c-12 -42 -30 -60 -72 -60h-92z" />
    <glyph glyph-name="uni048B" unicode="&#x48b;" horiz-adv-x="645" 
d="M27 0l76 387c1 7 3 17 3 21c0 10 -7 15 -18 15h-40l16 83h90c36 0 53 -12 53 -41c0 -7 -1 -14 -3 -22l-46 -235c-5 -27 -15 -63 -16 -68h2c5 8 38 47 60 70l276 296h95l-75 -384c-2 -9 -4 -20 -4 -24c0 -9 4 -14 13 -15h78l-11 -55l-90 -148h-73l56 120h-21
c-37 0 -53 13 -53 42c0 6 1 14 2 21l45 236c5 24 15 60 17 67h-2c-6 -8 -38 -47 -60 -69l-274 -297h-96zM372 564c-75 0 -133 43 -133 105c0 7 0 16 5 38h79c-5 -13 -5 -22 -5 -27c0 -33 24 -53 59 -53c38 0 78 20 86 80h77c-16 -108 -94 -143 -168 -143z" />
    <glyph glyph-name="uni04C6" unicode="&#x4c6;" horiz-adv-x="568" 
d="M-44 -3l16 86c25 2 50 17 73 43c53 60 89 176 105 258l7 39h-63l16 83h326c38 0 55 -13 55 -42c0 -7 -1 -14 -2 -22l-65 -330c-1 -6 -2 -11 -2 -13c0 -11 6 -16 17 -16h78l-11 -55l-90 -148h-73l56 120h-29c-37 0 -54 13 -54 43c0 6 1 13 3 21l63 330c1 5 3 11 3 13
c0 11 -7 16 -19 16h-116l-8 -40c-17 -87 -60 -247 -147 -330c-38 -35 -84 -56 -139 -56z" />
    <glyph glyph-name="uni04CA" unicode="&#x4ca;" horiz-adv-x="632" 
d="M28 0l74 383c2 9 5 22 5 25c0 10 -7 15 -19 15h-41l16 83h96c37 0 54 -13 54 -42c0 -6 -1 -14 -3 -22l-27 -143h256l40 207h97l-75 -383c-2 -11 -4 -23 -4 -26c0 -9 6 -14 18 -14h59l-10 -55l-91 -148h-72l56 120h-13c-37 0 -54 13 -54 42c0 7 1 16 3 25l30 151h-256
l-43 -218h-96z" />
    <glyph glyph-name="uni04CE" unicode="&#x4ce;" horiz-adv-x="757" 
d="M-39 0l16 83h25c13 0 19 7 23 19l114 404h101l76 -290c7 -30 13 -64 13 -64h2s20 34 39 64l187 290h112l-43 -388c-1 -12 -1 -19 -1 -21c0 -9 4 -14 15 -14h76l-10 -55l-91 -148h-72l56 120h-24c-34 0 -45 13 -45 37c0 6 1 16 2 24l27 233c3 31 15 92 15 92h-2
s-20 -39 -46 -78l-166 -247h-87l-71 247c-10 37 -13 80 -13 80h-2s-10 -63 -18 -94l-66 -239c-10 -36 -25 -55 -66 -55h-76z" />
    <glyph glyph-name="uni0498" unicode="&#x498;" horiz-adv-x="532" 
d="M-15 82l61 67c30 -39 83 -72 153 -72c93 0 175 58 175 145c0 65 -47 95 -115 95h-94l16 82h78c73 0 152 54 152 135c0 54 -32 96 -108 96c-62 0 -114 -31 -122 -68l-5 -29h-92l11 55c18 99 141 130 224 130c112 0 196 -60 196 -167c0 -91 -58 -156 -136 -185v-2
c55 -20 96 -66 96 -140c0 -128 -107 -218 -232 -233l-25 -131h-89l25 132c-66 9 -130 39 -169 90z" />
    <glyph glyph-name="uni04AA" unicode="&#x4aa;" horiz-adv-x="694" 
d="M41 295c0 217 181 423 418 423c103 0 244 -41 244 -138c0 -12 -2 -26 -6 -44l-8 -40h-91l8 38c13 69 -94 91 -150 91c-164 0 -312 -143 -312 -325c0 -128 80 -218 214 -218c84 0 170 31 230 85l45 -78c-63 -58 -161 -95 -260 -100l-24 -129h-90l26 134
c-147 25 -244 143 -244 301z" />
    <glyph glyph-name="uni04BE" unicode="&#x4be;" horiz-adv-x="845" 
d="M59 479c0 47 17 96 44 157h93c-25 -52 -45 -104 -45 -147c0 -40 15 -65 63 -66c53 160 191 295 377 295c153 0 243 -92 243 -244c0 -39 -6 -77 -21 -131h-512c-20 -129 31 -264 198 -264c79 0 168 32 224 83l43 -79c-41 -37 -141 -93 -267 -95l-24 -128h-90l26 136
c-130 28 -207 125 -216 261c-2 27 -1 53 3 87c-84 0 -139 46 -139 135zM318 422h413c4 18 6 36 6 54c0 85 -48 154 -155 154c-128 0 -230 -97 -264 -208z" />
    <glyph glyph-name="uni0499" unicode="&#x499;" horiz-adv-x="442" 
d="M-19 62l49 61c11 -13 55 -56 127 -56c61 0 123 33 123 101c0 38 -30 58 -90 58h-64l13 68h51c67 0 119 32 119 94c0 39 -34 56 -79 56c-36 0 -86 -13 -91 -48l-4 -23h-81l8 47c13 68 95 98 177 98c102 0 167 -42 167 -119c0 -76 -53 -121 -101 -135v-2
c38 -12 71 -43 71 -99c0 -99 -84 -157 -173 -171l-21 -112h-88l21 112c-72 10 -113 46 -134 70z" />
    <glyph glyph-name="uni04AB" unicode="&#x4ab;" horiz-adv-x="527" 
d="M22 212c0 167 139 306 306 306c71 0 198 -27 180 -119l-8 -44h-86l4 21c7 41 -52 59 -97 59c-105 0 -200 -97 -200 -214c0 -84 48 -147 147 -147c102 0 163 61 163 61l28 -77s-62 -63 -182 -69l-20 -109h-87l22 115c-110 23 -170 107 -170 217z" />
    <glyph glyph-name="uni04BF" unicode="&#x4bf;" horiz-adv-x="656" 
d="M31 352c0 39 12 76 32 112h81c-17 -29 -35 -66 -35 -103c0 -31 15 -44 47 -46c40 114 143 203 278 203c128 0 191 -78 191 -186c0 -32 -6 -63 -15 -92h-370c-15 -92 34 -168 142 -168c57 0 115 25 160 59l29 -76c-37 -30 -108 -63 -186 -67l-21 -108h-87l23 117
c-96 24 -162 96 -162 208c0 12 2 25 3 36c-72 2 -110 40 -110 111zM257 310h269c3 9 3 20 3 33c0 66 -41 100 -100 100c-71 0 -142 -47 -172 -133z" />
    <glyph glyph-name="uni040F" unicode="&#x40f;" horiz-adv-x="740" 
d="M55 67l98 511c3 12 5 23 5 26c0 11 -7 16 -19 16h-43l18 86h101c37 0 53 -13 53 -42c0 -6 -1 -14 -2 -22l-100 -513c-3 -14 -5 -24 -5 -27c0 -10 7 -16 19 -16h299c14 0 23 8 26 22l104 534c9 45 32 64 77 64h101l-17 -86h-43c-14 0 -23 -7 -26 -22l-104 -534
c-9 -45 -32 -64 -76 -64h-163l-27 -140h-90l27 140h-162c-38 0 -54 13 -54 43c0 6 1 16 3 24z" />
    <glyph glyph-name="uni045F" unicode="&#x45f;" horiz-adv-x="590" 
d="M39 63l62 318c2 12 4 23 4 26c0 11 -6 16 -18 16h-41l16 83h96c36 0 54 -12 54 -42c0 -7 -1 -14 -3 -22l-62 -318c-3 -14 -5 -24 -5 -27c0 -11 7 -16 18 -16h187c14 0 23 8 26 22l66 339c8 45 31 64 77 64h95l-17 -83h-40c-15 0 -23 -7 -26 -22l-66 -338
c-9 -45 -30 -63 -76 -63h-104l-24 -120h-87l24 120h-105c-37 0 -54 12 -54 41c0 7 1 13 3 22z" />
    <glyph glyph-name="uni040E" unicode="&#x40e;" horiz-adv-x="612" 
d="M388 739c-75 0 -133 43 -133 105c0 7 0 16 5 38h79c-5 -13 -5 -22 -5 -27c0 -33 24 -53 59 -53c38 0 78 20 86 80h77c-16 -108 -94 -143 -168 -143zM20 38l54 72c18 -17 43 -33 74 -33c43 0 68 30 96 78l-131 443c-5 16 -12 22 -29 22h-21l17 86h48c47 0 59 -13 71 -58
l86 -305c11 -39 21 -88 21 -88h2s18 39 45 88l170 305c26 47 43 58 93 58h61l-17 -86h-16c-18 0 -27 -4 -37 -21l-280 -486c-39 -68 -91 -125 -174 -125c-49 0 -102 21 -133 50z" />
    <glyph glyph-name="uni04C1" unicode="&#x4c1;" horiz-adv-x="887" 
d="M-49 0l250 324c28 35 54 47 54 47v2s-18 6 -32 43l-66 181c-7 20 -21 23 -46 23h-17l17 86h44c55 0 68 -8 84 -53l79 -218c9 -25 27 -28 55 -28h45l58 299h96l-58 -299h35c28 0 50 3 69 28l159 218c33 45 54 53 109 53h51l-16 -86h-16c-24 0 -39 -3 -54 -23l-138 -185
c-26 -37 -53 -46 -53 -46v-2s22 -11 35 -46l125 -318h-104l-114 297c-10 26 -27 29 -52 29h-52l-64 -326h-96l64 326h-46c-26 0 -43 -3 -63 -29l-227 -297h-115zM540 739c-75 0 -133 43 -133 105c0 7 0 16 5 38h79c-5 -13 -5 -22 -5 -27c0 -33 24 -53 59 -53
c38 0 78 20 86 80h77c-16 -108 -94 -143 -168 -143z" />
    <glyph glyph-name="uni04D0" unicode="&#x4d0;" horiz-adv-x="664" 
d="M-46 0l17 86h18c16 0 24 4 33 22l338 598h105l105 -600c3 -16 8 -20 24 -20h18l-17 -86h-60c-43 0 -56 12 -63 58l-25 145h-259l-82 -145c-25 -46 -41 -58 -84 -58h-68zM228 287h211l-36 216c-5 35 -8 98 -8 98h-2s-27 -63 -47 -98zM422 739c-75 0 -133 43 -133 105
c0 7 0 16 5 38h79c-5 -13 -5 -22 -5 -27c0 -33 24 -53 59 -53c38 0 78 20 86 80h77c-16 -108 -94 -143 -168 -143z" />
    <glyph glyph-name="uni04D6" unicode="&#x4d6;" horiz-adv-x="571" 
d="M52 45c0 10 2 22 5 37l105 538h-65l17 86h409c44 0 59 -18 59 -45c0 -10 -2 -23 -5 -36l-14 -72h-91l6 28c2 11 3 18 3 24c0 10 -7 15 -20 15h-199l-43 -221h247l-17 -86h-247l-37 -189c-2 -9 -3 -18 -3 -23c0 -10 5 -15 18 -15h206c14 0 24 8 27 22l9 45h91l-18 -91
c-8 -46 -31 -62 -73 -62h-312c-41 0 -58 17 -58 45zM395 739c-75 0 -133 43 -133 105c0 7 0 16 5 38h79c-5 -13 -5 -22 -5 -27c0 -33 24 -53 59 -53c38 0 78 20 86 80h77c-16 -108 -94 -143 -168 -143z" />
    <glyph glyph-name="uni045E" unicode="&#x45e;" horiz-adv-x="543" 
d="M32 -210c-69 0 -112 50 -112 50l41 69c2 -2 29 -36 74 -36c40 0 73 29 100 74l36 57l-95 399c-4 16 -10 20 -27 20h-12l16 83h65c32 0 43 -17 50 -51l59 -285c5 -26 6 -61 6 -61h2s15 35 29 61l161 285c23 40 43 51 84 51h62l-17 -83h-12c-16 0 -27 -4 -36 -20l-297 -497
c-47 -78 -109 -116 -177 -116zM328 565c-75 0 -133 43 -133 105c0 7 0 16 5 38h79c-5 -13 -5 -22 -5 -27c0 -33 24 -53 59 -53c38 0 78 20 86 80h77c-16 -108 -94 -143 -168 -143z" />
    <glyph glyph-name="uni04C2" unicode="&#x4c2;" horiz-adv-x="746" 
d="M-41 0l161 208c33 42 65 49 65 49l1 2s-18 7 -28 40l-31 104c-5 17 -17 20 -42 20h-29l16 83h58c47 0 63 -7 76 -47l39 -131c8 -27 34 -29 53 -29h33l40 207h93l-40 -207h29c19 0 41 2 60 29l90 131c29 40 52 47 99 47h60l-16 -83h-25c-25 0 -37 -3 -49 -20l-71 -104
c-22 -33 -50 -40 -50 -40v-2c-1 0 25 -7 41 -49l81 -208h-101l-66 176c-13 35 -37 40 -64 40h-34l-42 -216h-94l43 216h-31c-28 0 -51 -5 -77 -40l-135 -176h-113zM435 564c-75 0 -133 43 -133 105c0 7 0 16 5 38h79c-5 -13 -5 -22 -5 -27c0 -33 24 -53 59 -53
c38 0 78 20 86 80h77c-16 -108 -94 -143 -168 -143z" />
    <glyph glyph-name="uni04D1" unicode="&#x4d1;" horiz-adv-x="533" 
d="M-3 121c0 147 176 194 339 194h25l2 12c3 14 4 25 4 39c0 50 -30 75 -90 75c-33 0 -90 -7 -95 -39l-5 -29h-92l10 51c14 72 115 94 194 94c122 0 175 -56 175 -143c0 -19 -3 -38 -7 -59l-37 -197c-2 -7 -4 -16 -4 -21c0 -9 6 -15 18 -15h42l-17 -83h-85
c-39 0 -55 17 -55 41c0 11 5 39 10 55h-2c1 0 -60 -108 -183 -108c-79 0 -147 43 -147 133zM95 135c0 -45 31 -72 77 -72c88 0 159 97 172 164l4 18h-25c-85 0 -228 -15 -228 -110zM323 564c-75 0 -133 43 -133 105c0 7 0 16 5 38h79c-5 -13 -5 -22 -5 -27
c0 -33 24 -53 59 -53c38 0 78 20 86 80h77c-16 -108 -94 -143 -168 -143z" />
    <glyph glyph-name="uni04D7" unicode="&#x4d7;" horiz-adv-x="540" 
d="M21 203c0 169 125 315 295 315c130 0 192 -78 192 -187c0 -43 -15 -90 -15 -90h-369s-4 -17 -4 -36c0 -76 51 -133 144 -133c87 0 161 58 161 58l28 -75s-85 -67 -195 -67c-148 0 -237 90 -237 215zM139 310h269s3 15 3 29c0 67 -41 102 -98 102
c-74 0 -144 -48 -174 -131zM340 564c-75 0 -133 43 -133 105c0 7 0 16 5 38h79c-5 -13 -5 -22 -5 -27c0 -33 24 -53 59 -53c38 0 78 20 86 80h77c-16 -108 -94 -143 -168 -143z" />
    <glyph glyph-name="uni0400" unicode="&#x400;" horiz-adv-x="571" 
d="M52 45c0 10 2 22 5 37l105 538h-65l17 86h409c44 0 59 -18 59 -45c0 -10 -2 -23 -5 -36l-14 -72h-91l6 28c2 11 3 18 3 24c0 10 -7 15 -20 15h-199l-43 -221h247l-17 -86h-247l-37 -189c-2 -9 -3 -18 -3 -23c0 -10 5 -15 18 -15h206c14 0 24 8 27 22l9 45h91l-18 -91
c-8 -46 -31 -62 -73 -62h-312c-41 0 -58 17 -58 45zM375 755l-73 127h94l51 -127h-72z" />
    <glyph glyph-name="uni040D" unicode="&#x40d;" horiz-adv-x="763" 
d="M41 0l116 598c3 15 -3 22 -17 22h-43l17 86h101c45 0 60 -19 51 -64l-76 -387c-7 -40 -25 -101 -25 -101h2s44 65 76 102l396 450h105l-117 -598c-2 -14 4 -22 18 -22h43l-17 -86h-100c-45 0 -61 19 -52 64l75 388c8 39 27 103 27 103h-2s-42 -65 -74 -103l-399 -452
h-105zM442 755l-73 127h94l51 -127h-72z" />
    <glyph glyph-name="uni0450" unicode="&#x450;" horiz-adv-x="540" 
d="M21 203c0 169 125 315 295 315c130 0 192 -78 192 -187c0 -43 -15 -90 -15 -90h-369s-4 -17 -4 -36c0 -76 51 -133 144 -133c87 0 161 58 161 58l28 -75s-85 -67 -195 -67c-148 0 -237 90 -237 215zM139 310h269s3 15 3 29c0 67 -41 102 -98 102
c-74 0 -144 -48 -174 -131zM319 580l-73 127h94l51 -127h-72z" />
    <glyph glyph-name="uni045D" unicode="&#x45d;" horiz-adv-x="619" 
d="M27 0l76 387c1 7 3 17 3 21c0 10 -7 15 -18 15h-40l16 83h90c36 0 53 -12 53 -41c0 -7 -1 -14 -3 -22l-46 -235c-5 -27 -15 -63 -16 -68h2c5 8 38 47 60 70l276 296h95l-75 -384c-2 -9 -4 -20 -4 -24c0 -10 6 -15 18 -15h40l-16 -83h-90c-37 0 -53 13 -53 42
c0 6 1 14 2 21l45 236c5 24 15 60 17 67h-2c-6 -8 -38 -47 -60 -69l-274 -297h-96zM349 580l-73 127h94l51 -127h-72z" />
    <glyph glyph-name="uni0403" unicode="&#x403;" horiz-adv-x="514" 
d="M320 755l97 127h101l-119 -127h-79zM450 620h-189l-121 -620h-100l121 620h-65l18 86h400c43 0 56 -18 56 -45c0 -10 -3 -23 -5 -36l-14 -72h-89l5 28c2 10 4 18 4 24c0 10 -8 15 -21 15z" />
    <glyph glyph-name="uni040C" unicode="&#x40c;" horiz-adv-x="612" 
d="M364 755l97 127h101l-119 -127h-79zM41 0l113 579c2 11 4 20 4 25c0 11 -7 16 -20 16h-41l17 86h95c44 0 58 -18 58 -45c0 -10 -1 -23 -4 -36l-42 -216h67c29 0 45 7 58 24l210 273h117l-228 -293c-26 -33 -48 -46 -48 -46v-2s15 -13 25 -44l65 -211c6 -17 17 -24 38 -24
h32l-18 -86h-64c-45 0 -65 16 -77 53l-75 245c-6 21 -24 25 -54 25h-65l-63 -323h-100z" />
    <glyph glyph-name="uni04F2" unicode="&#x4f2;" horiz-adv-x="612" 
d="M20 38l54 72c18 -17 43 -33 74 -33c43 0 68 30 96 78l-131 443c-5 16 -12 22 -29 22h-21l17 86h48c47 0 59 -13 71 -58l86 -305c11 -39 21 -88 21 -88h2s18 39 45 88l170 305c26 47 43 58 93 58h61l-17 -86h-16c-18 0 -27 -4 -37 -21l-280 -486
c-39 -68 -91 -125 -174 -125c-49 0 -102 21 -133 50zM416 755l85 127h98l-106 -127h-77zM264 755l81 127h84l-82 -127h-83z" />
    <glyph glyph-name="uni04E2" unicode="&#x4e2;" horiz-adv-x="763" 
d="M350 785l13 69h254l-13 -69h-254zM41 0l116 598c3 15 -3 22 -17 22h-43l17 86h101c45 0 60 -19 51 -64l-76 -387c-7 -40 -25 -101 -25 -101h2s44 65 76 102l396 450h105l-117 -598c-2 -14 4 -22 18 -22h43l-17 -86h-100c-45 0 -61 19 -52 64l75 388c8 39 27 103 27 103
h-2s-42 -65 -74 -103l-399 -452h-105z" />
    <glyph glyph-name="uni04EE" unicode="&#x4ee;" horiz-adv-x="612" 
d="M267 785l13 69h254l-13 -69h-254zM20 38l54 72c18 -17 43 -33 74 -33c43 0 68 30 96 78l-131 443c-5 16 -12 22 -29 22h-21l17 86h48c47 0 59 -13 71 -58l86 -305c11 -39 21 -88 21 -88h2s18 39 45 88l170 305c26 47 43 58 93 58h61l-17 -86h-16c-18 0 -27 -4 -37 -21
l-280 -486c-39 -68 -91 -125 -174 -125c-49 0 -102 21 -133 50z" />
    <glyph glyph-name="uni0453" unicode="&#x453;" horiz-adv-x="440" 
d="M238 580l97 127h101l-119 -127h-79zM28 0l82 423h-63l16 83h336c37 0 54 -11 54 -40c0 -6 -1 -14 -2 -22l-15 -77h-81l5 27c1 8 2 13 2 15c0 8 -6 14 -18 14h-137l-83 -423h-96z" />
    <glyph glyph-name="uni045C" unicode="&#x45c;" horiz-adv-x="533" 
d="M287 580l97 127h101l-119 -127h-79zM28 0l75 388c1 6 3 16 3 20c0 10 -6 15 -18 15h-40l15 83h94c39 0 56 -13 56 -44c0 -7 -1 -16 -3 -24l-25 -131h43c19 0 37 4 53 23l154 176h114l-178 -203c-28 -31 -46 -38 -46 -38v-2s16 -7 29 -38l50 -122c6 -16 15 -20 41 -20h30
l-16 -83h-68c-47 0 -59 8 -73 47l-60 157c-7 18 -25 20 -46 20h-43l-44 -224h-97z" />
    <glyph glyph-name="uni04F3" unicode="&#x4f3;" horiz-adv-x="543" 
d="M32 -210c-69 0 -112 50 -112 50l41 69c2 -2 29 -36 74 -36c40 0 73 29 100 74l36 57l-95 399c-4 16 -10 20 -27 20h-12l16 83h65c32 0 43 -17 50 -51l59 -285c5 -26 6 -61 6 -61h2s15 35 29 61l161 285c23 40 43 51 84 51h62l-17 -83h-12c-16 0 -27 -4 -36 -20l-297 -497
c-47 -78 -109 -116 -177 -116zM354 580l85 127h98l-106 -127h-77zM202 580l81 127h84l-82 -127h-83z" />
    <glyph glyph-name="uni04E3" unicode="&#x4e3;" horiz-adv-x="619" 
d="M27 0l76 387c1 7 3 17 3 21c0 10 -7 15 -18 15h-40l16 83h90c36 0 53 -12 53 -41c0 -7 -1 -14 -3 -22l-46 -235c-5 -27 -15 -63 -16 -68h2c5 8 38 47 60 70l276 296h95l-75 -384c-2 -9 -4 -20 -4 -24c0 -10 6 -15 18 -15h40l-16 -83h-90c-37 0 -53 13 -53 42
c0 6 1 14 2 21l45 236c5 24 15 60 17 67h-2c-6 -8 -38 -47 -60 -69l-274 -297h-96zM244 611l13 69h254l-13 -69h-254z" />
    <glyph glyph-name="uni04EF" unicode="&#x4ef;" horiz-adv-x="543" 
d="M-80 -160l41 69c2 -2 29 -36 74 -36c40 0 73 29 100 74l36 57l-95 399c-4 16 -10 20 -27 20h-12l16 83h65c32 0 43 -17 50 -51l59 -285c5 -26 6 -61 6 -61h2s15 35 29 61l161 285c23 40 43 51 84 51h62l-17 -83h-12c-16 0 -27 -4 -36 -20l-297 -497
c-47 -78 -109 -116 -177 -116c-69 0 -112 50 -112 50zM205 610l13 68h255l-13 -68h-255z" />
    <glyph glyph-name="uni0405" unicode="&#x405;" horiz-adv-x="528" 
d="M-7 91l64 69s58 -81 166 -81c86 0 147 51 147 119c0 139 -283 109 -283 312c0 124 112 208 250 208c88 0 193 -35 193 -110c0 -8 -2 -21 -4 -30l-10 -48h-89l4 23c2 7 3 15 3 21c0 35 -47 53 -100 53c-95 0 -145 -53 -145 -111c0 -130 283 -96 283 -307
c0 -125 -99 -221 -250 -221c-156 0 -229 103 -229 103z" />
    <glyph glyph-name="uni0406" unicode="&#x406;" horiz-adv-x="316" 
d="M-15 0l17 86h68l104 534h-69l17 86h233l-17 -86h-68l-104 -534h68l-17 -86h-232z" />
    <glyph glyph-name="uni0408" unicode="&#x408;" horiz-adv-x="509" 
d="M-8 152c0 19 2 35 5 55l5 31h100l-5 -27c-2 -15 -4 -27 -4 -41c0 -65 43 -88 90 -88c56 0 117 33 135 125l73 375c2 10 3 18 3 23c0 10 -7 15 -20 15h-171l17 86h225c44 0 59 -18 59 -45c0 -10 -3 -22 -5 -35l-84 -432c-29 -152 -138 -206 -235 -206
c-100 0 -188 55 -188 164z" />
    <glyph glyph-name="uni04C0" unicode="&#x4c0;" horiz-adv-x="318" 
d="M-15 0l17 86h68l104 534h-69l17 86h233l-17 -86h-68l-104 -534h68l-17 -86h-232z" />
    </font>
</defs>
</svg>
